<?xml version="1.0" encoding="UTF-8" standalone="no"?>
<!-- Created with Inkscape (http://www.inkscape.org/) -->

<svg
   version="1.1"
   id="svg2"
   width="2829.3333"
   height="2829.3333"
   viewBox="0 0 2829.3333 2829.3333"
   sodipodi:docname="6188e885-18c6-4d01-92c2-a649724cc6fd.svg"
   inkscape:export-filename="6188e885-18c6-4d01-92c2-a649724cc6fd.eps.png"
   inkscape:export-xdpi="96"
   inkscape:export-ydpi="96"
   inkscape:version="1.2.2 (b0a8486541, 2022-12-01)"
   xmlns:inkscape="http://www.inkscape.org/namespaces/inkscape"
   xmlns:sodipodi="http://sodipodi.sourceforge.net/DTD/sodipodi-0.dtd"
   xmlns="http://www.w3.org/2000/svg"
   xmlns:svg="http://www.w3.org/2000/svg">
  <defs
     id="defs6" />
  <sodipodi:namedview
     id="namedview4"
     pagecolor="#ffffff"
     bordercolor="#000000"
     borderopacity="0.25"
     inkscape:showpageshadow="2"
     inkscape:pageopacity="0.0"
     inkscape:pagecheckerboard="0"
     inkscape:deskcolor="#d1d1d1"
     showgrid="false"
     inkscape:zoom="0.152951"
     inkscape:cx="1484.1354"
     inkscape:cy="987.24428"
     inkscape:window-width="1920"
     inkscape:window-height="1011"
     inkscape:window-x="0"
     inkscape:window-y="32"
     inkscape:window-maximized="1"
     inkscape:current-layer="g10">
    <inkscape:page
       x="0"
       y="0"
       id="page8"
       width="2829.3333"
       height="2829.3333" />
  </sodipodi:namedview>
  <g
     id="g10"
     inkscape:groupmode="layer"
     inkscape:label="Page 1"
     transform="matrix(1.3333333,0,0,-1.3333333,0,2829.3333)">
    <g
       id="g12"
       transform="matrix(0.03544459,0,0,0.03544459,103.61235,288.59118)"
       style="display:inline"
       inkscape:label="passaro">
      <path
         d="m 18852.4,17179.3 c -41.3,29.6 -95.7,31.1 -146.4,31.3 -634,1.6 -1268.1,-48 -1894.2,-147.9 -98.6,-15.8 -196.5,-27.7 -290.6,-41.1 -411.7,560.9 -1085.9,922.5 -1935.4,941.2 -1494.2,32.4 -2976.4,-797.7 -3729.3,-2088.9 -244.2,-418.3 -412.7,-872.3 -572.7,-1330.8 -471.67,-147.4 -874,-540.8 -1214.6,-919.6 C 8097.31,12543.9 7185.84,11466.7 6183.06,10472.9 5472.12,9767.4 4715.24,9104.4 3857.66,8512.2 3337.8,8153 2823.95,7784.8 2307.55,7420.1 c 407.84,-54.7 817.67,-79.8 1227.3,-78.2 -408.64,-317.6 -1134.93,-823.9 -1656.53,-863 0,0 795.06,-198.8 1566.59,-105.2 -325.04,-211.4 -865.99,-527.4 -1256.63,-572.1 0,0 2792.49,-622.2 4555.26,75.3 171.12,-26.4 342.76,-50.9 514.85,-71.4 323.75,-39 650.15,-65.5 977.23,-77.9 -2.1,-41.4 6.2,-83.2 16.63,-123.5 65.62,-254.5 215.87,-486.5 421.33,-650.4 79.48,-63.3 174,-117.4 271.92,-140.9 3.85,-30 7.65,-60.1 10.52,-89.9 20.7,-216.4 51.74,-432.2 85.84,-646.9 34.45,-216.9 74.45,-432.9 120.05,-647.8 25.56,-120.4 31.86,-241.9 87.99,-336.2 -188.74,-61.7 -377.49,-123.3 -566.23,-185 -189.97,-62 -383.78,-103.6 -541.1,-229.8 -54.51,-43.8 -4.28,-120.3 51.79,-125.1 206.72,-17.7 407.36,68.3 604.49,124.2 178.06,50.5 356.17,101.1 534.26,151.6 243.03,-112 535.71,-138.3 792.39,-211 220.5,-62.3 547.1,-267.2 767.5,-180.5 53.3,21 75.6,70.8 50.3,123.7 -109.7,229.3 -515.6,273.8 -741.1,334.8 -100.7,27.3 -208.27,57.9 -318.2,83.4 323.6,84.2 650.5,169.4 954,299.6 166.9,71.7 40.3,306 -116.5,276.4 -406.3,-76.6 -807.92,-235.5 -1202.49,-372.4 -1.38,90 -36.41,181.6 -57.36,280.3 -45.65,214.9 -85.61,431 -120,647.9 -37.23,234.7 -65.82,470.5 -93.79,706.4 -1.65,14 -3.07,27.7 -4.33,41.3 45.77,28.6 86.75,65.7 123.45,105.5 120.77,131.1 382.02,533.2 417.58,816.6 321.64,35.5 640.94,87.1 955.84,156.3 0.5,-15.1 2.4,-30.2 6.1,-45.4 11.7,-48.4 39.9,-91.1 70,-130.8 158.7,-209.6 386.8,-365.6 639.5,-437.5 42.2,-12.1 86.3,-21.4 130.9,-26.8 23.1,-67.1 53.1,-133.8 78.8,-201.9 75.3,-199.8 160.5,-395.9 250.1,-589.7 89.9,-194.6 185.6,-386.4 287,-575.2 56.3,-104.6 104.8,-223.9 177.8,-318.4 -248.1,-54.8 -496.1,-110.6 -743.8,-168 -123.7,-28.7 -68.5,-204.8 51.4,-186.4 296.5,45.3 592.5,92.9 888.4,141.6 239.5,-110.3 515,-121.3 770.6,-180.2 231.5,-53.4 526.4,-210.1 759.5,-147.1 72.5,19.6 82,101.6 40.5,153.8 -156.2,196.4 -536.6,225.6 -770.4,270.4 -33.4,6.3 -67,13 -101,19.6 75.9,12.5 151.8,24.6 227.8,36.3 203,31 416.2,38.7 602.1,128.6 139.8,67.6 57.8,260.9 -73.2,270.2 -188.5,13.4 -379.1,-55.6 -561.8,-98.5 -203.3,-47.8 -407.4,-91.3 -611.5,-135.6 -58.5,-12.7 -117,-25.4 -175.5,-38.2 -27.6,133.4 -116.7,250.5 -181.3,373.8 -99.5,190.1 -193.2,383.3 -281,579 -94.4,210.3 -180.7,424.5 -264.8,639.1 -12.1,30.9 -22.8,61 -33.2,90 10.7,7.2 21.1,15 31.1,23.5 65.9,56 108.1,135.1 137.6,216.4 53.1,145.9 125.2,522.9 92.2,799.6 55.2,23.9 110.2,48.4 164.9,73.7 1573.5,727.4 2899.6,2080.4 3367.1,3749.8 160.6,574.7 219.1,1171.8 303.3,1763.5 55.9,392.2 123.3,781.8 238.5,1160 179.1,583.7 470.5,1130 619.2,1722.3 25.4,101.3 45.5,201.7 60.4,301.1 72.9,48 142,103.8 209.2,158.7 574.8,469.6 1152.2,941.9 1644.3,1497.5 90.1,101.7 171.6,274.9 61.2,354.3"
         style="display:inline;fill:#ed333b;fill-opacity:1;fill-rule:nonzero;stroke:none;opacity:1"
         id="path14"
         transform="translate(7.3080513e-5,-6.4284058e-4)" />
      <path
         d="M 13537.331,11589.597 C 14348.988,10984.896 15716.3,10221.9 15716.3,10221.9 c 0,0 -1793.6,-3022.4 -3367.1,-3749.8 -54.7,-25.3 -109.7,-49.8 -164.9,-73.7 33,-276.7 -39.1,-653.7 -92.2,-799.6 -29.5,-81.3 -71.7,-160.4 -137.6,-216.4 -10,-8.5 -20.4,-16.3 -31.1,-23.5 10.4,-29 21.1,-59.1 33.2,-90 84.1,-214.6 170.4,-428.8 264.8,-639.1 87.8,-195.7 181.5,-388.9 281,-579 64.6,-123.3 153.7,-240.4 181.3,-373.8 58.5,12.8 117,25.5 175.5,38.2 204.1,44.3 408.2,87.8 611.5,135.6 182.7,42.9 373.3,111.9 561.8,98.5 131,-9.3 213,-202.6 73.2,-270.2 -185.9,-89.9 -399.1,-97.6 -602.1,-128.6 -76,-11.7 -151.9,-23.8 -227.8,-36.3 34,-6.6 67.6,-13.3 101,-19.6 233.8,-44.8 614.2,-74 770.4,-270.4 41.5,-52.2 32,-134.2 -40.5,-153.8 -233.1,-63 -528,93.7 -759.5,147.1 -255.6,58.9 -531.1,69.9 -770.6,180.2 -295.9,-48.7 -591.9,-96.3 -888.4,-141.6 -119.9,-18.4 -175.1,157.7 -51.4,186.4 247.7,57.4 495.7,113.2 743.8,168 -73,94.5 -121.5,213.8 -177.8,318.4 -101.4,188.8 -197.1,380.6 -287,575.2 -89.6,193.8 -174.8,389.9 -250.1,589.7 -25.7,68.1 -55.7,134.8 -78.8,201.9 -44.6,5.4 -88.7,14.7 -130.9,26.8 -252.7,71.9 -480.8,227.9 -639.5,437.5 -30.1,39.7 -58.3,82.4 -70,130.8 -3.7,15.2 -5.6,30.3 -6.1,45.4 -314.9,-69.2 -634.2,-120.8 -955.84,-156.3 -35.56,-283.4 -296.81,-685.5 -417.58,-816.6 -36.7,-39.8 -77.68,-76.9 -123.45,-105.5 1.26,-13.6 2.68,-27.3 4.33,-41.3 27.97,-235.9 56.56,-471.7 93.79,-706.4 34.39,-216.9 74.35,-433 120,-647.9 20.95,-98.7 55.98,-190.3 57.36,-280.3 394.57,136.9 796.19,295.8 1202.49,372.4 156.8,29.6 283.4,-204.7 116.5,-276.4 -303.5,-130.2 -630.4,-215.4 -954,-299.6 109.93,-25.5 217.5,-56.1 318.2,-83.4 225.5,-61 631.4,-105.5 741.1,-334.8 25.3,-52.9 3,-102.7 -50.3,-123.7 -220.4,-86.7 -547,118.2 -767.5,180.5 -256.68,72.7 -549.36,99 -792.39,211 -178.09,-50.5 -356.2,-101.1 -534.26,-151.6 -197.13,-55.9 -397.77,-141.9 -604.49,-124.2 -56.07,4.8 -106.3,81.3 -51.79,125.1 157.32,126.2 351.13,167.8 541.1,229.8 188.74,61.7 377.49,123.3 566.23,185 -56.13,94.3 -62.43,215.8 -87.99,336.2 -45.6,214.9 -85.6,430.9 -120.05,647.8 -34.1,214.7 -65.14,430.5 -85.84,646.9 -2.87,29.8 -6.67,59.9 -10.52,89.9 -97.92,23.5 -192.44,77.6 -271.92,140.9 -205.46,163.9 -355.71,395.9 -421.33,650.4 -10.43,40.3 -18.73,82.1 -16.63,123.5 -327.08,12.4 -653.48,38.9 -977.23,77.9 -172.09,20.5 -343.73,45 -514.85,71.4 -1762.77,-697.5 -4555.26,-75.3 -4555.26,-75.3 390.64,44.7 931.59,360.7 1256.63,572.1 -771.53,-93.6 -1566.59,105.2 -1566.59,105.2 521.6,39.1 1247.89,545.4 1656.53,863 -409.63,-1.6 -819.46,23.5 -1227.3,78.2 516.4,364.7 1030.25,732.9 1550.11,1092.1 857.58,592.2 1614.46,1255.2 2325.4,1960.7 1002.78,993.8 1914.25,2071 2886.14,3150.6 1358.75,750.207 523.4477,-523.72 1214.6,919.601 0,0 435.51,-62.578 1038.891,-446.897 1241.498,-367.488 1476.935,-1887.161 2214.64,-2506.607 z"
         style="display:inline;opacity:1;fill:#000000;fill-opacity:1;fill-rule:nonzero;stroke:none"
         id="path10543"
         transform="translate(7.3080513e-5,-6.4284058e-4)"
         sodipodi:nodetypes="ccccccccccccccccsccccssccccccccccccccccccccccccccccsccccsccscccsccccccccc" />
      <path
         d="m 10746.5,5890.8 c 11.7,-48.4 39.9,-91.1 70,-130.8 158.7,-209.6 386.8,-365.6 639.5,-437.5 42.2,-12.1 86.3,-21.4 130.9,-26.8 119,-14.5 240.8,-1.1 336.5,63.2 10.7,7.2 21.1,15 31.1,23.5 65.9,56 108.1,135.1 137.6,216.4 53.1,145.9 125.2,522.9 92.2,799.6 -465.6,-201.2 -949.4,-353.4 -1443.9,-462.2 0.5,-15.1 2.4,-30.2 6.1,-45.4"
         style="display:inline;fill:#f6f5f4;fill-opacity:1;fill-rule:nonzero;stroke:#000000;stroke-opacity:1;stroke-width:84.63915297;stroke-dasharray:none;paint-order:stroke fill markers;stroke-linecap:round;stroke-linejoin:round"
         id="path22"
         transform="translate(7.3080513e-5,-6.4284058e-4)" />
      <path
         d="m 15102.2,12844.1 c -429.6,157.6 -955,80.8 -1275.7,-245.5 -150.2,-152.1 -250.5,-348.2 -316.3,-551.7 -164.7,-508.5 -127.8,-1056.8 -184.6,-1588.1 -145.7,-1355.5 -951.5,-2624.2 -2115.9,-3332.7 -895,-544.2 -1947.17,-754.8 -2975.43,-956.9 -496.92,-97.3 -993.81,-194.6 -1490.73,-292.3 171.12,-26.4 342.76,-50.9 514.85,-71.4 323.75,-39 650.15,-65.5 977.23,-77.9 -2.1,-41.4 6.2,-83.2 16.63,-123.5 65.62,-254.5 215.87,-486.5 421.33,-650.4 79.48,-63.3 174,-117.4 271.92,-140.9 70.05,-16.8 141.82,-18 211.1,4.1 30.74,9.8 59.69,23.8 86.93,40.9 45.77,28.6 86.75,65.7 123.45,105.5 120.77,131.1 382.02,533.2 417.58,816.6 321.64,35.5 640.94,87.1 955.84,156.3 647.737,121.6865 1210.346,382.5323 1608.8,535.9 1573.5,727.4 2899.6,2080.4 3367.1,3749.8 160.6,574.7 179.187,1185.167 263.387,1776.867 -196,382.7 -474.887,697.633 -877.487,845.333"
         style="display:inline;fill:#ffffff;fill-opacity:1;fill-rule:nonzero;stroke:#000000;stroke-width:84.6392;stroke-linecap:round;stroke-linejoin:round;stroke-dasharray:none;stroke-opacity:1;paint-order:stroke fill markers"
         id="path16"
         sodipodi:nodetypes="ccccccccccccscccccccc" />
      <g
         id="g19606"
         inkscape:label="penas do peito"
         transform="matrix(28.21305,0,0,28.21305,-2923.2204,-8142.0375)"
         style="display:inline">
        <path
           style="opacity:1;fill:#cccccc;fill-opacity:1;stroke:none;stroke-width:4.5;stroke-linecap:round;stroke-linejoin:round;stroke-dasharray:none;stroke-opacity:1;paint-order:stroke fill markers"
           id="path19549"
           d="m 650.34184,654.89954 c 0.0465,-1.7763 -0.003,-3.54218 -0.22138,-5.30933 -0.14694,-1.191 -0.39788,-2.36745 -0.55201,-3.55755 -0.16854,-1.30147 -0.41733,-2.60265 -0.41573,-3.91492 10e-4,-1.24268 0.28334,-2.46915 0.425,-3.70365 -0.0279,-0.2637 0.34498,-0.30323 0.37292,-0.0398 v 0 c 0.95842,1.19812 2.10911,2.265 2.87529,3.5943 0.73497,1.27515 1.15983,2.71305 1.57412,4.1253 0.36867,1.25685 0.55202,2.5617 0.76648,3.8538 0.32839,1.97842 0.55462,4.01737 0.40011,6.0249 -0.75898,3.6945 -5.98377,2.62117 -5.2248,-1.07333 z" />
        <path
           style="opacity:1;fill:#cccccc;fill-opacity:1;stroke:none;stroke-width:4.5;stroke-linecap:round;stroke-linejoin:round;stroke-dasharray:none;stroke-opacity:1;paint-order:stroke fill markers"
           id="path19553"
           d="m 634.82075,650.46524 c -1.05537,-3.21758 -2.07501,-6.45015 -3.33472,-9.59625 -0.65097,-1.62585 -1.36424,-3.22598 -2.04636,-4.83893 -0.66915,-1.6848 -1.3383,-3.3696 -2.00746,-5.0544 -0.15715,-1.5264 -0.31431,-3.05287 -0.47147,-4.57935 -0.0661,-0.25672 0.29701,-0.35032 0.36315,-0.0935 v 0 c 1.39061,1.25955 2.78123,2.51917 4.17184,3.77872 1.00576,1.67258 2.09874,3.2958 3.01728,5.01788 2.02611,3.79852 3.65542,7.89165 4.64166,12.08835 0.17456,0.7428 0.24587,1.5066 0.39071,2.25547 0.72268,3.34088 -4.00194,4.3629 -4.72463,1.02203 z" />
        <path
           style="opacity:1;fill:#cccccc;fill-opacity:1;stroke:none;stroke-width:4.5;stroke-linecap:round;stroke-linejoin:round;stroke-dasharray:none;stroke-opacity:1;paint-order:stroke fill markers"
           id="path19555"
           d="m 584.91213,662.04104 c 0.23254,-1.80675 0.54992,-3.63555 0.57297,-5.46143 0.0149,-1.17622 -0.0161,-2.35537 -0.1221,-3.52687 -0.17515,-1.9359 -1.04307,-7.28543 -1.33133,-9.1329 0.62271,-5.59253 1.08201,-3.0603 -0.91499,-7.6662 -0.0456,-0.26123 0.32378,-0.32573 0.3694,-0.0645 v 0 c 2.13359,4.94677 0.6719,2.34135 4.81793,7.55715 0.56138,1.68795 1.25877,3.3366 1.68415,5.06377 0.40015,1.62473 0.62529,3.2925 0.7841,4.95818 0.36753,3.85485 0.0786,6.81727 -1.68269,10.2216 -1.378,2.95387 -5.55544,1.00507 -4.17744,-1.9488 z" />
        <path
           style="opacity:1;fill:#cccccc;fill-opacity:1;stroke:none;stroke-width:4.5;stroke-linecap:round;stroke-linejoin:round;stroke-dasharray:none;stroke-opacity:1;paint-order:stroke fill markers"
           id="path19557"
           d="m 611.63011,642.54096 c -0.29298,-0.8187 -0.8051,-1.5417 -1.10762,-2.35455 -0.3252,-0.87382 -0.53317,-1.78702 -0.81788,-2.67487 -0.39781,-1.24058 -0.78022,-2.48708 -1.22954,-3.70988 -0.52556,-1.43032 -3.05461,-7.59885 -3.60341,-8.94525 -0.13302,-1.49857 -0.26604,-2.99708 -0.39905,-4.49558 -0.0776,-0.25357 0.28097,-0.3633 0.35858,-0.10972 v 0 c 1.55619,1.17637 3.11239,2.35275 4.66858,3.52913 2.92721,4.68615 3.01279,4.344 5.0168,9.3735 0.52949,1.32885 0.99652,2.68462 1.3928,4.05915 0.58549,2.03077 0.98299,3.68872 0.30298,5.6952 -0.25959,3.24015 -4.84183,2.87302 -4.58224,-0.36713 z" />
        <path
           style="opacity:1;fill:#cccccc;fill-opacity:1;stroke:none;stroke-width:4.5;stroke-linecap:round;stroke-linejoin:round;stroke-dasharray:none;stroke-opacity:1;paint-order:stroke fill markers"
           id="path19559"
           d="m 629.73797,611.81556 c -0.18747,-0.28328 -0.3976,-0.55275 -0.5624,-0.84983 -0.27764,-0.5004 -0.50125,-1.02907 -0.76253,-1.53817 -0.46752,-0.9111 -0.95796,-1.81028 -1.42375,-2.7222 -0.66796,-1.3077 -1.29386,-2.63693 -1.97736,-3.9366 -1.27634,-2.427 -3.83758,-6.97815 -5.1706,-9.3654 -0.18515,-1.4898 -0.37029,-2.97968 -0.55542,-4.46955 -0.0886,-0.2499 0.2649,-0.37515 0.35346,-0.12525 v 0 c 1.62752,1.06177 3.25503,2.12355 4.88255,3.18532 3.39096,4.92263 3.12954,4.31423 6.05833,9.46388 1.73848,3.05677 2.24594,3.99832 3.48576,6.9957 0.23008,0.5562 0.45438,1.11705 0.62443,1.69447 0.0966,0.32805 0.11495,0.67425 0.17242,1.01145 0.46402,3.62385 -4.66088,4.28003 -5.12489,0.65618 z" />
        <path
           style="opacity:1;fill:#cccccc;fill-opacity:1;stroke:none;stroke-width:4.5;stroke-linecap:round;stroke-linejoin:round;stroke-dasharray:none;stroke-opacity:1;paint-order:stroke fill markers"
           id="path19561"
           d="m 611.70358,603.63546 c -0.18777,-0.3237 -0.41618,-0.627 -0.56331,-0.9711 -0.27617,-0.64583 -0.47276,-1.32285 -0.7016,-1.98698 -0.34345,-0.9966 -0.64992,-2.00617 -1.01527,-2.99497 -0.47609,-1.28858 -0.98891,-2.56343 -1.50833,-3.83513 -0.61306,-1.5009 -1.36644,-2.94735 -1.88887,-4.48215 -0.53117,-1.56045 -0.84279,-3.18727 -1.26419,-4.78087 -0.087,-0.2505 0.26717,-0.37358 0.35422,-0.12308 v 0 c 1.6106,1.31295 3.42953,2.40548 4.83182,3.939 2.21925,2.42693 3.59813,5.71538 4.74045,8.7423 0.50872,1.34805 1.28783,3.74865 1.48658,5.32755 0.0492,0.3909 -0.0241,0.78758 -0.0361,1.18133 -0.0113,3.13635 -4.44669,3.12037 -4.43541,-0.0157 z" />
        <path
           style="opacity:1;fill:#cccccc;fill-opacity:1;stroke:none;stroke-width:4.5;stroke-linecap:round;stroke-linejoin:round;stroke-dasharray:none;stroke-opacity:1;paint-order:stroke fill markers"
           id="path19563"
           d="m 582.40904,611.11146 c -0.13394,-0.39653 -0.28137,-0.78878 -0.40181,-1.18965 -0.21077,-0.70155 -0.39435,-1.4109 -0.59152,-2.11643 -0.37617,-1.13437 -0.76782,-2.2638 -1.12848,-3.4032 -0.45744,-1.4451 -0.84043,-2.91382 -1.32566,-4.34985 -0.51543,-1.52535 -1.21855,-2.98657 -1.67506,-4.5306 -0.39738,-1.34407 -0.5867,-2.74117 -0.88005,-4.11172 -0.41476,-0.99698 -0.82953,-1.99403 -1.2443,-2.991 -0.093,-0.24833 0.25818,-0.3798 0.35118,-0.13148 v 0 c 0.97844,0.87458 1.95689,1.74908 2.93534,2.62365 1.13705,1.302 2.48749,2.44478 3.41115,3.90593 0.92601,1.46475 1.44972,3.15075 2.07223,4.76805 0.57871,1.50345 1.11479,3.02797 1.52795,4.58512 0.38223,1.4406 0.79925,4.24028 0.87482,5.92875 0.0189,0.42158 -0.0359,0.84323 -0.0539,1.26488 -0.17849,2.73787 -4.05044,2.48542 -3.87195,-0.25245 z" />
        <path
           style="opacity:1;fill:#cccccc;fill-opacity:1;stroke:none;stroke-width:4.5;stroke-linecap:round;stroke-linejoin:round;stroke-dasharray:none;stroke-opacity:1;paint-order:stroke fill markers"
           id="path19567"
           d="m 591.02422,590.02573 c -0.38633,-1.4979 -0.43091,-1.82377 -1.12313,-3.50805 -0.4269,-1.03875 -0.99144,-2.01922 -1.38811,-3.0699 -1.41404,-4.53337 -0.65636,-2.3505 -2.25167,-6.55605 -0.0996,-0.2457 0.24793,-0.38662 0.34754,-0.14085 v 0 c 2.67949,2.04323 4.28683,2.9586 6.28816,5.80598 0.70442,1.00222 1.11456,2.1825 1.62836,3.29452 0.84604,1.83113 0.98626,2.32298 1.57518,3.99578 0.12625,3.5895 -4.95008,3.76807 -5.07633,0.17857 z" />
        <path
           style="opacity:1;fill:#cccccc;fill-opacity:1;stroke:none;stroke-width:4.5;stroke-linecap:round;stroke-linejoin:round;stroke-dasharray:none;stroke-opacity:1;paint-order:stroke fill markers"
           id="path19569"
           d="m 560.03494,583.07728 c -0.95935,-3.04245 -1.44765,-6.20512 -2.30313,-9.27585 -0.39745,-1.42665 -0.81841,-2.8482 -1.30611,-4.24657 -0.53852,-1.54418 -1.1804,-3.05025 -1.7706,-4.57538 -2.17602,-5.49675 -1.3273,-2.8203 -2.64926,-7.99597 -0.0833,-0.2517 0.27268,-0.36953 0.356,-0.11783 v 0 c 4.9133,4.1964 2.71784,1.75613 6.48315,7.41255 0.73461,1.61468 1.55244,3.19403 2.20381,4.8441 0.57511,1.4568 1.02247,2.96183 1.47023,4.46265 0.92178,3.08978 1.79741,6.4404 1.64497,9.69705 -0.14478,2.91968 -4.27384,2.71493 -4.12906,-0.20475 z" />
        <path
           style="opacity:1;fill:#cccccc;fill-opacity:1;stroke:none;stroke-width:4.5;stroke-linecap:round;stroke-linejoin:round;stroke-dasharray:none;stroke-opacity:1;paint-order:stroke fill markers"
           id="path19571"
           d="m 574.74331,576.96793 c -0.0996,-0.39982 -0.21026,-0.79702 -0.2987,-1.1994 -0.1461,-0.66472 -0.25221,-1.338 -0.40473,-2.0013 -0.51716,-2.24895 -1.05783,-4.26405 -1.8043,-6.4644 -0.4,-1.17907 -1.0611,-2.2782 -1.30875,-3.49837 -0.22286,-1.09808 -0.0555,-2.24018 -0.0833,-3.3603 -0.0678,-0.25635 0.29469,-0.35228 0.36252,-0.0959 v 0 c 1.14553,0.95145 2.52211,1.67903 3.43659,2.85428 0.83721,1.07595 1.19025,2.45632 1.68438,3.7269 1.0631,2.7336 2.01207,6.14055 2.2437,9.0981 0.034,0.43395 -0.009,0.8706 -0.0127,1.3059 -0.25841,2.6973 -4.07305,2.3319 -3.81464,-0.36548 z" />
        <path
           style="opacity:1;fill:#cccccc;fill-opacity:1;stroke:none;stroke-width:4.5;stroke-linecap:round;stroke-linejoin:round;stroke-dasharray:none;stroke-opacity:1;paint-order:stroke fill markers"
           id="path19573"
           d="m 600.03806,575.45601 c -1.21717,-1.8309 -1.69891,-4.0086 -2.34614,-6.07635 -0.31312,-1.00035 -0.61802,-2.00378 -0.96433,-2.99318 -0.40419,-1.1547 -0.85769,-2.29147 -1.28654,-3.43725 -3.63454,-8.5788 0.41187,1.31243 -2.49977,-6.82267 -0.31832,-0.88935 -0.73816,-1.7391 -1.10723,-2.60865 -0.10038,-0.2454 0.24672,-0.38738 0.34709,-0.1419 v 0 c 0.91283,0.72457 1.88804,1.37685 2.7385,2.17372 3.28968,3.08243 2.75236,2.8425 4.80129,6.75668 1.65879,3.9507 3.32001,7.93327 4.41527,12.08445 0.75316,2.89785 -3.34499,3.96292 -4.09814,1.06515 z" />
        <path
           style="opacity:1;fill:#cccccc;fill-opacity:1;stroke:none;stroke-width:4.5;stroke-linecap:round;stroke-linejoin:round;stroke-dasharray:none;stroke-opacity:1;paint-order:stroke fill markers"
           id="path19575"
           d="m 573.57525,549.91663 c -1.93337,-2.07802 0.47813,0.4758 -2.58594,-2.56095 -0.80186,-0.79477 -1.54909,-1.64437 -2.36865,-2.42085 -2.15568,-2.04232 -2.75828,-1.90372 -5.11189,-4.61595 -1.0642,-1.2264 -1.87903,-2.6487 -2.81856,-3.97305 -0.25505,-0.0727 -0.15247,-0.4332 0.10259,-0.36067 v 0 c 1.37055,0.0827 2.79119,-0.12825 4.11166,0.2481 3.2396,0.92317 6.54121,4.02442 8.85278,6.09022 2.15954,1.92998 3.63815,3.52898 4.75643,6.16665 1.00868,3.492 -3.92974,4.9185 -4.93842,1.4265 z" />
        <path
           style="opacity:1;fill:#cccccc;fill-opacity:1;stroke:none;stroke-width:4.5;stroke-linecap:round;stroke-linejoin:round;stroke-dasharray:none;stroke-opacity:1;paint-order:stroke fill markers"
           id="path19577"
           d="m 553.85718,542.85884 c -0.21356,-0.2568 -0.44236,-0.5016 -0.64069,-0.77033 -0.29325,-0.39735 -0.54656,-0.82282 -0.83237,-1.22557 -0.64386,-0.9072 -2.05741,-2.80965 -2.72516,-3.60525 -0.81553,-0.97155 -1.70219,-1.88123 -2.54278,-2.83118 -2.5972,-2.62545 -1.11553,-1.77892 -4.31248,-2.75857 -0.26485,0.0127 -0.28317,-0.36158 -0.0183,-0.37455 v 0 c 3.43068,-0.048 1.62609,0 5.41323,-0.17303 1.26375,0.729 2.59753,1.3482 3.79125,2.187 2.45649,1.72605 4.87837,4.93365 5.8388,7.8111 0.10415,0.31208 0.13373,0.64425 0.20059,0.9663 0.54735,2.95013 -3.62474,3.7242 -4.17207,0.77408 z" />
        <path
           style="opacity:1;fill:#cccccc;fill-opacity:1;stroke:none;stroke-width:4.5;stroke-linecap:round;stroke-linejoin:round;stroke-dasharray:none;stroke-opacity:1;paint-order:stroke fill markers"
           id="path19579"
           d="m 536.21479,557.05048 c -0.11195,-0.25417 -0.23322,-0.50445 -0.33585,-0.7626 -0.59988,-1.50862 -0.56684,-1.7154 -1.35206,-3.3642 -0.43114,-0.90532 -0.89132,-1.79752 -1.38217,-2.67187 -0.59257,-1.05563 -1.27266,-2.06048 -1.86653,-3.11535 -0.61921,-1.09988 -1.18096,-2.23118 -1.77144,-3.3468 -0.78241,-0.9492 -1.56483,-1.89848 -2.34724,-2.84775 -0.24365,-0.10463 -0.0957,-0.44918 0.14796,-0.34455 v 0 c 1.28347,0.81817 2.56695,1.63635 3.85041,2.45452 1.2228,0.96323 2.56913,1.78763 3.66837,2.88975 0.97389,0.9765 1.74451,2.14275 2.50095,3.29595 1.39104,2.12055 2.52261,4.56675 2.79234,7.11915 0.0357,0.3378 -0.018,0.67905 -0.027,1.01858 -0.22971,2.742 -4.10746,2.41717 -3.87776,-0.32483 z" />
        <path
           style="opacity:1;fill:#cccccc;fill-opacity:1;stroke:none;stroke-width:4.5;stroke-linecap:round;stroke-linejoin:round;stroke-dasharray:none;stroke-opacity:1;paint-order:stroke fill markers"
           id="path19581"
           d="m 541.35049,542.52778 c -2.04616,-1.57005 -3.76259,-3.50527 -5.62974,-5.27227 -1.03221,-0.9768 -2.15736,-1.85948 -3.12447,-2.90078 -0.98712,-1.0629 -1.81498,-2.2632 -2.72247,-3.3948 -0.72084,-0.92317 -1.44167,-1.84642 -2.1625,-2.7696 -0.24737,-0.0955 -0.11228,-0.44535 0.13508,-0.3498 v 0 c 0.94898,0.37635 1.89795,0.75278 2.84693,1.12913 1.16828,0.57802 2.41333,1.02157 3.50484,1.73407 1.19401,0.77933 2.2269,1.78223 3.30751,2.71253 1.29336,1.11337 2.55503,2.26327 3.81269,3.41685 1.29189,1.185 2.54976,2.39917 3.57492,3.82785 1.32002,2.50515 -2.22276,4.37197 -3.54279,1.86682 z" />
        <path
           style="opacity:1;fill:#cccccc;fill-opacity:1;stroke:none;stroke-width:4.5;stroke-linecap:round;stroke-linejoin:round;stroke-dasharray:none;stroke-opacity:1;paint-order:stroke fill markers"
           id="path19585"
           d="m 497.89831,528.58521 c 0.21432,-0.2973 0.37562,-0.64125 0.64295,-0.89198 1.53199,-1.437 3.92983,-1.74967 5.91275,-1.2324 1.04528,0.2727 2.03743,0.75233 2.9689,1.29945 1.05145,0.61755 1.96195,1.4487 2.94292,2.17305 1.80999,2.04893 3.90738,4.16693 5.12631,6.663 0.37329,0.7644 0.34975,1.665 0.52462,2.49743 0.09,0.24945 -0.2627,0.3768 -0.35272,0.12735 v 0 c -2.3639,-1.56443 -4.72349,-3.13223 -6.87655,-4.98758 -1.79953,-1.35645 -2.2961,-1.89015 -4.20116,-2.81482 -0.43564,-0.21143 -0.88698,-0.40748 -1.36022,-0.51008 -0.77065,-0.16717 -1.4047,0.20468 -2.15165,0.141 -1.74263,2.24588 -4.91877,-0.21855 -3.17615,-2.46442 z" />
        <path
           style="opacity:1;fill:#cccccc;fill-opacity:1;stroke:none;stroke-width:4.5;stroke-linecap:round;stroke-linejoin:round;stroke-dasharray:none;stroke-opacity:1;paint-order:stroke fill markers"
           id="path19587"
           d="m 517.04058,514.05493 c 0.26322,0.03 0.53507,0.0172 0.78965,0.0904 0.78053,0.22485 2.85476,1.1823 3.40282,1.45057 0.51468,0.25193 4.81576,2.49908 5.18552,2.71995 0.89228,0.5328 1.72938,1.15305 2.59407,1.72958 2.08845,3.63322 0.94728,2.16787 3.17719,4.57725 0.11279,0.23992 -0.2266,0.39945 -0.33938,0.15945 v 0 c -1.77981,-1.96988 -0.62168,-1.32608 -3.67161,-1.52333 -1.76424,-0.83002 -3.37122,-1.61505 -5.18203,-2.34765 -0.81452,-0.32955 -1.64798,-0.6102 -2.47198,-0.9153 -0.65803,-0.25732 -1.31959,-0.5058 -1.97407,-0.77205 -0.42726,-0.17377 -0.86236,-0.33337 -1.27071,-0.54787 -0.18704,-0.0983 -0.33597,-0.25628 -0.50397,-0.38445 -2.9957,-0.18698 -2.7312,-4.42358 0.2645,-4.23653 z" />
      </g>
      <path
         d="m 11586.9,5295.7 c 23.1,-67.1 53.1,-133.8 78.8,-201.9 75.3,-199.8 160.5,-395.9 250.1,-589.7 89.9,-194.6 185.6,-386.4 287,-575.2 56.3,-104.6 104.8,-223.9 177.8,-318.4 -248.1,-54.8 -496.1,-110.6 -743.8,-168 -123.7,-28.7 -68.5,-204.8 51.4,-186.4 296.5,45.3 592.5,92.9 888.4,141.6 239.5,-110.3 515,-121.3 770.6,-180.2 231.5,-53.4 526.4,-210.1 759.5,-147.1 72.5,19.6 82,101.6 40.5,153.8 -156.2,196.4 -536.6,225.6 -770.4,270.4 -33.4,6.3 -67,13 -101,19.6 75.9,12.5 151.8,24.6 227.8,36.3 203,31 416.2,38.7 602.1,128.6 139.8,67.6 57.8,260.9 -73.2,270.2 -188.5,13.4 -379.1,-55.6 -561.8,-98.5 -203.3,-47.8 -407.4,-91.3 -611.5,-135.6 -58.5,-12.7 -117,-25.4 -175.5,-38.2 -27.6,133.4 -116.7,250.5 -181.3,373.8 -99.5,190.1 -193.2,383.3 -281,579 -94.4,210.3 -180.7,424.5 -264.8,639.1 -12.1,30.9 -22.8,61 -33.2,90 -95.7,-64.3 -217.5,-77.7 -336.5,-63.2"
         style="fill:#281411;fill-opacity:1;fill-rule:nonzero;stroke:none"
         id="path18" />
      <path
         d="m 8945.5,4812.8 c 3.85,-30 7.65,-60.1 10.52,-89.9 20.7,-216.4 51.74,-432.2 85.84,-646.9 34.45,-216.9 74.45,-432.9 120.05,-647.8 25.56,-120.4 31.86,-241.9 87.99,-336.2 -188.74,-61.7 -377.49,-123.3 -566.23,-185 -189.97,-62 -383.78,-103.6 -541.1,-229.8 -54.51,-43.8 -4.28,-120.3 51.79,-125.1 206.72,-17.7 407.36,68.3 604.49,124.2 178.06,50.5 356.17,101.1 534.26,151.6 243.03,-112 535.71,-138.3 792.39,-211 220.5,-62.3 547.1,-267.2 767.5,-180.5 53.3,21 75.6,70.8 50.3,123.7 -109.7,229.3 -515.6,273.8 -741.1,334.8 -100.7,27.3 -208.27,57.9 -318.2,83.4 323.6,84.2 650.5,169.4 954,299.6 166.9,71.7 40.3,306 -116.5,276.4 -406.3,-76.6 -807.92,-235.5 -1202.49,-372.4 -1.38,90 -36.41,181.6 -57.36,280.3 -45.65,214.9 -85.61,431 -120,647.9 -37.23,234.7 -65.82,470.5 -93.79,706.4 -1.65,14 -3.07,27.7 -4.33,41.3 -27.24,-17.1 -56.19,-31.1 -86.93,-40.9 -69.28,-22.1 -141.05,-20.9 -211.1,-4.1"
         style="display:inline;fill:#281411;fill-opacity:1;fill-rule:nonzero;stroke:none"
         id="path20" />
      <path
         d="m 14497.7,16639.4 c -253.3,0 -458.6,-205.3 -458.6,-458.6 0,-253.2 237.047,-58.164 490.347,-58.164 253.2,0 426.853,-195.036 426.853,58.164 0,253.3 -205.4,458.6 -458.6,458.6"
         style="display:inline;fill:#131416;fill-opacity:1;fill-rule:nonzero;stroke:none"
         id="path26"
         sodipodi:nodetypes="csssc" />
      <path
         style="display:inline;opacity:1;fill:#ed333b;fill-opacity:1;stroke:none;stroke-width:126.959;stroke-linecap:round;stroke-linejoin:round;stroke-dasharray:none;stroke-opacity:1;paint-order:stroke fill markers"
         d="m 13791.263,12720.152 c -300.987,-263.027 -509.703,-815.104 -382.359,-1136.568 421.991,-834.833 1190.031,-1257.441 1871.143,-1043.01 539.816,169.948 780.674,1322.729 741.959,1527.105 -90.764,378.5 -535.365,776.272 -955.043,897.973 -415.902,120.606 -949.627,39.45 -1275.7,-245.5 z"
         id="path17001"
         sodipodi:nodetypes="acacaa"
         inkscape:label="peito"
         transform="translate(7.3080513e-5,-6.4284058e-4)" />
      <path
         d="m 13559.3,15798.7 c -201.6,0 -365.1,-130.6 -365.1,-291.6 0,-161.1 163.5,-291.7 365.1,-291.7 201.7,0 365.2,130.6 365.2,291.7 0,161 -163.5,291.6 -365.2,291.6"
         style="display:inline;fill:#db1111;fill-opacity:1;fill-rule:nonzero;stroke:none"
         id="path28" />
      <g
         id="g12782"
         inkscape:label="asa"
         transform="translate(-634.79369,-84.639154)">
        <path
           d="m 11922.9,13727.8 c -214.5,473.9 -681,855.6 -1205.8,875 -150.5,5.7 -294.9,-16.4 -433.3,-59.7 -471.67,-147.4 -874,-540.8 -1214.6,-919.6 C 8097.31,12543.9 7185.84,11466.7 6183.06,10472.9 5472.12,9767.4 4715.24,9104.4 3857.66,8512.2 3337.8,8153 2823.95,7784.8 2307.55,7420.1 c 407.84,-54.7 817.67,-79.8 1227.3,-78.2 1735.57,6.9 3467.34,495.6 5026.97,1264.1 772.27,380.7 1516.18,833.7 2135.28,1427.9 360.2,345.2 677.5,741.3 918.5,1175.9 173.6,311.8 308.3,643.6 391.6,990.3 121.8,504.9 129.8,1053.2 -84.3,1527.7"
           style="display:inline;fill:#000000;fill-opacity:1;fill-rule:nonzero;stroke:none;stroke-width:126.959;stroke-linecap:round;stroke-linejoin:round;stroke-dasharray:none;stroke-opacity:1;paint-order:stroke fill markers"
           id="path24" />
        <path
           d="m 8561.82,8648.3196 c 772.27,380.7 1516.18,791.3804 2135.28,1385.5804 360.2,345.2 677.5,741.3 918.5,1175.9 -367.2,-159.7 -741.4,-387.2 -910,-447 -721.42,-256.5 -1478.75,-411.6 -2242.59,-461.5 -762.83,-49.4 -1533.59,6 -2279.95,171.6 C 5472.12,9767.4 4715.24,9104.4 3857.66,8512.2 3337.8,8153 2823.95,7784.8 2307.55,7420.1 c 407.84,-54.7 817.67,-79.8 1227.3,-78.2 1735.57,6.9 3467.34,537.9196 5026.97,1306.4196"
           style="display:inline;fill:#000000;fill-opacity:1;fill-rule:nonzero;stroke:none;stroke-width:126.959;stroke-linejoin:round;stroke-dasharray:none;stroke-opacity:1;paint-order:stroke fill markers"
           id="path30"
           sodipodi:nodetypes="cccccccccc" />
        <path
           d="M 3923.7078,7428.8091 C 5659.2778,7435.7091 7002.19,7837.5 8561.82,8606 c 772.27,380.7 1516.18,833.7 2135.28,1427.9 360.2,345.2 677.5,741.3 918.5,1175.9 173.6,311.8 308.3,643.6 391.6,990.3"
           style="display:inline;fill:none;fill-opacity:1;fill-rule:nonzero;stroke:#ffffff;stroke-width:126.959;stroke-linecap:round;stroke-linejoin:round;stroke-dasharray:none;stroke-opacity:1;paint-order:stroke fill markers"
           id="path14964"
           sodipodi:nodetypes="ccccc" />
      </g>
      <g
         id="g16046"
         inkscape:label="penas das asas">
        <path
           d="m 12447.6,10949.6 c -71.8,-273.5 -139.4,-549.4 -201.8,-824.7 -10.3,-45.6 51.5,-93.1 86,-50.1 193.9,242 302,537.6 311.8,848.3 3.5,112.7 -167.5,135.1 -196,26.5"
           style="fill:#ffffff;fill-opacity:1;fill-rule:nonzero;stroke:none"
           id="path34" />
        <path
           d="m 11951.4,9155.4 c -125.1,-232.5 -274,-449.8 -401.9,-679.9 -18.1,-32.6 18.4,-70 51.2,-51.2 251,143.2 412.9,399.3 493.1,671 24.8,83.9 -100.2,138.6 -142.4,60.1"
           style="fill:#ffffff;fill-opacity:1;fill-rule:nonzero;stroke:none"
           id="path36" />
        <path
           d="m 10806.5,9154.2 c -67.1,-102.7 -152.7,-204.5 -177,-326.9 -13.7,-68.9 61.7,-111.7 114.7,-66.7 95.1,80.6 142.5,204.9 199.6,313.3 47.9,90.9 -81.2,165.9 -137.3,80.3"
           style="fill:#ffffff;fill-opacity:1;fill-rule:nonzero;stroke:none"
           id="path38" />
        <path
           d="M 10352.4,8157.5 C 9896.29,7934.2 9428.32,7658 9051.66,7314.7 c -41.86,-38.2 1.85,-121.1 57.64,-99.1 480.78,189.6 939.1,492.1 1347,807.2 81.2,62.8 -22.1,174.8 -103.9,134.7"
           style="fill:#ffffff;fill-opacity:1;fill-rule:nonzero;stroke:none"
           id="path40" />
        <path
           d="M 8439.14,7934.2 C 8076.6,7732.1 7697.02,7569.8 7319.82,7399 c -58.07,-26.3 -30.35,-128.5 33.03,-122 439.85,44.6 832.21,223.7 1183.88,490.2 96.51,73.1 14.31,229.3 -97.59,167"
           style="fill:#ffffff;fill-opacity:1;fill-rule:nonzero;stroke:none"
           id="path42" />
        <path
           d="m 8979.5406,13283.617 c 349.2,241.8 723.6,469 1125.6004,610.6 106.8,37.6 62.6,207 -47.2,171.4 -442.9004,-143.6 -827.8004,-354.3 -1138.9004,-703.6 -35.6,-39.9 11.3,-112.4 60.5,-78.4"
           style="fill:#ffffff;fill-opacity:1;fill-rule:nonzero;stroke:none"
           id="path44" />
        <path
           d="m 10642.308,12071.37 c -224.8,-219.6 -471.1,-413.2 -626.4,-690.4 -23.2,-41.4 23.9,-91.5 66.1,-66.1 272.2,163.7 458,415.1 670.5,646.3 67.7,73.7 -38.1,180.7 -110.2,110.2"
           style="fill:#ffffff;fill-opacity:1;fill-rule:nonzero;stroke:none"
           id="path46" />
        <path
           d="m 8343.383,12563.768 c -204.4,-258.6 -377.8,-580.1 -344.4,-919.8 3.6,-36.1 60.2,-64.2 78.5,-21.3 123.2,289.7 208.6,584.4 383.4,850.4 45.9,69.9 -64.4,158 -117.5,90.7"
           style="fill:#ffffff;fill-opacity:1;fill-rule:nonzero;stroke:none"
           id="path48" />
        <path
           d="m 9233.249,10915.804 c -68.3,-205.8 -182.9,-441.3 -189.1,-660.1 -2,-70.7 92.5,-89.7 127.8,-34.6 117.6,183.4 155.3,444.8 214.6,652.5 28.3,99 -121.3,138.8 -153.3,42.2"
           style="fill:#ffffff;fill-opacity:1;fill-rule:nonzero;stroke:none"
           id="path50" />
        <path
           d="m 9497.2939,12692.503 c -323.5,-300.3 -503.2,-741.5 -455.1,-1183.6 4.3,-39.1 57.4,-50.1 70.5,-9.5 126.2,391.9 289.7,746.8 519.3,1089.2 56,83.4 -65.6,168 -134.7,103.9"
           style="fill:#ffffff;fill-opacity:1;fill-rule:nonzero;stroke:none"
           id="path52" />
        <path
           d="m 6905.0269,11155.032 c -90.9,-157.7 -182.3,-305.6 -216.2,-486.4 -11.7,-62 65.1,-121.9 114.7,-66.7 128,142.5 191.3,309.9 264,484.6 39.2,94.4 -113.3,153.6 -162.5,68.5"
           style="fill:#ffffff;fill-opacity:1;fill-rule:nonzero;stroke:none"
           id="path54" />
        <path
           d="m 11205.767,13399.805 c 71.1,94.4 -81.8,206.8 -161.6,124.7 -61.2,-62.7 -121.7,-125 -178.1,-192.1 -54,-64.1 -111,-132.7 -127.2,-217.3 -9.8,-51.4 34,-112.7 92.1,-92.1 165.6,59 273.5,242.7 374.8,376.8"
           style="fill:#ffffff;fill-opacity:1;fill-rule:nonzero;stroke:none"
           id="path56" />
        <path
           d="m 7514.27,6880.8 c -236.16,-144.2 -491.64,-230.4 -762.73,-279.6 -246.92,-44.8 -499.83,-10.6 -742.36,-57.2 -58.57,-11.4 -68.85,-101.7 -16.76,-128.3 502.61,-256.6 1180.95,85.3 1559.66,416.1 26.79,23.4 -7.85,67.3 -37.81,49"
           style="fill:#ffffff;fill-opacity:1;fill-rule:nonzero;stroke:none"
           id="path58" />
        <path
           d="m 4962.41,6823.7 c 313.37,4.6 641.07,127.8 941,210.3 103.28,28.5 59.58,180.9 -43.96,159.4 -304.94,-63.2 -650.52,-103.4 -931.64,-241.9 -62.21,-30.7 -30.89,-128.8 34.6,-127.8"
           style="fill:#ffffff;fill-opacity:1;fill-rule:nonzero;stroke:none"
           id="path60" />
        <path
           d="m 8219.8003,10521.303 c 71.1,94.4 -81.8,206.8 -161.6,124.7 -61.2,-62.7 -121.7,-125 -178.1,-192.1 -54,-64.1 -111,-132.7 -127.2,-217.3 -9.8,-51.4 34,-112.7 92.1,-92.1 165.6,59 273.5,242.7 374.8,376.8"
           style="fill:#ffffff;fill-opacity:1;fill-rule:nonzero;stroke:none"
           id="path16049" />
        <path
           d="m 6966.9377,9980.3422 c -286.9833,-162.1546 -569.0417,-394.2598 -666.5218,-721.3826 -10.3124,-34.7825 31.467,-82.1918 64.625,-49.3917 223.5627,221.6394 414.0198,462.1958 676.396,642.3894 68.9162,47.3649 0.1,170.6207 -74.4992,128.3849"
           style="fill:#ffffff;fill-opacity:1;fill-rule:nonzero;stroke:none"
           id="path16051" />
        <path
           d="m 7767.6694,9534.1774 c -68.3,-205.8 -182.9,-441.3 -189.1,-660.1 -2,-70.7 92.5,-89.7 127.8,-34.6 117.6,183.4 155.3,444.8 214.6,652.5 28.3,99 -121.3,138.8 -153.3,42.2"
           style="fill:#ffffff;fill-opacity:1;fill-rule:nonzero;stroke:none"
           id="path16053" />
        <path
           d="m 5661.7227,9855.9374 c -204.4,-258.6 -377.8,-580.1 -344.4,-919.8 3.6,-36.1 60.2,-64.2 78.5,-21.3 123.2,289.7 208.6,584.4 383.4,850.4 45.9,69.9 -64.4,158 -117.5,90.7"
           style="fill:#ffffff;fill-opacity:1;fill-rule:nonzero;stroke:none"
           id="path16055" />
        <path
           d="m 4720.6229,8410.321 c 92.7191,94.4 -106.6725,206.8 -210.737,124.7 -79.8088,-62.7 -158.7047,-125 -232.254,-192.1 -70.4196,-64.1 -144.7513,-132.7 -165.8772,-217.3 -12.7798,-51.4 44.3383,-112.7 120.1045,-92.1 215.9532,59 356.6619,242.7 488.7637,376.8"
           style="fill:#ffffff;fill-opacity:1;fill-rule:nonzero;stroke:none;stroke-width:1.14196"
           id="path16057" />
        <path
           d="m 6152.2798,8528.7174 c -283.3677,-135.8749 -578.7578,-240.2266 -814.7776,-452.9532 -35.2552,-31.769 -6.7173,-94.331 41.4007,-83.8117 310.329,67.7232 566.9598,246.2288 842.399,397.0365 87.7652,48.0857 21.884,183.3717 -69.0221,139.7284"
           style="fill:#ffffff;fill-opacity:1;fill-rule:nonzero;stroke:none"
           id="path16061" />
        <path
           d="m 3287.9264,7995.4156 c -196.8288,-90.9777 -446.9948,-168.5044 -610.8212,-313.6692 -52.9342,-46.909 -2.1422,-128.8323 62.1954,-116.8834 214.2186,39.6956 430.6658,191.0292 622.7233,289.8711 91.5676,47.0874 18.2511,183.4284 -74.0975,140.6815"
           style="fill:#ffffff;fill-opacity:1;fill-rule:nonzero;stroke:none"
           id="path16079" />
      </g>
      <path
         d="m 18852.4,17179.3 c -41.3,29.6 -95.7,31.1 -146.4,31.3 -634,1.6 -1268.1,-48 -1894.2,-147.9 -98.6,-15.8 -196.5,-27.7 -290.6,-41.1 -398.4,-57 -728.8,-141.3 -753.7,-658 -14.6,-302.7 -3.2,-618.5 134.4,-888.5 137.6,-270 432,-480.5 731.4,-434 110.4,17.2 210.5,66 304.4,127.7 72.9,48 142,103.8 209.2,158.7 574.8,469.6 1152.2,941.9 1644.3,1497.5 90.1,101.7 171.6,274.9 61.2,354.3"
         style="display:inline;fill:#131416;fill-opacity:1;fill-rule:nonzero;stroke:none"
         id="path32"
         transform="translate(7.3080513e-5,-6.4284058e-4)"
         inkscape:label="bico" />
    </g>
    <g
       id="g27559"
       inkscape:label="casa"
       transform="matrix(0.1,0,0,0.1,441.39498,123.76005)"
       style="display:inline"
       sodipodi:insensitive="true">
      <path
         d="m 15577.5,11535.2 h 673.8 l -1978.7,4043.8 -6825.79,42.1 -2396.08,-3869.7 h 780.24 c -19.5334,-3065.3923 0,-4901.1 0,-4901.1 H 5050.73 V 6011.5 H 9414.2 V 2514.398 h 2243.5 V 6011.5 h 4453.9 v 838.8 h -534.1 v 4684.9"
         style="fill:#f6f5f4;fill-opacity:1;fill-rule:nonzero;stroke:none"
         id="path14-3"
         sodipodi:nodetypes="ccccccccccccccccc" />
      <path
         d="m 14272.6,15579 c -3999.681,92.076 -4821.5035,-637.155 -6825.79,42.1 L 5050.73,11751.4 h 780.24 v -1530.6 c -44.1428,-2044.5961 -0.027,-2710.2735 0,-3370.5 h 209.13 c 98.1975,-0.073 244.4677,-0.1049 342.17,0 h 9195.23 v 4684.9 h 673.8 L 14272.6,15579"
         style="fill:#f6f5f4;fill-opacity:1;fill-rule:nonzero;stroke:none"
         id="path16-6"
         sodipodi:nodetypes="cccccccccccc" />
      <path
         d="m 14272.6,15579 c -2387.522,26.812 -4440.2242,27.439 -6825.79,42.1 L 5050.73,11751.4 h 780.24 v 135.6 l 1884.35,3269.9 2094.89,-3621.7 H 16251.3 L 14272.6,15579"
         style="display:inline;fill:#f6f5f4;fill-opacity:1;fill-rule:nonzero;stroke:none"
         id="path18-7"
         sodipodi:nodetypes="ccccccccc" />
      <path
         d="M 10005.9,11535.2 V 6850.3 h 5571.6 v 4684.9 h -5571.6"
         style="display:inline;opacity:1;fill:#dedddc;fill-opacity:1;fill-rule:nonzero;stroke:none"
         id="path22-5" />
      <path
         d="M 9414.2,6011.5 V 4486.9 c 626.3,-182.9 1692.2,-494.2 2243.5,-655.8 V 6011.5 H 9414.2"
         style="fill:#b8b8b7;fill-opacity:1;fill-rule:nonzero;stroke:none"
         id="path26-3" />
      <path
         d="m 10005.9,10979.1 v 0 h -990.1 c 7.81,-56.5 12.08,-114.1 12.59,-172.5 h 6549.11 v 172.5 h -5571.6"
         style="opacity:1;fill:#cccccc;fill-opacity:1;fill-rule:nonzero;stroke:none"
         id="path28-5" />
      <path
         d="m 8881.21,10186 c -31.11,-60.3 -66.71,-118 -106.35,-172.5 h 1231.04 v -0.1 h 5571.6 V 10186 H 8881.21"
         style="opacity:1;fill:#cccccc;fill-opacity:1;fill-rule:nonzero;stroke:none"
         id="path30-6" />
      <path
         d="M 10005.9,9372.4 H 7066.05 c 3.27,-57.1 5.22,-114.8 5.63,-172.7 h 2934.22 v 0 h 5571.6 v 172.6 h -5571.6 v 0.1"
         style="fill:#f8a372;fill-opacity:1;fill-rule:nonzero;stroke:none"
         id="path32-2" />
      <rect
         style="display:inline;fill:#ffffff;stroke-width:24.82;stroke-linecap:round;stroke-linejoin:bevel"
         id="rect1228"
         width="4204.5371"
         height="172.76302"
         x="5801.3633"
         y="-7744.9004"
         transform="scale(1,-1)"
         inkscape:label="path34" />
      <path
         d="M 10005.9,8574.6 H 7003.1 c -14.76,-58.4 -32.21,-116 -52.63,-172.5 h 8627.03 v 172.6 h -5571.6 v -0.1"
         style="fill:#f8a372;fill-opacity:1;fill-rule:nonzero;stroke:none"
         id="path36-9" />
      <path
         d="m 7715.32,15156.9 -268.51,464.2 -2396.08,-3869.7 h 780.24 v 135.6 l 1884.35,3269.9"
         style="display:inline;fill:#cccccc;fill-opacity:1;fill-rule:nonzero;stroke:none"
         id="path38-1" />
      <path
         d="m 10005.9,10013.4 h 5571.6 v 172.6 h -5571.6 v -172.6"
         style="fill:#cccccc;fill-opacity:1;fill-rule:nonzero;stroke:none"
         id="path40-2" />
      <path
         d="m 10005.9,10806.6 h 5571.6 v 172.5 h -5571.6 v -172.5"
         style="fill:#cccccc;fill-opacity:1;fill-rule:nonzero;stroke:none"
         id="path42-7" />
      <path
         d="m 10005.9,9199.7 h 5571.6 v 172.6 h -5571.6 v -172.6"
         style="fill:#cccccc;fill-opacity:1;fill-rule:nonzero;stroke:none"
         id="path44-0" />
      <path
         d="m 10005.9,8402.1 h 5571.6 v 172.6 h -5571.6 v -172.6"
         style="fill:#cccccc;fill-opacity:1;fill-rule:nonzero;stroke:none"
         id="path46-9" />
      <rect
         style="display:inline;opacity:1;fill:#cccccc;fill-opacity:1;stroke-width:24.82;stroke-linecap:round;stroke-linejoin:bevel"
         id="rect1228-3"
         width="4204.5371"
         height="172.76302"
         x="5811.6987"
         y="-8576.2842"
         transform="scale(1,-1)"
         inkscape:label="retangulo" />
      <rect
         style="display:inline;opacity:1;fill:#cccccc;fill-opacity:1;stroke-width:24.82;stroke-linecap:round;stroke-linejoin:bevel"
         id="rect1228-3-6"
         width="4204.5371"
         height="172.76302"
         x="5811.6987"
         y="-9372.4316"
         transform="scale(1,-1)"
         inkscape:label="retangulo" />
      <path
         d="m 10005.9,7572.3 h 5571.6 v 172.6 h -5571.6 v -172.6"
         style="fill:#cccccc;fill-opacity:1;fill-rule:nonzero;stroke:none"
         id="path48-3" />
      <g
         id="g8266">
        <ellipse
           style="fill:#cccccc;fill-opacity:1;stroke-width:17.9458;stroke-linecap:round;stroke-linejoin:bevel"
           id="path1170"
           transform="scale(1,-1)"
           cx="7722.6519"
           cy="-10800.018"
           inkscape:label="cicle"
           rx="1355.142"
           ry="1325.3643" />
        <path
           id="path26732"
           style="fill:#1f1a1a;fill-opacity:1;stroke-width:17.1477;stroke-linecap:round;stroke-linejoin:bevel"
           inkscape:label="cicle"
           transform="scale(1,-1)"
           d="M 9077.7772,-10806.6 A 1243.451,1318.7817 0 0 1 7834.3262,-9487.8179 1243.451,1318.7817 0 0 1 6590.8751,-10806.6 1243.451,1318.7817 0 0 1 7834.3262,-12125.381 1243.451,1318.7817 0 0 1 9077.7772,-10806.6 Z" />
      </g>
      <path
         d="m 10005.9,6850.3 v -838.8 h 6105.7 v 838.8 h -6105.7"
         style="display:inline;opacity:1;fill:#cccccc;fill-opacity:1;fill-rule:nonzero;stroke:none"
         id="path56-6" />
      <path
         d="m 10158.4,14647.9 c 345.7,-477.1 1048.8,-482.3 1411.4,-14 392.2,-431.4 1071.7,-398.6 1408.3,85 160.1,-185.5 397.3,-293.1 649.8,-247.7 247.3,44.4 514.2,246.3 535.6,510.4 5.5,67.9 -84.6,77.4 -117.2,31.7 -114.4,-160.9 -186.9,-310.1 -399.1,-366 -243.5,-64.2 -476.3,60.3 -603,266.2 -32.2,52.3 -115,57.4 -146,0 -267.7,-497.1 -931.9,-544.3 -1253.4,-71.8 -39,57.2 -125.9,64.8 -163.3,0 -294.1,-510.3 -981.6,-476.4 -1242.8,42.5 -30.2,60 -135.6,64.5 -164.4,0 -239.22,-535.8 -880.12,-513.6 -1178.8,-48.5 -44.41,69.2 -175.72,25.1 -140.64,-59.3 254.49,-612.2 1054.1,-622.6 1403.54,-128.5"
         style="fill:#cccccc;fill-opacity:1;fill-rule:nonzero;stroke:none"
         id="path58-0" />
      <path
         d="m 13181.3,13626.7 c -38.2,41.9 -97.5,23.1 -126.6,-16.3 -308.4,-416.9 -872.8,-464.9 -1254.8,-116.2 -35,31.9 -86,32.8 -121,0 -372.7,-349.7 -907.7,-326.6 -1258.8,40.4 -30.2,31.6 -88.3,32.9 -118.3,0 -292.3,-320.2 -711.84,-244 -949.81,91 -52.52,74 -160.61,11.3 -121.58,-71 213.24,-450.2 781.79,-498.8 1129.49,-196.6 393.3,-366.7 966.6,-377.1 1380.6,-37 436.8,-344.4 1029.1,-287.5 1391.2,129.5 399.8,-346.4 1125.5,-318.7 1334.9,239.8 21.3,56.9 -64.5,106.9 -103.4,60.2 -137.2,-164.5 -259.8,-310.3 -479.4,-362.7 -268.1,-63.8 -521.9,41.5 -702.5,238.9"
         style="fill:#cccccc;fill-opacity:1;fill-rule:nonzero;stroke:none"
         id="path60-6" />
      <path
         d="m 13848.8,12574.1 c -30.1,27.2 -77.6,30.8 -107.4,0 -370,-382.1 -993.7,-433.9 -1417.3,-106.1 -26.9,20.9 -67.7,35.6 -99.3,12.9 -376.7,-270.1 -884.3,-269.1 -1253.3,17.5 -35.6,27.7 -73.1,29 -108.9,0 -293.3,-237.7 -663.5,-160.5 -931.96,68 -47.09,40.1 -131.32,-12.2 -91.62,-70.7 241.38,-355.9 743.98,-374.1 1077.18,-147.4 399.1,-289.8 932.8,-309.6 1348.8,-38.1 469.8,-326.4 1115.5,-285.1 1534.8,108 389.4,-295.1 1034.5,-266.4 1260.7,228.2 26.6,57.9 -46.5,129.9 -95.5,73.7 -304,-348.3 -733.2,-490.8 -1116.2,-146"
         style="fill:#cccccc;fill-opacity:1;fill-rule:nonzero;stroke:none"
         id="path62" />
      <rect
         style="display:inline;fill:#ffffff;stroke-width:24.82;stroke-linecap:round;stroke-linejoin:bevel"
         id="rect1231"
         width="4204.5371"
         height="172.76302"
         x="5801.3633"
         y="-7744.9004"
         transform="scale(1,-1)"
         inkscape:label="path34" />
      <rect
         style="display:inline;fill:#ffffff;stroke-width:24.82;stroke-linecap:round;stroke-linejoin:bevel"
         id="rect1233"
         width="4204.5371"
         height="172.76302"
         x="5801.3633"
         y="-7744.9004"
         transform="scale(1,-1)"
         inkscape:label="path34" />
      <rect
         style="display:inline;opacity:1;fill:#cccccc;fill-opacity:1;stroke-width:24.82;stroke-linecap:round;stroke-linejoin:bevel"
         id="rect1235"
         width="4204.5371"
         height="172.76302"
         x="5801.3633"
         y="-7744.9004"
         transform="scale(1,-1)"
         inkscape:label="path34" />
    </g>
  </g>
</svg>
