<?xml version="1.0" encoding="UTF-8" standalone="no"?>
<!-- Created with Inkscape (http://www.inkscape.org/) -->

<svg
   version="1.1"
   id="svg2"
   width="1493.4092"
   height="2406.103"
   viewBox="0 0 1493.4092 2406.1031"
   sodipodi:docname="3770ab50-32f3-40df-bcde-45d252bf2c91.svg"
   inkscape:version="1.2.2 (b0a8486541, 2022-12-01)"
   xmlns:inkscape="http://www.inkscape.org/namespaces/inkscape"
   xmlns:sodipodi="http://sodipodi.sourceforge.net/DTD/sodipodi-0.dtd"
   xmlns="http://www.w3.org/2000/svg"
   xmlns:svg="http://www.w3.org/2000/svg">
  <defs
     id="defs6" />
  <sodipodi:namedview
     id="namedview4"
     pagecolor="#ffffff"
     bordercolor="#000000"
     borderopacity="0.25"
     inkscape:showpageshadow="2"
     inkscape:pageopacity="0.0"
     inkscape:pagecheckerboard="0"
     inkscape:deskcolor="#d1d1d1"
     showgrid="false"
     inkscape:zoom="0.30153512"
     inkscape:cx="434.44359"
     inkscape:cy="537.25085"
     inkscape:window-width="1920"
     inkscape:window-height="1011"
     inkscape:window-x="0"
     inkscape:window-y="32"
     inkscape:window-maximized="1"
     inkscape:current-layer="g10"
     showguides="true" />
  <g
     id="g10"
     inkscape:groupmode="layer"
     inkscape:label="Page 1"
     transform="matrix(1.3333333,0,0,-1.3333333,-673.43065,2741.3561)">
    <g
       id="g12"
       transform="scale(0.1)"
       inkscape:label="object">
      <g
         id="g27559"
         inkscape:label="casa">
        <path
           d="m 15577.5,11535.2 h 673.8 l -1978.7,4043.8 -6825.79,42.1 -2396.08,-3869.7 h 780.24 c -19.5334,-3065.3923 0,-4901.1 0,-4901.1 H 5050.73 V 6011.5 H 9414.2 V 2514.398 h 2243.5 V 6011.5 h 4453.9 v 838.8 h -534.1 v 4684.9"
           style="fill:#f6f5f4;fill-opacity:1;fill-rule:nonzero;stroke:none"
           id="path14"
           sodipodi:nodetypes="ccccccccccccccccc" />
        <path
           d="m 14272.6,15579 c -3999.681,92.076 -4821.5035,-637.155 -6825.79,42.1 L 5050.73,11751.4 h 780.24 v -1530.6 c -44.1428,-2044.5961 -0.027,-2710.2735 0,-3370.5 h 209.13 c 98.1975,-0.073 244.4677,-0.1049 342.17,0 h 9195.23 v 4684.9 h 673.8 L 14272.6,15579"
           style="fill:#f6f5f4;fill-opacity:1;fill-rule:nonzero;stroke:none"
           id="path16"
           sodipodi:nodetypes="cccccccccccc" />
        <path
           d="m 14272.6,15579 c -2387.522,26.812 -4440.2242,27.439 -6825.79,42.1 L 5050.73,11751.4 h 780.24 v 135.6 l 1884.35,3269.9 2094.89,-3621.7 H 16251.3 L 14272.6,15579"
           style="display:inline;fill:#f6f5f4;fill-opacity:1;fill-rule:nonzero;stroke:none"
           id="path18"
           sodipodi:nodetypes="ccccccccc" />
        <path
           d="M 10005.9,11535.2 V 6850.3 h 5571.6 v 4684.9 h -5571.6"
           style="display:inline;opacity:1;fill:#dedddc;fill-opacity:1;fill-rule:nonzero;stroke:none"
           id="path22" />
        <path
           d="M 9414.2,6011.5 V 4486.9 c 626.3,-182.9 1692.2,-494.2 2243.5,-655.8 V 6011.5 H 9414.2"
           style="fill:#b8b8b7;fill-opacity:1;fill-rule:nonzero;stroke:none"
           id="path26" />
        <path
           d="m 10005.9,10979.1 v 0 h -990.1 c 7.81,-56.5 12.08,-114.1 12.59,-172.5 h 6549.11 v 172.5 h -5571.6"
           style="opacity:1;fill:#cccccc;fill-opacity:1;fill-rule:nonzero;stroke:none"
           id="path28" />
        <path
           d="m 8881.21,10186 c -31.11,-60.3 -66.71,-118 -106.35,-172.5 h 1231.04 v -0.1 h 5571.6 V 10186 H 8881.21"
           style="opacity:1;fill:#cccccc;fill-opacity:1;fill-rule:nonzero;stroke:none"
           id="path30" />
        <path
           d="M 10005.9,9372.4 H 7066.05 c 3.27,-57.1 5.22,-114.8 5.63,-172.7 h 2934.22 v 0 h 5571.6 v 172.6 h -5571.6 v 0.1"
           style="fill:#f8a372;fill-opacity:1;fill-rule:nonzero;stroke:none"
           id="path32" />
        <rect
           style="display:inline;fill:#ffffff;stroke-width:24.82;stroke-linecap:round;stroke-linejoin:bevel"
           id="rect1228"
           width="4204.5371"
           height="172.76302"
           x="5801.3633"
           y="-7744.9004"
           transform="scale(1,-1)"
           inkscape:label="path34" />
        <path
           d="M 10005.9,8574.6 H 7003.1 c -14.76,-58.4 -32.21,-116 -52.63,-172.5 h 8627.03 v 172.6 h -5571.6 v -0.1"
           style="fill:#f8a372;fill-opacity:1;fill-rule:nonzero;stroke:none"
           id="path36" />
        <path
           d="m 7715.32,15156.9 -268.51,464.2 -2396.08,-3869.7 h 780.24 v 135.6 l 1884.35,3269.9"
           style="display:inline;fill:#cccccc;fill-opacity:1;fill-rule:nonzero;stroke:none"
           id="path38" />
        <path
           d="m 10005.9,10013.4 h 5571.6 v 172.6 h -5571.6 v -172.6"
           style="fill:#cccccc;fill-opacity:1;fill-rule:nonzero;stroke:none"
           id="path40" />
        <path
           d="m 10005.9,10806.6 h 5571.6 v 172.5 h -5571.6 v -172.5"
           style="fill:#cccccc;fill-opacity:1;fill-rule:nonzero;stroke:none"
           id="path42" />
        <path
           d="m 10005.9,9199.7 h 5571.6 v 172.6 h -5571.6 v -172.6"
           style="fill:#cccccc;fill-opacity:1;fill-rule:nonzero;stroke:none"
           id="path44" />
        <path
           d="m 10005.9,8402.1 h 5571.6 v 172.6 h -5571.6 v -172.6"
           style="fill:#cccccc;fill-opacity:1;fill-rule:nonzero;stroke:none"
           id="path46" />
        <rect
           style="display:inline;opacity:1;fill:#cccccc;fill-opacity:1;stroke-width:24.82;stroke-linecap:round;stroke-linejoin:bevel"
           id="rect1228-3"
           width="4204.5371"
           height="172.76302"
           x="5811.6987"
           y="-8576.2842"
           transform="scale(1,-1)"
           inkscape:label="retangulo" />
        <rect
           style="display:inline;opacity:1;fill:#cccccc;fill-opacity:1;stroke-width:24.82;stroke-linecap:round;stroke-linejoin:bevel"
           id="rect1228-3-6"
           width="4204.5371"
           height="172.76302"
           x="5811.6987"
           y="-9372.4316"
           transform="scale(1,-1)"
           inkscape:label="retangulo" />
        <path
           d="m 10005.9,7572.3 h 5571.6 v 172.6 h -5571.6 v -172.6"
           style="fill:#cccccc;fill-opacity:1;fill-rule:nonzero;stroke:none"
           id="path48" />
        <g
           id="g8266">
          <ellipse
             style="fill:#cccccc;fill-opacity:1;stroke-width:17.9458;stroke-linecap:round;stroke-linejoin:bevel"
             id="path1170"
             transform="scale(1,-1)"
             cx="7722.6519"
             cy="-10800.018"
             inkscape:label="cicle"
             rx="1355.142"
             ry="1325.3643" />
          <path
             id="path26732"
             style="fill:#1f1a1a;fill-opacity:1;stroke-width:17.1477;stroke-linecap:round;stroke-linejoin:bevel"
             inkscape:label="cicle"
             transform="scale(1,-1)"
             d="M 9077.7772,-10806.6 A 1243.451,1318.7817 0 0 1 7834.3262,-9487.8179 1243.451,1318.7817 0 0 1 6590.8751,-10806.6 1243.451,1318.7817 0 0 1 7834.3262,-12125.381 1243.451,1318.7817 0 0 1 9077.7772,-10806.6 Z" />
        </g>
        <path
           d="m 10005.9,6850.3 v -838.8 h 6105.7 v 838.8 h -6105.7"
           style="display:inline;opacity:1;fill:#cccccc;fill-opacity:1;fill-rule:nonzero;stroke:none"
           id="path56" />
        <path
           d="m 10158.4,14647.9 c 345.7,-477.1 1048.8,-482.3 1411.4,-14 392.2,-431.4 1071.7,-398.6 1408.3,85 160.1,-185.5 397.3,-293.1 649.8,-247.7 247.3,44.4 514.2,246.3 535.6,510.4 5.5,67.9 -84.6,77.4 -117.2,31.7 -114.4,-160.9 -186.9,-310.1 -399.1,-366 -243.5,-64.2 -476.3,60.3 -603,266.2 -32.2,52.3 -115,57.4 -146,0 -267.7,-497.1 -931.9,-544.3 -1253.4,-71.8 -39,57.2 -125.9,64.8 -163.3,0 -294.1,-510.3 -981.6,-476.4 -1242.8,42.5 -30.2,60 -135.6,64.5 -164.4,0 -239.22,-535.8 -880.12,-513.6 -1178.8,-48.5 -44.41,69.2 -175.72,25.1 -140.64,-59.3 254.49,-612.2 1054.1,-622.6 1403.54,-128.5"
           style="fill:#cccccc;fill-opacity:1;fill-rule:nonzero;stroke:none"
           id="path58" />
        <path
           d="m 13181.3,13626.7 c -38.2,41.9 -97.5,23.1 -126.6,-16.3 -308.4,-416.9 -872.8,-464.9 -1254.8,-116.2 -35,31.9 -86,32.8 -121,0 -372.7,-349.7 -907.7,-326.6 -1258.8,40.4 -30.2,31.6 -88.3,32.9 -118.3,0 -292.3,-320.2 -711.84,-244 -949.81,91 -52.52,74 -160.61,11.3 -121.58,-71 213.24,-450.2 781.79,-498.8 1129.49,-196.6 393.3,-366.7 966.6,-377.1 1380.6,-37 436.8,-344.4 1029.1,-287.5 1391.2,129.5 399.8,-346.4 1125.5,-318.7 1334.9,239.8 21.3,56.9 -64.5,106.9 -103.4,60.2 -137.2,-164.5 -259.8,-310.3 -479.4,-362.7 -268.1,-63.8 -521.9,41.5 -702.5,238.9"
           style="fill:#cccccc;fill-opacity:1;fill-rule:nonzero;stroke:none"
           id="path60" />
        <path
           d="m 13848.8,12574.1 c -30.1,27.2 -77.6,30.8 -107.4,0 -370,-382.1 -993.7,-433.9 -1417.3,-106.1 -26.9,20.9 -67.7,35.6 -99.3,12.9 -376.7,-270.1 -884.3,-269.1 -1253.3,17.5 -35.6,27.7 -73.1,29 -108.9,0 -293.3,-237.7 -663.5,-160.5 -931.96,68 -47.09,40.1 -131.32,-12.2 -91.62,-70.7 241.38,-355.9 743.98,-374.1 1077.18,-147.4 399.1,-289.8 932.8,-309.6 1348.8,-38.1 469.8,-326.4 1115.5,-285.1 1534.8,108 389.4,-295.1 1034.5,-266.4 1260.7,228.2 26.6,57.9 -46.5,129.9 -95.5,73.7 -304,-348.3 -733.2,-490.8 -1116.2,-146"
           style="fill:#cccccc;fill-opacity:1;fill-rule:nonzero;stroke:none"
           id="path62" />
        <rect
           style="display:inline;fill:#ffffff;stroke-width:24.82;stroke-linecap:round;stroke-linejoin:bevel"
           id="rect1231"
           width="4204.5371"
           height="172.76302"
           x="5801.3633"
           y="-7744.9004"
           transform="scale(1,-1)"
           inkscape:label="path34" />
        <rect
           style="display:inline;fill:#ffffff;stroke-width:24.82;stroke-linecap:round;stroke-linejoin:bevel"
           id="rect1233"
           width="4204.5371"
           height="172.76302"
           x="5801.3633"
           y="-7744.9004"
           transform="scale(1,-1)"
           inkscape:label="path34" />
        <rect
           style="display:inline;opacity:1;fill:#cccccc;fill-opacity:1;stroke-width:24.82;stroke-linecap:round;stroke-linejoin:bevel"
           id="rect1235"
           width="4204.5371"
           height="172.76302"
           x="5801.3633"
           y="-7744.9004"
           transform="scale(1,-1)"
           inkscape:label="path34" />
      </g>
      <g
         id="g21484"
         style="display:inline"
         inkscape:label="passaro">
        <path
           d="m 13878.5,16517 c -80.8,128.9 -327.2,116.7 -457.7,120.6 -203,6.1 -405.3,-19.4 -608.2,-17.6 -12.2,0.1 -24.4,0.3 -36.6,0.6 161.8,21.1 320.5,65.5 469.4,132.2 232.7,104.3 456.9,287.6 497,539.4 10.6,66.2 -0.6,150.8 -63.2,188.8 -74.1,45.1 -181.8,-8.9 -250.4,-42.8 -258.1,-127.3 -455.7,-336 -683.8,-505.9 -106,-78.9 -219,-148.2 -337.3,-206.9 -17.2,114.6 -184.3,242.9 -238.7,315.4 -112.6,150.2 -204.3,317.2 -259.5,497.1 -8.8,28.9 -16.7,57.9 -23.7,87.1 467.7,-3 945.2,89.1 1335.7,344.5 120.3,78.6 229.9,178.6 253.8,327.4 4.1,25.8 5.5,52.6 -2.8,77.4 -51.9,155.8 -365.6,11.4 -457,-29.1 161.6,85.1 324.9,172.6 457.8,297.8 133.1,125.2 234.5,294.5 239.4,477.1 1.6,57.9 -7.2,118 -38.2,166.9 -31,49 -87.5,84.5 -145.1,78.6 -58.2,-5.9 -104.4,-50.2 -143.2,-93.9 -72.3,-81.3 -136.8,-169.6 -192.3,-263.2 111.7,211.1 190.3,439.6 231.9,674.7 44.4,250.6 44.1,520.5 -74.2,745.7 -28.3,53.9 -67.5,108 -125.8,125.5 -55.3,16.7 -116.8,-4.5 -160.4,-42.3 -43.5,-37.9 -71.6,-90.4 -93.8,-143.7 -45.5,-109 -69.9,-225.6 -99.8,-339.9 -51.8,-198.2 -121.3,-391.6 -206.9,-577.7 -150.3,-326.7 -349.9,-630.8 -589.9,-898.7 -86.7,-96.7 -178.6,-188.7 -275.4,-275.3 -3.4,27.2 -7.2,54.3 -11.4,81.4 -65.2,418 -304.37,1051.686 -731.366,1314.612 -194.26,119.617 -470.273,108.109 -683.834,27.88 -245.81,-92.344 -518.72,-455.592 -571.28,-542.392 -64.45,10.3 -129.61,-2.1 -191.81,-18.3 -113,-29.4 -222.14,-71.6 -324.74,-125.5 -35.98,-18.9 -74.91,-44.6 -79.42,-85.5 -12.68,-115 222.9,-171 299.98,-194.6 39.87,-12.2 80.2,-22.8 120.8,-31.7 -26.06,-119.8 -40.6,-242.7 -46.63,-364.2 -2.75,-55.8 -3.72,-111.4 -3.18,-166.3 0.11,-11.6 0.29,-23.3 0.52,-35 -107.89,73.3 -204.8,155.8 -294.14,256.2 -412.62,464 -650.8,1053.7 -986.31,1576.1 -29.57,46.1 -60.88,92.6 -105.17,124.7 -44.29,32.2 -104.7,47.5 -154.66,25.2 -50.11,-22.5 -78.46,-76.6 -92.04,-129.8 -30.79,-120.6 -4.5,-248 30.75,-367.3 93.29,-315.7 249.89,-612.6 457.79,-867.9 -72.75,89.7 -157.5,169.7 -251.26,237.2 -67.06,48.2 -148.67,91.8 -228.82,71.8 -67.75,-17 -118.49,-78.4 -136.3,-145.9 -17.8,-67.6 -6.87,-139.8 15.88,-205.9 52.06,-151.2 163.73,-276.7 293.9,-369.6 130.15,-93 278.79,-156.5 428.07,-213.9 -66.06,8.6 -133.32,17.2 -198.96,5.9 -65.69,-11.3 -130.68,-46 -162.37,-104.6 -59.68,-110.4 20.78,-246 116.98,-326.6 161.28,-135 371.39,-201.9 580.97,-220.5 209.55,-18.7 420.44,7.9 628.07,41.8 41.75,6.8 83.6,14 125.01,22.8 54.52,-241.8 146.05,-473.9 289.6,-676.8 124.17,-175.5 281.47,-328.2 462.87,-443.9 85.3,-54.4 175.2,-100.5 268.2,-138 -69,-69.3 -126.4,-169.7 -159.8,-229.5 -45.8,-81.9 -134.1,-232.9 -113.6,-339.2 -31.1,-10.8 -61.8,-23.6 -92.7,-36.3 -54.3,-22.2 -119.3,-42.3 -167.6,-78.6 -11.8,-8.8 -22.5,-18.6 -31.8,-29.6 -23.3,-27.3 -11.2,-85.9 33.4,-80.7 71.1,8.4 131.5,51.4 195.7,81.7 20.3,9.6 41.1,18.3 61.9,27 4.3,1.7 8.5,3.5 12.7,5.2 -1.4,-1.8 -2.9,-3.5 -4.4,-5.3 -50.3,-60.8 -104.9,-123.1 -139.1,-191.9 -27.6,-55.8 38.1,-107 85.3,-65.8 68.7,59.7 121.7,145.9 176.6,218.6 9.3,12.4 19.7,25.2 30.5,38.1 48.7,58.5 106.1,122.8 117.8,192.9 5.9,35.2 -25.3,58.8 -57.6,44.2 -24.2,-10.8 -46.1,-27.9 -66.4,-48.2 22.9,74.2 54.4,145.4 93.5,212.5 40.2,69 88.3,133.6 141.8,192.9 13.5,15.1 25.8,27.2 36.4,38.8 161.1,-47.6 328.3,-70.7 494.3,-68.5 1.8,0.1 3.6,0.1 5.4,0.2 -22.7,-78.8 -23,-168.7 -19.2,-245.2 4.1,-83.8 7.9,-196.1 57.4,-269.3 -26.4,-16.3 -51.7,-35.5 -76.2,-54.7 -17.6,-13.8 -34.8,-27.6 -51.7,-40.4 -73.1,-54.9 -146.1,-109.7 -219.2,-164.6 -57.3,-43.1 -1,-141 56.9,-97.3 77.2,58.4 154.4,116.7 231.6,175.1 28.7,21.7 60.2,43.1 90,66.4 -41.3,-105 -70.9,-213.5 -108.5,-319.7 -28.8,-81.5 112.1,-120.3 129,-35.6 22.4,112 62.9,220 101.6,327.3 10.3,28.4 22.9,57.6 35.3,87.1 28.1,66.7 55.8,135.7 55.5,204.5 -0.1,29.3 -33,38.1 -53.2,22 -35.2,-27.9 -61.8,-66.2 -83.8,-108.1 -6.6,68.6 -32.9,138.3 -37.2,207.3 -5.3,84.4 13.4,168.6 16.4,252.1 333.2,31.6 653.2,167.9 897.9,417 16.6,-21.1 31.9,-39.7 43.5,-49.9 66.3,-58.4 138.6,-110.6 213.7,-157.2 155.7,-96.5 327.1,-167.6 505.5,-209 184.7,-42.7 394.9,-50 572.5,25.6 105.7,44.9 287.9,181.8 203.1,316.9"
           style="display:inline;fill:#ed333b;fill-opacity:1;fill-rule:nonzero;stroke:none"
           id="path24"
           sodipodi:nodetypes="cccccccccccccccccccccccccccccccccaaccsscccccccccccccccccccccccccccccccccccccccccccccccccccccccccccccccccccccccc" />
        <path
           d="m 12378.7,16631.3 c -9.1,-10 -18.3,-20 -27.7,-29.7 -3.6,-3.7 -7.2,-7.4 -10.8,-11 16.6,-21.1 31.9,-39.7 43.5,-49.9 66.3,-58.4 138.6,-110.6 213.7,-157.2 155.7,-96.5 327.1,-167.6 505.5,-209 184.7,-42.7 394.9,-50 572.5,25.6 105.7,44.9 287.9,181.8 203.1,316.9 -80.8,128.9 -327.2,116.7 -457.7,120.6 -203,6.1 -405.3,-19.4 -608.2,-17.6 -12.2,0.1 -24.4,0.3 -36.6,0.6 161.8,21.1 320.5,65.5 469.4,132.2 232.7,104.3 456.9,287.6 497,539.4 10.6,66.2 -0.6,150.8 -63.2,188.8 -74.1,45.1 -181.8,-8.9 -250.4,-42.8 -258.1,-127.3 -455.7,-336 -683.8,-505.9 -106,-78.9 -219,-148.2 -337.3,-206.9 4.9,-33 -2.6,-65 -29,-94.1"
           style="fill:#000000;fill-opacity:1;fill-rule:nonzero;stroke:none"
           id="path64" />
        <path
           d="m 11298.4,15921.5 c 4.1,-83.8 7.9,-196.1 57.4,-269.3 -26.4,-16.3 -51.7,-35.5 -76.2,-54.7 -17.6,-13.8 -34.8,-27.6 -51.7,-40.4 -73.1,-54.9 -146.1,-109.7 -219.2,-164.6 -57.3,-43.1 -1,-141 56.9,-97.3 77.2,58.4 154.4,116.7 231.6,175.1 28.7,21.7 60.2,43.1 90,66.4 -41.3,-105 -70.9,-213.5 -108.5,-319.7 -28.8,-81.5 112.1,-120.3 129,-35.6 22.4,112 62.9,220 101.6,327.3 10.3,28.4 22.9,57.6 35.3,87.1 28.1,66.7 55.8,135.7 55.5,204.5 -0.1,29.3 -33,38.1 -53.2,22 -35.2,-27.9 -61.8,-66.2 -83.8,-108.1 -6.6,68.6 -32.9,138.3 -37.2,207.3 -5.3,84.4 13.4,168.6 16.4,252.1 -41.4,-3.9 -83,-6.2 -124.7,-6.9 -22.7,-78.8 -23,-168.7 -19.2,-245.2"
           style="display:inline;fill:#322e2b;fill-opacity:1;fill-rule:nonzero;stroke:none"
           id="path66" />
        <path
           d="m 10099.8,15575 c -23.3,-27.3 -11.2,-85.9 33.4,-80.7 71.1,8.4 131.5,51.4 195.7,81.7 20.3,9.6 41.1,18.3 61.9,27 4.3,1.7 8.5,3.5 12.7,5.2 -1.4,-1.8 -2.9,-3.5 -4.4,-5.3 -50.3,-60.8 -104.9,-123.1 -139.1,-191.9 -27.6,-55.8 38.1,-107 85.3,-65.8 68.7,59.7 121.7,145.9 176.6,218.6 9.3,12.4 19.7,25.2 30.5,38.1 48.7,58.5 106.1,122.8 117.8,192.9 5.9,35.2 -25.3,58.8 -57.6,44.2 -24.2,-10.8 -46.1,-27.9 -66.4,-48.2 22.9,74.2 54.4,145.4 93.5,212.5 40.2,69 88.3,133.6 141.8,192.9 13.5,15.1 25.8,27.2 36.4,38.8 -51.6,15.2 -102.5,33 -152.6,53.2 -69,-69.3 -126.4,-169.7 -159.8,-229.5 -45.8,-81.9 -134.1,-232.9 -113.6,-339.2 -31.1,-10.8 -61.8,-23.6 -92.7,-36.3 -54.3,-22.2 -119.3,-42.3 -167.6,-78.6 -11.8,-8.8 -22.5,-18.6 -31.8,-29.6"
           style="fill:#322e2b;fill-opacity:1;fill-rule:nonzero;stroke:none"
           id="path68" />
        <path
           d="m 9577.24,18137.2 c -107.89,73.3 -204.8,155.8 -294.14,256.2 -412.62,464 -650.8,1053.7 -986.31,1576.1 -29.57,46.1 -60.88,92.6 -105.17,124.7 -44.29,32.2 -104.7,47.5 -154.66,25.2 -50.11,-22.5 -78.46,-76.6 -92.04,-129.8 -30.79,-120.6 -4.5,-248 30.75,-367.3 93.29,-315.7 249.89,-612.6 457.79,-867.9 -72.75,89.7 -157.5,169.7 -251.26,237.2 -67.06,48.2 -148.67,91.8 -228.82,71.8 -67.75,-17 -118.49,-78.4 -136.3,-145.9 -17.8,-67.6 -6.87,-139.8 15.88,-205.9 52.06,-151.2 163.73,-276.7 293.9,-369.6 130.15,-93 278.79,-156.5 428.07,-213.9 -66.06,8.6 -133.32,17.2 -198.96,5.9 -65.69,-11.3 -130.68,-46 -162.37,-104.6 -59.68,-110.4 20.78,-246 116.98,-326.6 161.28,-135 371.39,-201.9 580.97,-220.5 209.55,-18.7 420.44,7.9 628.07,41.8 41.75,6.8 83.6,14 125.01,22.8 -43.69,193.8 -63.6,393.9 -67.39,590.3"
           style="fill:#000000;fill-opacity:1;fill-rule:nonzero;stroke:none"
           id="path76" />
        <path
           d="m 13674.5,19287 c -31,49 -87.5,84.5 -145.1,78.6 -58.2,-5.9 -104.4,-50.2 -143.2,-93.9 -72.3,-81.3 -136.8,-169.6 -192.3,-263.2 111.7,211.1 190.3,439.6 231.9,674.7 44.4,250.6 44.1,520.5 -74.2,745.7 -28.3,53.9 -67.5,108 -125.8,125.5 -55.3,16.7 -116.8,-4.5 -160.4,-42.3 -43.5,-37.9 -71.6,-90.4 -93.8,-143.7 -45.5,-109 -69.9,-225.6 -99.8,-339.9 -51.8,-198.2 -121.3,-391.6 -206.9,-577.7 -150.3,-326.7 -349.9,-630.8 -589.9,-898.7 -86.7,-96.7 -178.6,-188.7 -275.4,-275.3 -37.1,-33.4 -75,-65.9 -113.6,-97.6 -103.2,-84.8 -324.1,-152.4 -298.8,-318.4 13.2,-86.6 83.5,-156 163.8,-191 80.3,-35 169.9,-40.9 257.5,-43.5 25.7,-0.7 51.5,-1.1 77.3,-1.3 467.7,-3 945.2,89.1 1335.7,344.5 120.3,78.6 229.9,178.6 253.8,327.4 4.1,25.8 5.5,52.6 -2.8,77.4 -51.9,155.8 -365.6,11.4 -457,-29.1 161.6,85.1 324.9,172.6 457.8,297.8 133.1,125.2 234.5,294.5 239.4,477.1 1.6,57.9 -7.2,118 -38.2,166.9"
           style="fill:#000000;fill-opacity:1;fill-rule:nonzero;stroke:none"
           id="path78"
           sodipodi:nodetypes="ccccccccccccccssccccccccc" />
        <path
           d="m 12059.2,16559.4 c -183.6,15 -360.1,104.4 -480.8,243.6 -76.5,88.3 -130.3,194.1 -174.2,302.4 -127.4,314.4 -179.7,662.1 -361.3,948.8 -172.6,272.7 -459.3,470.7 -775.5,535.6 -137.1,28.2 -283.47,31.5 -413.58,-20.2 -197.227,-90.571 -278.781,-205.853 -277.1,-397.4 0.11,-11.6 0.29,-23.3 0.52,-35 3.79,-196.4 23.7,-396.5 67.39,-590.3 54.52,-241.8 146.05,-473.9 289.6,-676.8 124.17,-175.5 281.47,-328.2 462.87,-443.9 85.3,-54.4 175.2,-100.5 268.2,-138 50.1,-20.2 101,-38 152.6,-53.2 161.1,-47.6 328.3,-70.7 494.3,-68.5 1.8,0.1 3.6,0.1 5.4,0.2 41.7,0.7 83.3,3 124.7,6.9 333.2,31.6 653.2,167.9 897.9,417 3.6,3.6 7.2,7.3 10.8,11 -93.3,-32.4 -187.3,-50.7 -291.8,-42.2"
           style="fill:#ffffff;fill-opacity:1;fill-rule:nonzero;stroke:#000000;stroke-width:15;stroke-linecap:round;stroke-linejoin:round;stroke-dasharray:none;stroke-opacity:1;paint-order:stroke fill markers"
           id="path80"
           sodipodi:nodetypes="cccccccccccsccccccc" />
        <path
           d="m 10026,18686.2 c 20.9,13.1 35.6,34.1 45.3,56.8 32.8,76.4 11.4,169.2 -32.9,243.2 -50.63,84.4 -134.21,153.4 -230.19,171 -2.17,0.4 -4.32,0.7 -6.49,1.1 -64.45,10.3 -129.61,-2.1 -191.81,-18.3 -113,-29.4 -222.14,-71.6 -324.74,-125.5 -35.98,-18.9 -74.91,-44.6 -79.42,-85.5 -12.68,-115 222.9,-171 299.98,-194.6 39.87,-12.2 80.2,-22.8 120.8,-31.7 99.45,-21.8 200.69,-33.6 301.63,-35 33.96,-0.4 69.7,0.9 97.84,18.5"
           style="fill:#131416;fill-opacity:1;fill-rule:nonzero;stroke:none"
           id="path82" />
        <path
           d="m 10496.2,19162.1 c -68.1,0 -123.2,-78.9 -123.2,-176.1 0,-97.3 69.409,26.992 137.509,26.992 68.1,0 108.991,-124.292 108.991,-26.992 0,97.2 -55.2,176.1 -123.3,176.1"
           style="display:inline;fill:#322e2b;fill-opacity:1;fill-rule:nonzero;stroke:none"
           id="path84"
           sodipodi:nodetypes="csssc" />
        <g
           id="g13675"
           inkscape:label="penas do peito"
           style="display:inline">
          <path
             d="m 9721.71,17972.5 c -21.63,80 -26.49,145.9 -4.71,226.8 4.05,15.1 -18.99,26.1 -26.03,11 -35.31,-75.3 -33.71,-175 14.49,-244.6 5.53,-8 19,-3.3 16.25,6.8"
             style="fill:#cccccc;fill-opacity:1;fill-rule:nonzero;stroke:none"
             id="path86" />
          <path
             d="m 9962.34,17761.5 c 7.84,-7.3 21.68,2.2 15.39,11.9 -71.9,111 -102.51,227 -84.04,359 2.48,17.7 -21.85,25.7 -27.48,7.6 -41.06,-132.1 -5.58,-283.3 96.13,-378.5"
             style="fill:#cccccc;fill-opacity:1;fill-rule:nonzero;stroke:none"
             id="path88" />
          <path
             d="m 9808.96,17662 c 1.18,17.3 -26.06,20.8 -30.1,4.1 -20.98,-87 -2.58,-171.1 49.99,-243.5 10.61,-14.6 33.27,-2.2 24.6,14.4 -36.47,69.5 -49.84,146.9 -44.49,225"
             style="fill:#cccccc;fill-opacity:1;fill-rule:nonzero;stroke:none"
             id="path90" />
          <path
             d="m 10188.5,17274.6 c -66.5,79.4 -110.3,152.5 -110.9,259.8 -0.2,21.1 -30.8,20.5 -32.5,0 -8.5,-102.5 35.3,-225.5 126.9,-281.2 13.9,-8.5 26,10.1 16.5,21.4"
             style="fill:#cccccc;fill-opacity:1;fill-rule:nonzero;stroke:none"
             id="path92" />
          <path
             d="m 10189.9,18022.2 c -44.1,84.3 -70.3,167.4 -62.4,263.7 1.4,16.5 -26.5,20.6 -29.2,4 -16.2,-100.1 3.6,-205.1 73.6,-281.7 9.1,-9.9 23.9,2.8 18,14"
             style="fill:#cccccc;fill-opacity:1;fill-rule:nonzero;stroke:none"
             id="path94" />
          <path
             d="m 10388.2,17481.6 c 9.1,-7 26.3,2.4 17.8,13.8 -64.7,86.2 -107.5,168.3 -127.4,275 -2.8,15.4 -27.4,11.7 -27,-3.7 2.6,-105.3 52.2,-219.7 136.6,-285.1"
             style="fill:#cccccc;fill-opacity:1;fill-rule:nonzero;stroke:none"
             id="path96" />
          <path
             d="m 10457,17974.9 c -49.4,88.5 -73.8,178.5 -64.7,280.4 1.2,13.9 -21.2,16.8 -24.4,3.3 -24.5,-104.7 -0.9,-216 73.7,-295.6 7.8,-8.2 20.8,2.3 15.4,11.9"
             style="fill:#cccccc;fill-opacity:1;fill-rule:nonzero;stroke:none"
             id="path98" />
          <path
             d="m 10660.8,17540 c -46.5,76.5 -77.3,156.4 -90,245.2 -2.1,14.3 -25.2,10.7 -25,-3.4 1.5,-94.8 34.6,-184.2 98.9,-254.2 7.8,-8.7 22.1,2.5 16.1,12.4"
             style="fill:#cccccc;fill-opacity:1;fill-rule:nonzero;stroke:none"
             id="path100" />
          <path
             d="m 10681.1,17994.4 c -27.4,73.3 -30.3,146 -23.9,223.2 1.3,16 -22.7,18 -27.1,3.7 -24.5,-79.9 -6.5,-163.3 36.8,-232.9 4.4,-7.2 17.5,-2.7 14.2,6"
             style="opacity:1;fill:#cccccc;fill-opacity:1;fill-rule:nonzero;stroke:none"
             id="path102" />
          <path
             d="m 10917,17593.2 c -49.4,85.6 -80.4,171.9 -83,271.6 -0.5,18.4 -26.6,17.9 -28.2,0 -9.2,-103.7 21.6,-208.8 94.8,-284.2 8.3,-8.5 22.3,2.4 16.4,12.6"
             style="fill:#cccccc;fill-opacity:1;fill-rule:nonzero;stroke:none"
             id="path104" />
          <path
             d="m 9986.83,17098.8 c -0.15,19.7 -27.39,18.4 -29.73,0 -13.27,-104.3 23.92,-219.2 108.7,-285.1 8.7,-6.9 24.9,2.1 17.1,13.2 -58.9,83.7 -95.34,167.8 -96.07,271.9"
             style="fill:#cccccc;fill-opacity:1;fill-rule:nonzero;stroke:none"
             id="path106" />
          <path
             d="m 10401.6,16755.6 c -86.6,63.3 -150.1,148.6 -187.9,248.9 -6.5,17.3 -32.4,10.9 -28,-7.7 26.5,-113.4 100.9,-207.4 204.3,-261 13.4,-6.9 23.4,11.2 11.6,19.8"
             style="fill:#cccccc;fill-opacity:1;fill-rule:nonzero;stroke:none"
             id="path110" />
          <path
             d="m 10626,17345.6 c 15.7,-167.2 115.7,-354.8 267.4,-436.1 8.1,-4.3 15.8,5.7 9.7,12.5 -57.2,62.9 -116.2,119.9 -160.5,193.3 -43.8,72.6 -70.3,152.1 -92.2,233.6 -3.5,13.1 -25.7,11 -24.4,-3.3"
             style="fill:#cccccc;fill-opacity:1;fill-rule:nonzero;stroke:none"
             id="path114" />
          <path
             d="m 10869,17406.4 c 2.9,-81.3 42.9,-160.9 108.9,-209 6.3,-4.5 14.1,4.2 10.3,10.3 -40.3,64.6 -70.6,128.9 -91.5,202.4 -4.3,15 -28.3,12.5 -27.7,-3.7"
             style="fill:#cccccc;fill-opacity:1;fill-rule:nonzero;stroke:none"
             id="path116" />
          <path
             d="m 10747.3,16688.6 c -64.2,43.7 -111.2,104.6 -132,180 -3.8,13.6 -27.5,11.5 -25.6,-3.5 11.1,-88.3 65.1,-164.2 148.9,-197.3 12.6,-4.9 18.7,14 8.7,20.8"
             style="fill:#cccccc;fill-opacity:1;fill-rule:nonzero;stroke:none"
             id="path118" />
          <path
             d="m 10653.6,16425.2 c -90.6,25.7 -171.6,70.6 -233.9,142.2 -12.2,14 -37.2,-4.8 -26,-20 61.5,-83.8 152,-138.8 257.5,-139.6 10.1,-0.1 12,14.7 2.4,17.4"
             style="fill:#cccccc;fill-opacity:1;fill-rule:nonzero;stroke:none"
             id="path120" />
          <path
             d="m 10922.3,16733.7 c 40.3,-108.3 139.6,-190.5 252.5,-213.1 8.9,-1.7 16.1,11.6 6.6,15.7 -102.1,44.4 -177.5,112.9 -236.4,207 -7.1,11.4 -27.8,4.1 -22.7,-9.6"
             style="fill:#cccccc;fill-opacity:1;fill-rule:nonzero;stroke:none"
             id="path122" />
          <path
             d="m 11029.2,16364.4 c -79.8,16.3 -150.7,62.4 -192.4,133.4 -10.1,17.1 -35.4,2 -26.5,-15.5 42.2,-82.8 122.4,-136.4 216.3,-137.2 10.7,0 13.6,17 2.6,19.3"
             style="fill:#cccccc;fill-opacity:1;fill-rule:nonzero;stroke:none"
             id="path124" />
          <path
             d="m 11279.5,16750.8 c 10.3,-4.2 19.2,11.7 10.9,18.7 -38.9,32.9 -77.8,64.2 -110.4,103.9 -34.6,42.2 -57.2,91 -85.4,137.3 -4.4,7.3 -18.4,5 -17.4,-4.7 11.6,-107.6 103.6,-214.9 202.3,-255.2"
             style="fill:#cccccc;fill-opacity:1;fill-rule:nonzero;stroke:none"
             id="path126" />
          <path
             d="m 11222.7,17152 c 7.4,-6.7 19.5,1.8 14.2,10.9 -51.4,88.6 -92.6,176.7 -114.7,277.3 -3.4,15.6 -28.9,12.3 -28,-3.8 6.3,-106.8 48.3,-212 128.5,-284.4"
             style="fill:#cccccc;fill-opacity:1;fill-rule:nonzero;stroke:none"
             id="path128" />
          <path
             d="m 11680,16462.9 c 6.3,0.5 8.7,10 1.6,11.7 -53,12.3 -106.1,21.3 -157.1,41 -57.1,22.2 -104,57.3 -157,86.3 -12.1,6.7 -23.5,-8.7 -14.5,-18.7 74.2,-83.3 217.4,-131.3 327,-120.3"
             style="fill:#cccccc;fill-opacity:1;fill-rule:nonzero;stroke:none"
             id="path130" />
          <path
             d="m 11604.6,16335.2 c -125.2,-8.8 -232,5.8 -352.4,39.7 -12.8,3.6 -21.3,-15.4 -9.2,-21.8 107.6,-56.9 247.5,-68.2 363.9,-35.3 9.4,2.6 8,18.1 -2.3,17.4"
             style="fill:#cccccc;fill-opacity:1;fill-rule:nonzero;stroke:none"
             id="path132" />
          <path
             d="m 10141.4,17739.4 c -22.5,55.6 -40.7,109.6 -42.6,170.3 -0.5,15.2 -23,15.1 -23.6,0 -2.8,-64.1 11.3,-127.7 51.9,-178.6 5.2,-6.6 17.5,0.5 14.3,8.3"
             style="fill:#cccccc;fill-opacity:1;fill-rule:nonzero;stroke:none"
             id="path134" />
          <path
             d="m 10338.3,17293.5 c 0.9,-96.7 38.2,-205.2 122.1,-261 7.4,-5 16.4,4.6 12,11.9 -49.1,80.3 -93.6,153.4 -105.9,249.1 -2.3,17.4 -28.4,18.7 -28.2,0"
             style="fill:#cccccc;fill-opacity:1;fill-rule:nonzero;stroke:none"
             id="path112" />
        </g>
        <path
           style="display:inline;opacity:1;fill:#ed333b;fill-opacity:1;stroke:none;stroke-width:15;stroke-linecap:round;stroke-linejoin:round;stroke-dasharray:none;stroke-opacity:1;paint-order:stroke fill markers"
           d="m 9577.5626,18276.583 c 260.7296,-783.517 926.0684,129.815 1280.4924,2.237 -4.912,1.261 78.45,16.042 201.345,54.557 267.262,83.758 -518.345,232.027 -795.947,269.199 -171.367,22.947 -370.9315,60.241 -517.7581,-31.056 -96.1016,-59.756 -147.3417,-180.141 -168.1323,-294.937 z"
           id="path20010"
           sodipodi:nodetypes="ccsasc" />
        <path
           style="display:inline;opacity:1;fill:#000000;fill-opacity:1;stroke:none;stroke-width:7.5;stroke-linecap:round;stroke-linejoin:bevel;stroke-dasharray:none;stroke-opacity:1"
           d="m 11519.368,19148.021 c 172.841,-276.815 309.285,-666.43 371.223,-1041.767 49.61,-300.634 26.137,-589.878 123.567,-821.259 91.522,-208.869 385.354,-329.809 408.542,-559.595 4.557,-45.16 -17.48,-100.954 -56.7,-123.8 -175.426,-102.188 -436.013,-57.24 -606.785,52.548 -533.732,343.131 -993.68,1025.2 -936.664,1657.147 875.854,1.774 733.661,744.738 696.817,836.726 z"
           id="path15340"
           sodipodi:nodetypes="cscaaacc" />
        <g
           id="g20971"
           inkscape:label="penas das costas"
           transform="scale(10)"
           style="display:inline">
          <path
             style="opacity:1;fill:#ffffff;fill-opacity:1;stroke:none;stroke-width:1.5;stroke-linecap:round;stroke-linejoin:round;stroke-dasharray:none;stroke-opacity:1;paint-order:stroke fill markers"
             id="path20968"
             d="m 1158.5462,1886.905 c 1.327,-3.2154 2.1727,-6.5899 3.0004,-9.9592 0.3834,-1.5611 0.6697,-3.1477 1.124,-4.6896 0.4337,-1.4724 1.0243,-2.8941 1.5364,-4.3411 0.029,-0.1019 0.1736,-0.06 0.1442,0.042 v 0 c 0.021,1.6156 0.1685,3.2344 0.063,4.8466 -0.1076,1.6463 -0.4155,3.2747 -0.7002,4.8997 -0.6192,3.5343 -1.5113,7.0563 -2.8193,10.4009 -0.8476,1.6607 -3.1963,0.462 -2.3487,-1.1988 z" />
          <path
             style="opacity:1;fill:#ffffff;fill-opacity:1;stroke:none;stroke-width:1.5;stroke-linecap:round;stroke-linejoin:round;stroke-dasharray:none;stroke-opacity:1;paint-order:stroke fill markers"
             id="path20973"
             d="m 1168.3082,1864.4249 c 1.2932,-3.2879 2.2756,-6.6857 2.9408,-10.1573 0.6817,-3.558 1.0131,-6.6832 1.4659,-10.2846 0.9378,-6.3301 0.6017,-3.3148 1.0717,-9.0389 0.018,-0.1045 0.166,-0.079 0.1479,0.026 v 0 c 0.2088,5.8904 0.082,2.7636 0.3919,9.3798 -0.094,1.8371 -0.1158,3.6793 -0.2824,5.5112 -0.4835,5.3169 -1.6364,10.5541 -3.375,15.5968 -0.7303,1.6694 -3.0911,0.6366 -2.3608,-1.0327 z" />
          <path
             style="opacity:1;fill:#ffffff;fill-opacity:1;stroke:none;stroke-width:1.5;stroke-linecap:round;stroke-linejoin:round;stroke-dasharray:none;stroke-opacity:1;paint-order:stroke fill markers"
             id="path20975"
             d="m 1152.9732,1858.0983 c 0.114,-0.3158 0.2141,-0.6369 0.3418,-0.9473 0.6363,-1.5467 1.3898,-3.0432 2.0348,-4.5863 0.6042,-1.4453 1.1973,-2.896 1.7439,-4.364 1.4851,-3.9882 2.492,-7.241 3.8122,-11.3051 0.5389,-1.8388 1.0777,-3.6776 1.6166,-5.5164 0.033,-0.1009 0.1753,-0.055 0.1426,0.046 v 0 c -0.2299,1.9582 -0.4597,3.9163 -0.6895,5.8745 -0.4319,2.0591 -0.7818,4.1372 -1.2956,6.1774 -0.8739,3.4704 -2.034,6.8008 -3.319,10.132 -1.3771,3.5697 -0.861,2.0151 -1.9398,4.5238 -0.095,0.2216 -0.1715,0.4509 -0.2572,0.6764 -0.503,1.5491 -2.6937,0.8378 -2.1908,-0.7113 z" />
          <path
             style="opacity:1;fill:#ffffff;fill-opacity:1;stroke:none;stroke-width:1.5;stroke-linecap:round;stroke-linejoin:round;stroke-dasharray:none;stroke-opacity:1;paint-order:stroke fill markers"
             id="path20977"
             d="m 1140.6414,1837.434 c 2.8543,-1.9953 5.1698,-4.6071 7.2142,-7.4086 1.0817,-1.4822 2.0556,-3.04 3.0901,-4.5555 1.1272,-1.6511 2.2633,-3.2961 3.3949,-4.9442 0.801,-1.6331 1.602,-3.2661 2.403,-4.8992 0.052,-0.092 0.1828,-0.019 0.1308,0.074 v 0 c -0.7786,1.6492 -1.5573,3.2984 -2.3359,4.9475 -0.792,1.888 -1.4623,3.8317 -2.3759,5.6639 -2.1966,4.4056 -5.4732,9.0018 -9.3999,12.0667 -0.2972,0.2319 -0.624,0.4231 -0.936,0.6347 -1.1163,0.8382 -2.3017,-0.7407 -1.1853,-1.5788 z" />
          <path
             style="opacity:1;fill:#ffffff;fill-opacity:1;stroke:none;stroke-width:1.5;stroke-linecap:round;stroke-linejoin:round;stroke-dasharray:none;stroke-opacity:1;paint-order:stroke fill markers"
             id="path20979"
             d="m 1107.7695,1816.6103 c 0.3942,-0.1699 0.7876,-0.342 1.1829,-0.5097 2.3112,-0.9807 3.0384,-1.1864 5.4654,-2.6906 3.5136,-2.1776 6.0069,-4.1736 9.1188,-6.9688 1.6186,-1.4541 3.1385,-3.0144 4.7077,-4.5216 1.1213,-1.6106 2.2424,-3.2213 3.3636,-4.8319 0.063,-0.085 0.1837,0 0.1203,0.09 v 0 c -1.1239,1.6139 -2.2477,3.2279 -3.3716,4.8418 -1.3007,1.8021 -2.4572,3.7176 -3.902,5.4064 -3.4365,4.0171 -7.7329,7.2651 -12.3804,9.7418 -0.7632,0.4068 -2.2809,1.0117 -3.2108,1.3911 -1.3775,0.7736 -2.4715,-1.1746 -1.0939,-1.9481 z" />
          <path
             style="opacity:1;fill:#ffffff;fill-opacity:1;stroke:none;stroke-width:1.5;stroke-linecap:round;stroke-linejoin:round;stroke-dasharray:none;stroke-opacity:1;paint-order:stroke fill markers"
             id="path20981"
             d="m 1134.5646,1814.3642 c 4.9548,-2.3772 9.6801,-5.0029 13.2643,-9.3126 1.2014,-1.4445 2.1503,-3.0813 3.2255,-4.622 3.5175,-6.7919 2.1719,-3.3147 4.1248,-10.3969 0.038,-0.099 0.1781,-0.045 0.14,0.054 v 0 c -1.9545,7.1661 -0.8074,3.5299 -3.4898,10.8931 -1.018,1.6573 -1.9001,3.4062 -3.0538,4.9721 -1.035,1.4046 -2.2119,2.7125 -3.4863,3.904 -1.0263,0.9596 -2.2203,1.7254 -3.3813,2.5167 -2.0402,1.3903 -4.2447,2.5702 -6.4899,3.5913 -1.1311,0.6035 -1.9845,-0.9961 -0.8535,-1.5996 z" />
          <path
             style="opacity:1;fill:#ffffff;fill-opacity:1;stroke:none;stroke-width:1.5;stroke-linecap:round;stroke-linejoin:round;stroke-dasharray:none;stroke-opacity:1;paint-order:stroke fill markers"
             id="path20983"
             d="m 1184.7429,1756.9261 c -0.5073,-2.4363 -0.4488,-4.9197 -0.222,-7.3884 0.1413,-1.5366 0.3249,-3.0716 0.5944,-4.5909 0.289,-1.6283 0.6044,-3.2584 1.0795,-4.8424 0.454,-1.5138 1.1335,-2.9505 1.7003,-4.4257 0.6148,-1.1577 1.2296,-2.3154 1.8443,-3.4731 0.045,-0.096 0.181,-0.032 0.1357,0.064 v 0 c -0.2985,1.2751 -0.5971,2.5501 -0.8956,3.8252 -1.1455,6.904 -2.4234,13.8577 -2.1442,20.8886 -0.041,1.4795 -2.1329,1.4222 -2.0924,-0.057 z" />
          <path
             style="opacity:1;fill:#ffffff;fill-opacity:1;stroke:none;stroke-width:1.5;stroke-linecap:round;stroke-linejoin:round;stroke-dasharray:none;stroke-opacity:1;paint-order:stroke fill markers"
             id="path20985"
             d="m 1192.716,1738.4365 c 0.5037,-0.7237 0.8946,-1.2471 1.3063,-2.0888 2.4779,-5.0665 3.4857,-10.721 4.7132,-16.1771 0.2089,-1.5356 0.4178,-3.0712 0.6267,-4.6068 0.023,-0.1035 0.1697,-0.07 0.1463,0.033 v 0 c -0.058,1.5808 -0.1158,3.1616 -0.1737,4.7424 -0.1463,1.7686 -0.1939,3.5482 -0.4391,5.3059 -0.2319,1.6622 -0.5903,3.3066 -0.9899,4.9367 -0.3301,1.3465 -0.7446,2.6726 -1.1969,3.9831 -0.6322,1.8316 -1.3881,3.6327 -2.6715,5.1042 -0.8716,0.9344 -2.1929,-0.2983 -1.3214,-1.2326 z" />
          <path
             style="opacity:1;fill:#ffffff;fill-opacity:1;stroke:none;stroke-width:1.5;stroke-linecap:round;stroke-linejoin:round;stroke-dasharray:none;stroke-opacity:1;paint-order:stroke fill markers"
             id="path20987"
             d="m 1205.3127,1709.951 c 2.7492,-1.8036 4.3812,-4.6522 6.003,-7.4214 0.705,-1.2036 1.3877,-2.4201 2.0815,-3.6302 0.6183,-1.25 1.2365,-2.5 1.8548,-3.75 0.046,-0.096 0.1811,-0.031 0.1353,0.065 v 0 c -0.3857,1.3775 -0.7714,2.7549 -1.1571,4.1324 -0.4734,1.3767 -0.8485,2.7911 -1.42,4.1299 -1.2317,2.8854 -3.2098,5.9108 -5.8333,7.7331 -0.2116,0.147 -0.4466,0.2573 -0.67,0.3859 -1.1628,0.703 -2.157,-0.9415 -0.9942,-1.6444 z" />
          <path
             style="opacity:1;fill:#ffffff;fill-opacity:1;stroke:none;stroke-width:1.5;stroke-linecap:round;stroke-linejoin:round;stroke-dasharray:none;stroke-opacity:1;paint-order:stroke fill markers"
             id="path20989"
             d="m 1224.2147,1694.3448 c 0.7629,-2.369 2.1972,-4.5142 3.995,-6.2318 0.6501,-0.6211 1.3033,-1.2771 2.1015,-1.6909 0.7815,-0.4051 1.6946,-0.4775 2.5419,-0.7163 0.6637,-0.1667 1.3274,-0.3335 1.9911,-0.5002 0.098,-0.04 0.1547,0.099 0.056,0.139 v 0 c -0.6283,0.2051 -1.2566,0.4103 -1.8849,0.6154 -0.5481,0.543 -1.0929,1.0892 -1.6442,1.6289 -0.5857,0.5735 -1.2214,1.0988 -1.7668,1.7108 -1.2726,1.428 -2.4935,3.3581 -3.3629,5.0778 -0.1096,0.2169 -0.1808,0.4512 -0.2712,0.6768 -0.5017,1.2416 -2.2576,0.5321 -1.7559,-0.7095 z" />
          <path
             style="opacity:1;fill:#ffffff;fill-opacity:1;stroke:none;stroke-width:1.5;stroke-linecap:round;stroke-linejoin:round;stroke-dasharray:none;stroke-opacity:1;paint-order:stroke fill markers"
             id="path20993"
             d="m 1223.441,1678.2747 c 0.459,-0.3846 1.1146,-0.9105 1.4776,-1.3465 1.5389,-1.8483 2.4051,-4.0908 3.3564,-6.2658 0.3834,-0.8766 0.7709,-1.7514 1.1564,-2.6271 1.4659,-2.7013 0.5299,-1.6581 2.6104,-3.2958 0.068,-0.081 0.183,0.016 0.1143,0.097 v 0 c -1.0627,2.2124 -0.5222,0.9692 -1.5547,3.7579 -1.0966,3.3413 -2.1827,6.8187 -4.4824,9.5642 -0.4111,0.4909 -1.0774,1.0178 -1.588,1.4417 -0.9375,0.7707 -2.0274,-0.555 -1.09,-1.3257 z" />
          <path
             style="opacity:1;fill:#ffffff;fill-opacity:1;stroke:none;stroke-width:1.5;stroke-linecap:round;stroke-linejoin:round;stroke-dasharray:none;stroke-opacity:1;paint-order:stroke fill markers"
             id="path20995"
             d="m 1135.8309,1786.8011 c 2.6642,-3.5833 3.5219,-8.1316 4.6149,-12.3615 1.2018,-4.6214 2.0894,-9.3519 3.959,-13.7736 0.8356,-1.9761 2.273,-4.8508 3.987,-6.359 0.6134,-0.5398 1.4465,-0.7605 2.1698,-1.1407 0.6048,0.1026 1.2097,0.2052 1.8145,0.3078 0.1045,-0.018 0.13,0.1298 0.025,0.1478 v 0 c -0.4172,0.1158 -0.8345,0.2315 -1.2517,0.3472 -0.5012,0.4393 -1.0759,0.8068 -1.5037,1.3179 -1.5827,1.8908 -2.469,3.9054 -3.3407,6.2157 -1.6766,4.4432 -2.6191,9.1121 -3.7534,13.7082 -0.6318,2.5718 -1.1595,4.9648 -1.9833,7.4722 -0.5918,1.801 -1.3545,3.604 -2.4929,5.1348 -0.1564,0.2102 -0.3478,0.392 -0.5216,0.5879 -1.1348,1.2186 -2.8581,-0.3861 -1.7234,-1.6047 z" />
          <path
             style="opacity:1;fill:#ffffff;fill-opacity:1;stroke:none;stroke-width:1.5;stroke-linecap:round;stroke-linejoin:round;stroke-dasharray:none;stroke-opacity:1;paint-order:stroke fill markers"
             id="path20997"
             d="m 1160.8521,1776.0006 c 0.6572,-4.4836 1.0776,-8.9993 1.6863,-13.4896 0.2589,-1.9099 0.4692,-3.8294 0.8421,-5.7203 0.3435,-1.7411 0.8694,-3.4411 1.3041,-5.1617 1.2683,-2.628 1.7228,-4.7188 4.3487,-6.2807 1.1197,-0.666 3.7301,-0.8909 5.0709,-1.0608 0.1012,-0.032 0.1462,0.1113 0.045,0.1431 v 0 c -0.6878,0.1668 -1.4309,0.1824 -2.0632,0.5003 -0.7319,0.368 -1.3382,0.9534 -1.938,1.5114 -2.5744,2.3955 -2.0749,2.2992 -3.7217,5.8159 -0.4017,1.6771 -0.8953,3.3349 -1.205,5.0315 -0.3447,1.8887 -0.5199,3.8045 -0.7557,5.7099 -0.5586,4.5137 -0.9862,9.0441 -1.6406,13.546 -0.3853,1.395 -2.3583,0.8501 -1.9729,-0.545 z" />
          <path
             style="opacity:1;fill:#ffffff;fill-opacity:1;stroke:none;stroke-width:1.5;stroke-linecap:round;stroke-linejoin:round;stroke-dasharray:none;stroke-opacity:1;paint-order:stroke fill markers"
             id="path20999"
             d="m 1176.8759,1738.8977 c -0.082,-0.32 -0.1895,-0.6344 -0.2445,-0.96 -0.1899,-1.1256 -0.416,-3.978 -0.4497,-4.7797 -0.1054,-2.5129 -0.077,-6.5593 0.058,-8.9882 0.093,-1.668 0.2848,-3.3289 0.4271,-4.9934 0.2871,-1.5309 0.4297,-3.0962 0.8612,-4.5928 0.6482,-2.2475 1.9253,-4.949 3.5304,-6.7306 0.5981,-0.6638 1.4079,-1.1006 2.1117,-1.6509 0.071,-0.079 0.1826,0.021 0.1118,0.1002 v 0 c -1.0301,1.7881 -1.8827,3.1214 -2.6162,5.112 -1.1874,3.222 -1.289,4.7843 -1.8918,8.2292 -0.1242,1.6301 -0.3033,3.2569 -0.3726,4.8902 -0.1425,3.3587 -0.016,5.5745 0.1113,8.8713 0.038,0.9811 0.065,1.9628 0.1214,2.9429 0.237,4.0798 0.095,0.01 0.173,2.5345 0.011,1.3657 -1.9205,1.381 -1.9313,0.015 z" />
          <path
             style="opacity:1;fill:#ffffff;fill-opacity:1;stroke:none;stroke-width:1.5;stroke-linecap:round;stroke-linejoin:round;stroke-dasharray:none;stroke-opacity:1;paint-order:stroke fill markers"
             id="path21001"
             d="m 1193.1504,1712.1906 c 1.765,-2.1731 2.3637,-4.9911 2.8,-7.6889 0.5145,-3.1816 0.6544,-5.8993 0.9023,-9.1151 0.051,-1.3902 0.102,-2.7804 0.1531,-4.1706 0.012,-0.1053 0.1613,-0.088 0.149,0.017 v 0 c 0.1839,1.433 0.3679,2.866 0.5519,4.299 0.1526,4.2095 0.3851,5.34 -0.2054,9.4865 -0.3735,2.6218 -1.0642,5.5669 -2.729,7.7262 -0.1978,0.2566 -0.4814,0.4339 -0.7221,0.6508 -0.8522,0.6363 -1.7521,-0.5689 -0.8998,-1.2052 z" />
          <path
             style="opacity:1;fill:#ffffff;fill-opacity:1;stroke:none;stroke-width:1.5;stroke-linecap:round;stroke-linejoin:round;stroke-dasharray:none;stroke-opacity:1;paint-order:stroke fill markers"
             id="path21003"
             d="m 1152.3251,1719.7906 c 0.2899,-0.8637 0.3514,-1.1661 0.8814,-2.0441 1.8419,-3.0516 4.7446,-5.3132 7.3823,-7.6293 3.0671,-2.7341 5.7725,-5.8389 7.7134,-9.4826 1.1719,-2.2 1.8863,-4.4563 2.717,-6.7877 0.034,-0.1007 0.1758,-0.053 0.1423,0.047 v 0 c -0.1067,1.2381 -0.032,2.5053 -0.3201,3.7142 -0.3114,1.3078 -0.8595,2.5567 -1.4594,3.7597 -1.8881,3.7865 -4.7778,6.9135 -7.729,9.883 -1.5367,1.468 -2.9999,2.8139 -4.4379,4.371 -1.2962,1.4033 -2.5588,2.9489 -3.1754,4.7845 -0.4357,1.2124 -2.1503,0.5964 -1.7146,-0.616 z" />
          <path
             style="opacity:1;fill:#ffffff;fill-opacity:1;stroke:none;stroke-width:1.5;stroke-linecap:round;stroke-linejoin:round;stroke-dasharray:none;stroke-opacity:1;paint-order:stroke fill markers"
             id="path21005"
             d="m 1197.7571,1684.2482 c 1.2581,-2.1496 2.008,-4.5254 2.3794,-6.9847 0.1467,-0.9717 0.2107,-1.9542 0.3161,-2.9314 0.349,-4.2675 0.2017,-2.1575 0.4455,-6.3299 0.01,-0.1057 0.1581,-0.093 0.1495,0.012 v 0 c 1.0176,4.3726 0.6659,2.138 1.0344,6.707 -0.098,1.0242 -0.1494,2.0539 -0.2931,3.0728 -0.3679,2.6088 -1.1091,5.2366 -2.5884,7.4427 -0.6992,1.0207 -2.1426,0.032 -1.4434,-0.9887 z" />
          <path
             style="opacity:1;fill:#ffffff;fill-opacity:1;stroke:none;stroke-width:1.5;stroke-linecap:round;stroke-linejoin:round;stroke-dasharray:none;stroke-opacity:1;paint-order:stroke fill markers"
             id="path21007"
             d="m 1180.1988,1680.2994 c 0.1087,-0.3342 0.1954,-0.6763 0.3261,-1.0024 0.4297,-1.0728 1.2274,-2.6339 1.7373,-3.5954 0.4238,-0.7995 0.8464,-1.6003 1.3066,-2.3794 0.4839,-0.8191 0.9314,-1.6689 1.5244,-2.4129 0.5768,-0.7238 1.309,-1.3089 1.9634,-1.9633 0.4413,-0.6144 0.8826,-1.2289 1.3239,-1.8433 0.061,-0.087 0.1837,-8e-4 0.1228,0.086 v 0 c -0.3777,0.6564 -0.7554,1.3129 -1.1331,1.9694 -0.2912,0.8823 -0.5152,1.7897 -0.8735,2.6469 -0.3621,0.8666 -0.8554,1.6725 -1.2816,2.5095 -1.1019,2.1638 -2.1841,4.3364 -3.1561,6.5625 -0.4085,1.3153 -2.2686,0.7376 -1.8602,-0.5777 z" />
        </g>
        <path
           d="m 12763.7,18553.8 c 152.7,76.3 337.1,247.7 347.3,432.9 4.1,74.4 -14.5,90.3 -56.5,139.9 -8.5,10.1 -68.6,17.4 -77.3,17.2 12.5,10 127.5,188 142.8,223.2 57.9,133.1 97.4,273 118,416.5 21.7,151.5 39.9,318.6 -94.1,417.6 -15,11.1 -29.2,-11.9 -18.7,-24.3 233.9,-278.6 -41.2,-821.3 -204.6,-1065.6 -14.8,-22 13.3,-43.9 33.7,-33.7 20.6,-70.6 41.2,-141.2 61.8,-211.8 -19.3,-40.1 -44.4,-76.2 -75.1,-108.3 -57.5,-68.3 -123.2,-119.4 -198.2,-167.9 -22.5,-14.5 -2.9,-47.6 20.9,-35.7"
           style="display:inline;fill:#ffffff;fill-opacity:1;fill-rule:nonzero;stroke:none"
           id="path138" />
        <path
           d="m 12652.8,17978.6 c -30.5,-28.4 -93.4,-46 -132.3,-58.7 -72.2,-23.7 -147.7,-25.2 -221.2,-41 -13.9,-3 -14.4,-25.9 0,-28.7 138.5,-25.9 367.9,37.9 461.3,150.3 71.3,85.8 16.1,143.8 -59.9,164.3 102.3,62.6 252,184.2 142.3,257.8 -14.3,9.6 -25.9,-10.4 -16.9,-21.9 69.1,-88.6 -159.1,-208.9 -208,-228.9 -22,-9.1 -22,-46.2 6.1,-45.1 4.1,1.4 7.9,2.4 11.6,3.2 v 0 c 0.1,0 0.2,0 0.3,0.1 38.2,8.2 51.3,-14 39.1,-66.6 27.1,-44.3 19.6,-72.5 -22.4,-84.8"
           style="fill:#ffffff;fill-opacity:1;fill-rule:nonzero;stroke:none"
           id="path140" />
        <path
           d="m 9173.45,17896.7 c -45.17,25.1 -89.72,38.6 -137.84,57.5 -42.62,15.9 -83.65,35 -123.03,57.5 -76.15,35.3 -103.29,105 -81.42,209.3 21.56,5.4 21.34,32.1 5.7,43.6 -46.48,33.9 -185.99,136.6 -189.48,197.1 -28.77,31.7 -10.33,54.7 55.33,69.1 27.25,53.6 55.56,66.4 84.95,38.5 26.93,-7 67.25,-41.9 92.44,-53.7 15.91,-7.4 28.23,13.4 13.77,23.6 -71.75,50.2 -254.23,195.9 -318.96,47.1 -49.56,-114 107.95,-260.9 203.6,-336.7 -61.18,-40.2 -55.4,-122.4 -8.93,-187 80.19,-111.4 264.53,-183.2 395.15,-198.1 17.52,-2 22.9,24.4 8.72,32.2"
           style="fill:#ffffff;fill-opacity:1;fill-rule:nonzero;stroke:none"
           id="path142" />
        <path
           d="m 8023.83,18775.8 c -23.88,-106.4 110.38,-253.4 206.53,-275.7 11.64,-2.7 19.95,11.1 11.62,20 -51.75,54.8 -113.43,91.7 -154.35,157.9 -11.77,19.1 -32.33,50.7 -28.69,73.8 5.82,36.8 33.8,62.9 68.96,65.6 51.17,3.9 92,-32.9 134.74,-55.2 12.79,-6.6 25.98,9.5 15.58,20.2 -60.9,63.1 -225.4,122.6 -254.39,-6.6"
           style="fill:#ffffff;fill-opacity:1;fill-rule:nonzero;stroke:none"
           id="path144" />
        <path
           d="m 8804.68,17678.9 c -57.07,33.7 -134.35,41.7 -198.49,57.7 -27.3,6.8 -56.05,12 -82.41,22.1 l -26.46,12.4 c -17.54,66 -3.77,97.2 41.29,93.6 24.17,4.7 50.89,0.5 75.13,-1.1 13.33,-0.8 15.08,18.9 3.08,22.7 -49.21,15.2 -105.8,23.7 -149.31,-11.3 -31.04,-25.1 -44.34,-66.9 -24.83,-103.1 22.22,-40.9 73.75,-55.3 115.44,-66.3 74.72,-19.7 161.88,-56.2 239.38,-53.2 13.91,0.5 19.68,19.1 7.18,26.5"
           style="fill:#ffffff;fill-opacity:1;fill-rule:nonzero;stroke:none"
           id="path146" />
        <path
           d="m 11978.4,17934.6 c 118.9,20.8 325.9,126.3 358.6,257.2 18.7,74.6 -22.1,104.1 -75,107.6 103.4,82.3 255.4,231 161.2,301.4 -5.3,4 -12.9,2.8 -18.3,0 -6.2,-3.1 -12.4,-6.2 -18.6,-9.3 -16.1,-8.1 -3.6,-28.6 11.2,-26.6 35.7,4.9 -95.2,-176.1 -91.4,-172.1 -39.4,-42.2 -84.4,-76.8 -132.9,-107.9 -18.6,-12 -7.1,-45.3 15.8,-37.4 65.9,22.7 107.3,-41.9 71.5,-98.6 -24,-37.9 -79.2,-77.9 -113.1,-100.3 -56.3,-37.1 -119,-60.1 -180.4,-86.8 -16.5,-7.2 -3.9,-29.9 11.4,-27.2"
           style="fill:#ffffff;fill-opacity:1;fill-rule:nonzero;stroke:none"
           id="path148" />
        <path
           style="opacity:1;fill:#ffffff;fill-opacity:1;stroke:none;stroke-width:15;stroke-linecap:round;stroke-linejoin:round;stroke-dasharray:none;stroke-opacity:1;paint-order:stroke fill markers"
           id="path21219"
           d="m 12541.024,16714.42 c 44.51,57.436 98.901,110.774 166.442,140.336 19.305,8.45 40.226,12.58 60.339,18.869 18.086,0.727 36.239,3.908 54.256,2.181 18.718,-1.794 56.696,-15.125 73.268,-26.942 7.187,-5.125 11.925,-13.02 17.888,-19.53 0.66,-0.83 1.834,0.102 1.174,0.933 v 0 c -13.006,20.816 -20.075,37.265 -44.211,49.653 -37.817,19.41 -62.403,12.205 -103.746,10.316 -20.987,-6.588 -42.763,-11.053 -62.962,-19.763 -47.303,-20.4 -73.602,-41.956 -111.793,-75.617 -25.332,-22.327 -48.626,-47.331 -69.273,-74.039 -4.523,-13.165 14.095,-19.562 18.618,-6.397 z" />
        <path
           style="opacity:1;fill:#ffffff;fill-opacity:1;stroke:none;stroke-width:15;stroke-linecap:round;stroke-linejoin:round;stroke-dasharray:none;stroke-opacity:1;paint-order:stroke fill markers"
           id="path21221"
           d="m 12795.871,16737.402 c 2.742,-1.417 5.366,-3.088 8.226,-4.249 29.264,-11.891 65.161,-15.336 95.864,-8.065 12.444,2.947 24.118,8.517 36.177,12.775 44.499,28.679 24.004,12.602 61.695,47.964 0.985,0.392 0.427,1.786 -0.555,1.393 v 0 c -39.427,-26.288 -18.647,-14.702 -62.422,-34.611 -11.207,-3.174 -22.202,-7.219 -33.619,-9.521 -32.745,-6.603 -64.38,-2.741 -94.967,9.886 -11.011,7.353 -21.41,-8.219 -10.399,-15.572 z" />
        <path
           style="opacity:1;fill:#ffffff;fill-opacity:1;stroke:none;stroke-width:15;stroke-linecap:round;stroke-linejoin:round;stroke-dasharray:none;stroke-opacity:1;paint-order:stroke fill markers"
           id="path21223"
           d="m 12966.102,16880.518 c 18.874,33.727 47.758,61.668 84.63,74.983 11.43,4.128 23.637,5.655 35.457,8.482 11.983,0.424 23.967,1.722 35.95,1.271 30.654,-1.156 61.703,-12.915 92.565,-7.442 7.782,1.38 14.853,5.407 22.28,8.111 1.06,0 1.065,1.497 0,1.5 v 0 c -6.8,-0.142 -13.614,-0.883 -20.4,-0.426 -8.624,0.582 -17.147,2.215 -25.689,3.535 -34.91,5.395 -69.438,13.832 -105.083,8.803 -12.7,-2.942 -25.764,-4.612 -38.101,-8.825 -11.82,-4.035 -23.397,-9.156 -33.983,-15.785 -26.624,-16.675 -49.774,-43.401 -64.807,-70.907 -2.334,-12.147 14.844,-15.447 17.178,-3.3 z" />
        <path
           style="opacity:1;fill:#ffffff;fill-opacity:1;stroke:none;stroke-width:15;stroke-linecap:round;stroke-linejoin:round;stroke-dasharray:none;stroke-opacity:1;paint-order:stroke fill markers"
           id="path21225"
           d="m 13119.078,17064.672 c 20.054,44.703 50.32,86.019 91.815,113.131 10.902,7.124 22.897,12.416 34.347,18.624 11.205,3.703 22.411,7.406 33.618,11.108 1.059,0.05 0.99,1.548 -0.08,1.499 v 0 c -11.574,-2.317 -23.148,-4.633 -34.722,-6.95 -12.073,-5.331 -24.79,-9.395 -36.22,-15.993 -41.91,-24.195 -73.678,-61.706 -94.713,-104.885 -2.489,-5.111 -4.157,-10.584 -6.236,-15.875 -0.465,-8.612 11.713,-9.271 12.18,-0.66 z" />
        <path
           style="opacity:1;fill:#ffffff;fill-opacity:1;stroke:none;stroke-width:15;stroke-linecap:round;stroke-linejoin:round;stroke-dasharray:none;stroke-opacity:1;paint-order:stroke fill markers"
           id="path21227"
           d="m 13280.673,17038.09 c 12.357,3.161 22.681,4.92 33.793,12.649 20.779,14.455 35.491,34.021 51.913,52.864 0.955,0.461 0.3,1.812 -0.653,1.351 v 0 c -25.558,-20.034 -51.483,-42.391 -83.883,-50.147 -11.82,0.827 -12.99,-15.89 -1.169,-16.717 z" />
        <path
           style="opacity:1;fill:#ffffff;fill-opacity:1;stroke:none;stroke-width:15;stroke-linecap:round;stroke-linejoin:round;stroke-dasharray:none;stroke-opacity:1;paint-order:stroke fill markers"
           id="path21229"
           d="m 13374.117,17177.107 c 32.131,26.331 66.432,49.953 104.145,67.677 13.027,6.123 26.574,11.071 39.861,16.606 21.803,6.597 60.958,19.282 83.98,23.073 10.718,1.764 21.681,1.377 32.522,2.066 1.05,-0.148 1.259,1.338 0.21,1.485 v 0 c -40.225,0.449 -80.163,1.496 -118.771,-12.495 -13.713,-5.301 -27.689,-9.967 -41.141,-15.904 -34.616,-15.278 -74.595,-38.61 -102.433,-64.841 -3.812,-3.591 -7.208,-7.598 -10.813,-11.397 -4.432,-8.796 8.007,-15.066 12.44,-6.27 z" />
        <path
           style="opacity:1;fill:#ffffff;fill-opacity:1;stroke:none;stroke-width:15;stroke-linecap:round;stroke-linejoin:round;stroke-dasharray:none;stroke-opacity:1;paint-order:stroke fill markers"
           id="path21231"
           d="m 13433.053,16527.198 c 56.364,-1.638 110.184,-20.548 160.767,-44.281 18.374,-8.621 36.148,-18.468 54.222,-27.702 28.703,-21.434 63.435,-31.28 94.268,-48.564 9.36,-5.246 17.589,-12.294 26.383,-18.441 0.835,-0.655 1.76,0.526 0.926,1.18 v 0 c -8.558,6.52 -17.311,12.79 -25.672,19.56 -60.737,49.182 -12.228,15.832 -86.515,61.786 -18.235,9.641 -36.165,19.886 -54.706,28.924 -48.438,23.613 -100.271,43.652 -154.494,48 -4.344,0.349 -8.716,0 -13.074,0 -14.466,1.488 -16.571,-18.971 -2.105,-20.459 z" />
        <path
           style="opacity:1;fill:#ffffff;fill-opacity:1;stroke:none;stroke-width:15;stroke-linecap:round;stroke-linejoin:round;stroke-dasharray:none;stroke-opacity:1;paint-order:stroke fill markers"
           id="path21235"
           d="m 13724.525,16348.504 c -17.865,12.129 -37.061,22.139 -56.916,30.601 -22.071,9.407 -40.114,16.432 -64.139,19.682 -10.292,1.392 -20.76,0.675 -31.14,1.013 -32.538,-13.673 -19.197,-4.208 -41.295,-26.508 -0.993,-0.372 -0.465,-1.776 0.525,-1.404 v 0 c 21.835,11.048 9.679,7.393 36.915,9.35 9.269,-0.748 18.637,-0.697 27.807,-2.244 41.331,-6.97 79.974,-25.587 115.147,-47.708 12.175,-9.258 25.269,7.959 13.094,17.218 z" />
        <path
           style="opacity:1;fill:#ffffff;fill-opacity:1;stroke:none;stroke-width:15;stroke-linecap:round;stroke-linejoin:round;stroke-dasharray:none;stroke-opacity:1;paint-order:stroke fill markers"
           id="path21237"
           d="m 13554.528,16229.272 c -23.581,-8.729 -47.216,-18.455 -72.145,-22.761 -12.629,-2.181 -25.415,-3.596 -38.216,-4.23 -14.553,-0.72 -29.142,0.117 -43.713,0.176 -34.305,4.302 -72.294,7.25 -101.765,27.85 -5.744,4.015 -12.044,8.5 -14.78,14.952 -2.569,6.055 0.08,13.155 0.08,19.732 -0.135,1.053 -1.622,0.865 -1.489,-0.187 v 0 c -1.111,-17.173 -4.582,-31.419 6.718,-47.393 23.242,-32.856 72.133,-33.908 107.14,-39.033 15.351,-0.254 30.715,-1.442 46.054,-0.762 40.5,1.794 82.749,10.743 116.894,33.467 12.862,3.372 8.094,21.56 -4.767,18.189 z" />
        <path
           style="opacity:1;fill:#ffffff;fill-opacity:1;stroke:none;stroke-width:15;stroke-linecap:round;stroke-linejoin:round;stroke-dasharray:none;stroke-opacity:1;paint-order:stroke fill markers"
           id="path21239"
           d="m 13453.329,16334.134 c -4.34,11.25 -5.352,15.449 -13.324,26.574 -17.377,24.25 -41.674,45.265 -67.022,60.722 -11.035,6.728 -22.95,11.894 -34.424,17.842 -32.487,11.672 -69.838,25.579 -103.718,8.762 -8.593,-4.265 -14.621,-12.422 -21.931,-18.634 -1.012,-0.316 -0.562,-1.748 0.45,-1.432 v 0 c 7.029,3.162 13.571,7.783 21.089,9.485 8.691,1.968 17.809,1.921 26.702,1.336 28.876,-1.898 39.38,-7.542 67.024,-16.848 10.807,-5.49 22.046,-10.202 32.422,-16.468 32.261,-19.485 58.516,-47.589 78.986,-78.928 5.367,-9.722 19.115,-2.132 13.749,7.589 z" />
        <path
           style="opacity:1;fill:#ffffff;fill-opacity:1;stroke:none;stroke-width:15;stroke-linecap:round;stroke-linejoin:round;stroke-dasharray:none;stroke-opacity:1;paint-order:stroke fill markers"
           id="path21241"
           d="m 13158.333,16277.779 c -3.486,1.828 -6.899,3.801 -10.457,5.483 -21.364,10.1 -38.959,16.989 -61.297,26.695 -35.657,15.494 -64.761,28.105 -99.439,46.232 -16.097,8.415 -31.677,17.785 -47.516,26.677 -47.102,32.858 -27.168,14.728 -61.26,52.743 -0.615,0.862 -1.836,-0.01 -1.218,-0.874 v 0 c 24.208,-49.63 7.155,-27.192 53.622,-65.365 15.824,-9.454 31.332,-19.458 47.472,-28.361 54.596,-30.115 112.414,-53.817 168.141,-81.65 13.025,-8.451 24.977,9.969 11.952,18.42 z" />
        <path
           style="opacity:1;fill:#ffffff;fill-opacity:1;stroke:none;stroke-width:15;stroke-linecap:round;stroke-linejoin:round;stroke-dasharray:none;stroke-opacity:1;paint-order:stroke fill markers"
           id="path21243"
           d="m 13157.484,16486.753 c -2.828,4.074 -5.168,8.534 -8.484,12.222 -33.688,37.461 -86.616,51.521 -134.699,57.58 -19.891,2.506 -40.017,2.532 -60.026,3.798 -49.79,-3.31 -68.895,-1.74 -116.456,-15.645 -15.141,-4.427 -30.261,-9.692 -43.976,-17.486 -20.465,-11.629 -26.005,-21.557 -38.212,-38.062 -0.397,-0.983 0.993,-1.546 1.391,-0.562 v 0 c 17.176,19.842 5.647,10.852 38.816,21.618 14.003,4.545 27.764,9.929 42.026,13.584 51.461,13.188 57.864,11.153 111.918,15.112 19.275,-0.996 38.653,-0.772 57.827,-2.987 39.154,-4.524 77.039,-14.759 109.33,-37.994 9.69,-6.972 14.888,-13.391 22.392,-21.751 7.476,-12.836 25.63,-2.263 18.153,10.573 z" />
        <path
           style="opacity:1;fill:#ffffff;fill-opacity:1;stroke:none;stroke-width:15;stroke-linecap:round;stroke-linejoin:round;stroke-dasharray:none;stroke-opacity:1;paint-order:stroke fill markers"
           id="path21245"
           d="m 12631.39,16528.001 c -4.637,-0.438 -11.463,-1.322 -15.873,-0.47 -32.753,6.329 -56.913,33.705 -79.425,55.883 -26.057,26.027 -15.932,12.179 -31.813,40.455 -0.502,0.934 -1.823,0.224 -1.32,-0.711 v 0 c 11.424,-32.226 4.785,-15.067 20.404,-51.285 7.093,-8.967 13.345,-18.669 21.278,-26.901 17.264,-17.912 41.955,-35.233 66.891,-40.149 8.833,-1.741 12.908,-0.168 20.814,1.593 15.263,0.676 14.307,22.26 -0.956,21.585 z" />
      </g>
    </g>
    <circle
       style="fill:#db1111;fill-opacity:1;stroke-width:1.71516;stroke-linecap:round;stroke-linejoin:round;paint-order:stroke fill markers"
       id="path1008"
       cx="1076.5621"
       cy="-1877.6809"
       r="8.3993406"
       transform="scale(1,-1)" />
  </g>
</svg>
