<?xml version="1.0" encoding="UTF-8" standalone="no"?>
<!-- Created with Inkscape (http://www.inkscape.org/) -->

<svg
   version="1.1"
   id="svg2"
   width="1088.4152"
   height="746.11859"
   viewBox="0 0 1088.4152 746.11858"
   sodipodi:docname="serena_asset_4.svg"
   inkscape:version="1.2.2 (b0a8486541, 2022-12-01)"
   xmlns:inkscape="http://www.inkscape.org/namespaces/inkscape"
   xmlns:sodipodi="http://sodipodi.sourceforge.net/DTD/sodipodi-0.dtd"
   xmlns="http://www.w3.org/2000/svg"
   xmlns:svg="http://www.w3.org/2000/svg">
  <defs
     id="defs6" />
  <sodipodi:namedview
     id="namedview4"
     pagecolor="#ffffff"
     bordercolor="#000000"
     borderopacity="0.25"
     inkscape:showpageshadow="2"
     inkscape:pageopacity="0.0"
     inkscape:pagecheckerboard="0"
     inkscape:deskcolor="#d1d1d1"
     showgrid="false"
     inkscape:zoom="0.39756588"
     inkscape:cx="201.22451"
     inkscape:cy="65.397966"
     inkscape:window-width="1920"
     inkscape:window-height="1011"
     inkscape:window-x="0"
     inkscape:window-y="32"
     inkscape:window-maximized="1"
     inkscape:current-layer="g12" />
  <g
     id="g10"
     inkscape:groupmode="layer"
     inkscape:label="Page 1"
     transform="matrix(1.3333333,0,0,-1.3333333,-1393.5216,2460.7319)">
    <g
       id="g12"
       transform="matrix(0.1,0,0,0.1,0,1.4648438e-6)">
      <path
         d="m 10553.238,13849.7 c -60.1,-31.3 -130,-98.7 -90.1,-153.4 18.7,-25.6 53.6,-32 85.1,-35.7 113.8,-13.4 228.7,-17.9 343.3,-13.4 -42.2,3.5 -56.8,-64.3 -26.2,-93.6 30.5,-29.3 78.3,-28.5 120.5,-25 302.2,25.2 598.8,94.5 894.1,163.5 197.2,46.1 394.3,92.3 591.4,138.4 -422.5,-147 -1167.4,-410.9 -826.9,-517.9 210.7,-71.3 1591.1,773.2 2262.1,1164 240.2,139.9 495.2,275.3 660.1,499.1 164.9,223.7 206.3,567.9 10.7,765.3 -216.5,218.3 -624.5,200.2 -897.2,124.5 -232.8,-64.5 -310.9,-225.2 -467.9,-388.8 -450.4,-469.6 -1072.7,-801.5 -1641.4,-1103.1 -337.1,-178.7 -679.3,-347.5 -1017.6,-523.9"
         style="fill:#000000;fill-opacity:1;fill-rule:nonzero;stroke:none"
         id="path824"
         inkscape:export-filename="serena_asset_4.png"
         inkscape:export-xdpi="96"
         inkscape:export-ydpi="96" />
      <path
         d="m 16602.838,16875.8 c 656.9,277.6 1282.4,652.4 1750.8,1176.4 70.6,78.9 146,166.2 251.8,186.8 10.6,-95.9 -15.9,-195.3 -73.1,-274.4 27.3,4.9 54.7,9.8 82,14.8 4.2,-144.6 -62.7,-283.2 -148.2,-402 -85.6,-118.8 -190.5,-223.6 -277.5,-341.5 52,55.2 127.1,89.5 204.3,93.5 -54.6,-208.8 -167.2,-403.3 -322.9,-557.6 34.9,18.4 69.8,36.8 104.7,55.1 19.7,-10.7 13.5,-39.2 4.3,-59.1 -154.8,-334 -435.6,-597.3 -726.8,-831.7 -614.1,-494.4 -1313.3,-903.8 -2082.1,-1116.8 -145.9,-40.4 -308.9,-72.3 -444.4,-6.1 -132.9,65 -205.5,214.3 -207.8,358.1 -2.3,143.8 55.1,282.5 127,408.5 196.8,344.6 501.3,615.1 821.2,852.4 134.3,99.5 278.4,226.8 437.6,286.9 163.3,61.5 336.2,87.9 499.1,156.7"
         style="fill:#000000;fill-opacity:1;fill-rule:nonzero;stroke:none"
         id="path828" />
      <path
         d="m 13518.338,13565.4 c -4.9,-5 -10,-10.4 -11.1,-17.3 -1,-5.5 0.9,-11.2 2.8,-16.5 66.5,-190.6 177,-372.7 179.9,-574.6 0.6,-42.1 -15.9,-96.7 -58,-97.4 15.2,63.4 4.4,130 -10,193.6 -73.1,322.1 -241.4,621.9 -478.1,852.2 28.9,5.2 54.5,-18 74.9,-39.3 80.1,-83.8 160.1,-167.6 240.2,-251.4 4,-4.2 8.4,-8.6 14,-10 9.2,-2.1 17.9,4.3 25,10.5 208.3,180.6 565.1,707.9 735.4,914.3 62.4,-137.8 -280.5,-463.6 -363.1,-566.4 -111,-138.1 -227.8,-271.2 -351.9,-397.7"
         style="fill:#322e2b;fill-opacity:1;fill-rule:nonzero;stroke:none"
         id="path830" />
      <path
         d="m 13711.638,13217.8 c 41.6,-85.5 79.5,-174.4 91.4,-268.7 1.4,-10.6 0.7,-24.2 -9.2,-28.2 -7.6,-3 -16.4,2.3 -20.4,9.4 -3.9,7.2 -4.3,15.7 -5.1,23.8 -4.5,47.8 -23,110 -43.9,153.1 -30.7,63.1 -98.1,197 -132.2,258.2 -56.7,104.2 -99.6,118.1 -144.2,227.3 43.1,17.2 122.7,-126.4 143.1,-157.9 45.1,-69.5 84.4,-142.5 120.5,-217"
         style="fill:#322e2b;fill-opacity:1;fill-rule:nonzero;stroke:none"
         id="path832" />
      <path
         d="m 13465.938,13287.9 c -9.2,-90.1 -35.3,-179.7 -85.9,-254.7 -15.4,3.9 -12.4,26.4 -6.4,41.1 61.2,148 76.6,314.5 43.5,471.2 -5.6,26.4 -12.5,52.8 -11.5,79.8 -0.3,-7.6 50.1,-42.1 54.5,-60 5.9,-24.5 2.8,-57 5,-82.5 5.6,-64.8 7.4,-130.1 0.8,-194.9"
         style="fill:#322e2b;fill-opacity:1;fill-rule:nonzero;stroke:none"
         id="path834" />
      <path
         d="m 14057.038,13705.3 c -4.9,-5 -10,-10.4 -11.1,-17.2 -1,-5.6 0.9,-11.2 2.7,-16.6 66.6,-190.6 177,-372.7 180,-574.6 0.6,-42.1 -15.9,-96.7 -58,-97.4 15.2,63.4 4.4,130 -10,193.6 -73.1,322.1 -241.4,622 -478.2,852.2 29,5.2 54.6,-17.9 75,-39.2 80,-83.8 160.1,-167.7 240.2,-251.5 4,-4.2 8.4,-8.6 14,-9.9 9.2,-2.2 17.9,4.3 25,10.4 208.3,180.7 565.1,708 735.4,914.4 62.4,-137.9 -280.5,-463.7 -363.1,-566.5 -111,-138.1 -227.8,-271.2 -351.9,-397.7"
         style="fill:#322e2b;fill-opacity:1;fill-rule:nonzero;stroke:none"
         id="path836" />
      <path
         d="m 14250.338,13357.8 c 41.6,-85.5 79.5,-174.5 91.4,-268.8 1.4,-10.6 0.7,-24.2 -9.2,-28.2 -7.6,-3 -16.4,2.3 -20.4,9.5 -3.9,7.1 -4.3,15.6 -5.1,23.7 -4.5,47.8 -23,110.1 -44,153.2 -30.6,63 -98,196.9 -132.1,258.1 -56.7,104.3 -99.6,118.2 -144.2,227.4 43.1,17.1 122.7,-126.5 143.1,-157.9 45.1,-69.5 84.4,-142.6 120.5,-217"
         style="fill:#322e2b;fill-opacity:1;fill-rule:nonzero;stroke:none"
         id="path838" />
      <path
         d="m 14004.638,13427.8 c -9.2,-90 -35.3,-179.6 -85.9,-254.7 -15.4,3.9 -12.4,26.5 -6.4,41.1 61.2,148 76.5,314.6 43.5,471.3 -5.6,26.3 -12.5,52.8 -11.5,79.7 -0.3,-7.6 50.1,-42.1 54.4,-60 6,-24.4 2.9,-56.9 5.1,-82.5 5.6,-64.8 7.4,-130.1 0.8,-194.9"
         style="fill:#322e2b;fill-opacity:1;fill-rule:nonzero;stroke:none"
         id="path840" />
      <path
         d="m 15133.238,17048.3 c -554.8,-148.9 -1043.9,-482.2 -1472.2,-865 -265,-236.9 199.104,-521.626 8.104,-821.426 -298.203,-292.289 -684.857,-1031.269 -398.004,-1160.774 264.6,-106.3 561.3,-97.8 843.4,-56.9 484.6,70.2 953.6,230.7 1392.7,447.2 386.9,190.8 765.2,438.6 987.4,808.3 222.3,369.7 247.6,884.9 -37.2,1208.8 -204,232 -518.6,326.1 -815.3,412.1 -179.4,52.1 -323.8,77.2 -508.9,27.7"
         style="fill:#ffffff;fill-opacity:1;fill-rule:nonzero;stroke:#000000;stroke-width:30;stroke-linejoin:round;stroke-dasharray:none;stroke-opacity:1;paint-order:normal"
         id="path842"
         sodipodi:nodetypes="cccccccccc" />
      <path
         d="m 16808.538,17163.7 c 50.9,251.5 9.3,530.9 -155,728.2 -239.6,287.8 -674.4,332.5 -1036.9,238.4 -203.2,-52.8 -404.6,-147.8 -532.5,-314.3 -191.8,-249.5 -403.897,-706.913 -315.897,-1009.013 178.723,-189.872 541.057,-398.854 787.197,-463.087 249,-63.4 633.7,-87.9 856.6,74.8 207.1,151.2 348.3,507 396.5,745"
         style="fill:#ed333b;fill-opacity:1;fill-rule:nonzero;stroke:none"
         id="path844"
         sodipodi:nodetypes="cccccccc" />
      <path
         d="m 15046.238,17065.8 c 33.8,125.9 26.8,262.6 79.4,382 59.7,135.4 197.7,232.8 345.2,243.6 41.9,3 85.5,-0.7 122.9,-19.9 95.4,-49.2 116.2,-174 125.9,-280.9 9.5,-104.1 20.3,-211.5 70.5,-303.1 95.7,-174.3 309.7,-247.7 508,-262.8 119.5,-9.1 247.4,-0.2 345.4,68.6 104.7,73.5 156.1,201.8 183.7,326.6 33.2,150.4 39.9,306.5 19.5,459.1 -12.9,96.7 -37.5,194.3 -92.7,274.7 -45.7,66.6 -110.2,118.3 -179.3,160.1 -249.8,151.1 -559.1,177.4 -847.6,132.9 -219.8,-33.8 -440.6,-110.6 -600.8,-264.8 -165.4,-159.1 -250.5,-384.7 -297.5,-609.4 -21.3,-102 -36.3,-206.8 -79.7,-301.6 -82.1,-179.1 -253.1,-298.2 -416.4,-408.5 233.3,157.4 625.3,74.1 713.5,403.4"
         style="fill:#ed333b;fill-opacity:1;fill-rule:nonzero;stroke:none"
         id="path846" />
      <path
         d="m 14662.452,16934.73 c -671.8,-33.3 -1267.014,21.07 -1841.614,370.67 -458.2,279 -842.4,661.5 -1232.1,1030.1 -62.9,59.5 -135.9,122.7 -222.5,119.9 -17.5,-0.6 -35.8,-4.4 -48.8,-16 -28.6,-25.3 -18.9,-71.5 -5.6,-107.2 67.2,-180.6 166.4,-349.1 291.8,-495.4 -64.4,32.8 -130,63 -196.8,90.6 -30.8,12.8 -66.1,25 -96.6,11.4 -60.7,-26.8 -43.8,-116.9 -14.9,-176.6 108,-223.6 244.6,-433.4 405.4,-622.6 -106.9,24.7 -287.9,134 -325.9,41.3 -34.6,-75 24,-158.4 82.3,-216.9 121.8,-122.2 259.2,-228.6 408,-315.9 -207.7,-45.5 -635.5,42.7 -623,-136.4 49.2,-129.8 304.8,-262.3 495,-321.7 -61.6,-32.8 -136.6,-19.3 -205.7,-29.5 -69.1,-10.3 -144.9,-70.7 -121.8,-136.6 10.3,-29.3 37.3,-49 63.3,-65.8 149.6,-96.8 318.7,-163.3 494.2,-194.2 -42.8,-26.6 -85.5,-53.2 -128.3,-79.8 -15.1,-9.4 -31.4,-20.3 -36.1,-37.4 -5.6,-20.4 7.5,-41 21.2,-57.2 154.9,-183.3 429.7,-191 669.6,-184 -68.1,-50.8 -27.5,-170.7 50.5,-204.4 78,-33.6 167.5,-9.6 248.9,14.7 -16.5,-32.4 -28.9,-66.9 -36.9,-102.4 117.5,-24.2 239.4,-7.3 356.8,16.9 262.21,-49.181 926.749,320.249 1924.943,1479.361"
         style="display:inline;fill:#000000;fill-opacity:1;fill-rule:nonzero;stroke:none;stroke-width:30;stroke-dasharray:none;stroke-opacity:1"
         id="path850"
         sodipodi:nodetypes="ccccccccccccccccccccccccccccc" />
      <path
         d="m 15789.128,17664.708 c 5.809,-56.895 43.936,-110.103 99.042,-139.867 100.36,121.745 198.391,22.455 239.339,62.69 32.17,53.47 32.319,119.058 11.468,177.006 -9.085,25.155 -22.34,49.915 -43.34,68.748 -30.681,27.526 -76.106,40.169 -119.446,37.009 -110.361,-7.903 -197.041,-110.234 -187.063,-205.586"
         style="fill:#1d1d1e;fill-opacity:1;fill-rule:nonzero;stroke:none;stroke-width:1.40053"
         id="path854"
         sodipodi:nodetypes="ccccccc" />
      <path
         d="m 15878.338,17690.6 c -1.5,-18.4 2,-38.8 15.8,-51.2 13.8,-12.4 39.6,-11.3 47.6,5.5 7.8,16.2 -4.2,35.2 -2.1,53 1.7,14.5 12.4,26 18.8,39.1 6.3,13.1 6.3,32.5 -7,38.5 -42.5,19.3 -70.7,-56.6 -73.1,-84.9"
         style="fill:#ffffff;fill-opacity:1;fill-rule:nonzero;stroke:none"
         id="path856" />
      <path
         d="m 16465.026,17532.332 c 1.6,-37.8 3.4,-76.6 19.1,-110.9 34,-74.2 148.7,-215.6 207.1,-181 172.6,102.1 401.6,319.6 543.7,474.4 5.3,5.9 12,12.2 10.8,20.1 -1.5,9.8 -13.2,13.8 -23,15.7 -167.8,33.1 -673.4,16.9 -718.1,-21.4 -48.4,-41.4 -41.9,-140.9 -39.6,-196.9"
         style="fill:#322e2b;fill-opacity:1;fill-rule:nonzero;stroke:none"
         id="path858" />
      <path
         d="m 18175.438,17721.4 c 85.4,84.5 166.1,177.1 271.1,235.4 -20.5,-110.5 -82.6,-212.7 -171.2,-281.8 41.2,21.1 68,67.5 65.5,113.8 -318.4,-263.2 -640,-528.5 -1007.6,-717 155.2,79.8 295.5,176 422.9,294.6 134.4,125.2 288.4,225.4 419.3,355"
         style="fill:#ffffff;fill-opacity:1;fill-rule:nonzero;stroke:none"
         id="path910" />
      <ellipse
         style="fill:#db1111;fill-opacity:1;stroke:none;stroke-width:40.3598;stroke-linecap:round;stroke-linejoin:round;stroke-dasharray:none;stroke-opacity:1;paint-order:normal"
         id="path4720"
         cx="-15687.295"
         cy="-17445.404"
         transform="scale(-1)"
         rx="62.190083"
         ry="62.190086" />
      <path
         style="fill:#ffffff;fill-opacity:1;stroke:none;stroke-width:30;stroke-linecap:round;stroke-linejoin:round;stroke-dasharray:none;stroke-opacity:1;paint-order:normal"
         id="path11200"
         d="m 18108.194,17328.674 c -12.53,-42.53 -16.369,-61.608 -38.522,-104.241 -12.302,-23.674 -23.292,-48.928 -41.462,-68.464 -21.284,-22.883 -49.863,-37.686 -74.794,-56.529 -2.607,-5.96 -6.739,-4.152 -4.131,1.808 v 0 c 6.916,23.879 12.203,48.291 20.749,71.637 8.28,22.618 20.159,43.757 29.604,65.914 21.592,50.657 19.677,47.695 34.036,92.759 4.16,107.494 78.679,104.61 74.52,-2.884 z" />
      <path
         style="fill:#ffffff;fill-opacity:1;stroke:none;stroke-width:30;stroke-linecap:round;stroke-linejoin:round;stroke-dasharray:none;stroke-opacity:1;paint-order:normal"
         id="path11202"
         d="m 17631.319,17048.759 c -19.846,-59.797 -53.061,-114.934 -90.457,-165.36 -16.943,-22.846 -32.711,-47.289 -54.259,-65.855 -46.759,-40.29 -89.385,-54.907 -143.068,-77.998 -6.16,-2.09 -7.609,2.181 -1.449,4.271 v 0 c 17.273,13.726 36.821,24.997 51.818,41.178 15.847,17.098 25.906,38.783 39.707,57.572 15.815,21.531 33.416,41.718 49.108,63.339 34.043,46.906 65.326,96.247 89.966,148.784 8.554,84.58 67.189,78.649 58.634,-5.931 z" />
      <path
         style="fill:#ffffff;fill-opacity:1;stroke:none;stroke-width:30;stroke-linecap:round;stroke-linejoin:round;stroke-dasharray:none;stroke-opacity:1;paint-order:normal"
         id="path11204"
         d="m 17081.26,16845.586 c -29.19,-35.429 -21.362,-27.678 -64.295,-68.126 -12.501,-11.777 -25.016,-23.599 -38.459,-34.289 -25.562,-20.326 -49.671,-39.667 -84.378,-40.424 -13.967,-0.304 -27.119,6.733 -40.678,10.099 -6.504,-0.155 -6.611,4.354 -0.107,4.508 v 0 c 33.203,24.908 65.764,50.867 96.94,78.305 12.53,11.028 24.518,22.656 36.777,33.985 7.491,6.978 14.789,14.169 22.472,20.936 8.3,7.308 16.972,14.181 25.458,21.272 37.889,66.743 84.158,40.478 46.27,-26.266 z" />
      <path
         style="fill:#ffffff;fill-opacity:1;stroke:none;stroke-width:30;stroke-linecap:round;stroke-linejoin:round;stroke-dasharray:none;stroke-opacity:1;paint-order:normal"
         id="path11206"
         d="m 17816.769,16602.847 c -36.06,-57.093 -78.95,-121.685 -132.95,-163.146 -24.341,-18.689 -102.447,-58.493 -134.97,-75.534 -6.179,-2.035 -7.59,2.249 -1.411,4.283 v 0 c 17.755,11.483 37.91,19.914 53.265,34.45 17.492,16.558 29.096,38.392 43.819,57.453 40.301,52.172 81.727,103.617 115.436,160.495 25.966,81.949 82.777,63.948 56.811,-18.001 z" />
      <path
         style="fill:#ffffff;fill-opacity:1;stroke:none;stroke-width:30;stroke-linecap:round;stroke-linejoin:round;stroke-dasharray:none;stroke-opacity:1;paint-order:normal"
         id="path11208"
         d="m 17340.27,16310.348 c -39.123,-58.195 -85.329,-112.186 -136.619,-160.052 -39.19,-36.572 -77.823,-74.175 -130.493,-90.348 -15.99,-4.91 -33.336,-2.814 -50.004,-4.22 -6.382,-1.265 -7.259,3.159 -0.877,4.423 v 0 c 55.106,45.144 25.777,19.593 85.034,75.654 64.604,61.119 128.572,123.346 183.411,193.621 27.52,71.474 77.069,52.396 49.548,-19.078 z" />
      <path
         style="fill:#ffffff;fill-opacity:1;stroke:none;stroke-width:30;stroke-linecap:round;stroke-linejoin:round;stroke-dasharray:none;stroke-opacity:1;paint-order:normal"
         id="path11210"
         d="m 17053.273,16378.66 c -36.322,-39.683 -76.621,-76.169 -124.621,-101.456 -32.192,-16.959 -74.973,-34.868 -113.18,-28.744 -16.631,2.666 -30.557,14.182 -45.836,21.273 -6.319,1.546 -5.247,5.927 1.072,4.381 v 0 c 14.138,3.061 28.631,4.793 42.414,9.184 73.706,23.481 134.826,73.001 193.771,120.98 36.954,66.902 83.334,41.285 46.38,-25.618 z" />
      <path
         style="fill:#ffffff;fill-opacity:1;stroke:none;stroke-width:30;stroke-linecap:round;stroke-linejoin:round;stroke-dasharray:none;stroke-opacity:1;paint-order:normal"
         id="path11212"
         d="m 17402.976,16608.859 c -13.376,-13.57 -52.798,-54.577 -65.031,-61.367 -47.858,-9.776 -28.421,-0.254 -60.621,-23.267 -5.956,-2.616 -7.77,1.514 -1.814,4.13 v 0 c 6.862,5.37 15.683,8.908 20.585,16.112 8.72,12.814 11.237,29.051 19.197,42.351 1.899,3.173 40.411,44.702 41.179,45.536 33.891,67.085 80.396,43.59 46.505,-23.495 z" />
      <path
         style="fill:#ffffff;fill-opacity:1;stroke:none;stroke-width:30;stroke-linecap:round;stroke-linejoin:round;stroke-dasharray:none;stroke-opacity:1;paint-order:normal"
         id="path11214"
         d="m 16900.194,15758.169 c -41.76,-48.613 -84.647,-97.739 -134.142,-138.797 -13.805,-11.453 -28.03,-23.15 -44.497,-30.262 -10.64,-4.595 -23.034,-2.585 -34.552,-3.878 -6.044,-2.405 -7.712,1.785 -1.667,4.191 v 0 c 6.394,10.972 11.457,22.838 19.183,32.918 11.04,14.403 24.278,26.986 36.801,40.119 37.873,39.715 77.889,77.417 114.771,118.099 32.297,63.619 76.4,41.229 44.103,-22.39 z" />
      <path
         style="fill:#ffffff;fill-opacity:1;stroke:none;stroke-width:30;stroke-linecap:round;stroke-linejoin:round;stroke-dasharray:none;stroke-opacity:1;paint-order:normal"
         id="path11216"
         d="m 16893.873,16074.416 c -23.7,-46.463 -42.201,-92.817 -93.826,-114.964 -8.078,-3.465 -17.475,-1.904 -26.212,-2.856 -6.195,-1.985 -7.572,2.31 -1.376,4.295 v 0 c 41.425,56.824 -7.434,-13.178 24.278,41.069 5.758,9.848 13.169,18.644 19.263,28.287 5.077,8.034 27.02,46.351 32.796,56.393 17.632,65.023 62.709,52.8 45.077,-12.224 z" />
      <path
         style="fill:#ffffff;fill-opacity:1;stroke:none;stroke-width:30;stroke-linecap:round;stroke-linejoin:round;stroke-dasharray:none;stroke-opacity:1;paint-order:normal"
         id="path11232"
         d="m 11472.329,18277.354 c 26.089,-71.365 56.496,-141.3 95.643,-206.637 21.476,-35.845 47.288,-68.939 69.413,-104.388 88.48,-141.762 22.124,-76.918 137.295,-163.349 5.116,-4.019 2.33,-7.565 -2.786,-3.547 v 0 c -25.062,18.746 -50.012,37.642 -75.185,56.238 -35.204,26.005 -75.725,45.904 -105.944,77.564 -29.96,31.389 -49.506,71.359 -71.757,108.611 -40.584,67.944 -74.63,140.783 -96.848,216.824 -26.951,72.368 23.218,91.052 50.169,18.684 z" />
      <path
         style="fill:#ffffff;fill-opacity:1;stroke:none;stroke-width:30;stroke-linecap:round;stroke-linejoin:round;stroke-dasharray:none;stroke-opacity:1;paint-order:normal"
         id="path11248"
         d="m 11429.818,17839.22 c -1.857,-6.275 -5.724,-12.283 -5.572,-18.826 1.443,-62.096 54.081,-147.162 84.023,-195.795 48.189,-78.273 88.585,-131.275 142.499,-205.96 55.724,-70.955 79.007,-103.677 136.993,-167.343 11.141,-12.232 23.235,-23.567 35.214,-34.979 0.349,-0.333 0.428,1.63 -0.02,1.449 -43.215,-17.42 -31.119,-29.163 -43.93,3.306 -13.507,18.754 -4.676,14.725 -24.423,15.858 -6.503,-0.158 -6.613,4.351 -0.109,4.508 v 0 c 30.304,10.155 13.655,8.416 50.207,1.13 29.247,-25.172 52.124,-30.195 2.586,-77.488 -6.581,-6.283 -18.801,1.769 -26.473,6.662 -15.429,9.84 -28.315,23.309 -41.08,36.422 -58.291,59.884 -88.69,102.668 -141.981,170.275 -56.884,79.635 -94.83,128.782 -144.018,213.297 -39.068,67.127 -86.164,152.989 -84.969,233.994 0.155,10.503 5.172,20.362 7.758,30.543 24.599,76.879 77.894,59.826 53.296,-17.053 z" />
      <path
         style="fill:#ffffff;fill-opacity:1;stroke:none;stroke-width:30;stroke-linecap:round;stroke-linejoin:round;stroke-dasharray:none;stroke-opacity:1;paint-order:normal"
         id="path11250"
         d="m 11538.585,17130.579 c 4.82,-7.805 9.165,-15.925 14.459,-23.417 58.176,-82.329 135.284,-152.106 199.588,-229.632 16.029,-19.325 30.458,-39.924 45.686,-59.886 10.357,-14.267 20.714,-28.534 31.07,-42.8 4.776,-4.417 1.714,-7.728 -3.062,-3.312 v 0 c -15.58,9.364 -31.161,18.727 -46.742,28.09 -19.38,16.281 -39.778,31.422 -58.14,48.844 -21.14,20.058 -40.369,42.042 -60.177,63.417 -57.958,62.541 -116.856,126.218 -161.391,199.312 -27.962,55.838 10.747,75.223 38.709,19.384 z" />
      <path
         style="fill:#ffffff;fill-opacity:1;stroke:none;stroke-width:30;stroke-linecap:round;stroke-linejoin:round;stroke-dasharray:none;stroke-opacity:1;paint-order:normal"
         id="path11254"
         d="m 11610.652,16531.036 c -92.401,0.601 -184.782,2.651 -277.188,0.961 31.834,35.899 -44.5,-15.22 -35.668,-6.933 5.851,5.49 14.703,7.541 19.718,13.803 2.964,3.701 -2.196,13.944 2.545,13.994 9.09,0.1 15.626,-9.301 23.573,-13.716 14.519,-8.066 29.211,-15.815 43.817,-23.722 144.344,-78.037 307.621,-111.426 452.447,-188.494 22.203,-11.816 42.467,-26.962 63.7,-40.443 32.846,-49.192 34.788,-26.046 -1.437,-69.666 -2.497,-6.007 -6.662,-4.275 -4.164,1.731 v 0 c -13.526,1.402 -2.621,-0.389 -26.742,19.594 -19.869,11.854 -39.021,25.001 -59.607,35.561 -62.265,31.943 -133.193,58.703 -197.525,85.183 -85.421,35.161 -171.249,69.917 -253.319,112.53 -15.142,8.29 -30.477,16.238 -45.426,24.87 -15.095,8.716 -49.909,25.729 -47.832,50.298 2.719,32.156 51.598,30.642 71.016,33.054 93.098,2.524 186.437,1.389 279.427,-3.483 65.088,-10.581 57.753,-55.703 -7.335,-45.122 z" />
      <path
         style="fill:#ffffff;fill-opacity:1;stroke:none;stroke-width:30;stroke-linecap:round;stroke-linejoin:round;stroke-dasharray:none;stroke-opacity:1;paint-order:normal"
         id="path11256"
         d="m 11721.058,16122.923 c -24.052,-11.229 -72.3,-29.091 -83.342,-54.403 -1.572,-3.604 -3.276,-7.672 -2.504,-11.528 0.544,-2.721 3.981,-3.867 5.972,-5.8 8.258,-3.724 16.633,-7.195 24.773,-11.17 15.045,-7.348 29.666,-15.549 44.762,-22.79 38.126,-18.286 88.422,-40.442 127.53,-55.617 103.126,-40.018 20.085,-3.052 95.559,-37.851 11.219,-17.656 14.843,-17.312 0.547,-10.907 -4.265,4.912 -0.86,7.869 3.405,2.957 v 0 c 8.264,-20.72 8.562,-9.802 -16.665,-28.215 -15.082,1.436 -30.553,0.617 -45.247,4.308 -28.541,7.168 -105.609,40.943 -129.661,52.577 -23.038,11.142 -83.859,43.606 -106.89,61.289 -10.652,8.179 -19.062,18.923 -28.594,28.384 -3.265,8.755 -9.336,16.931 -9.798,26.264 -1.12,22.638 18.194,36.947 33.404,49.001 24.098,19.099 53.457,30.939 81.339,43.083 42.672,7.803 48.081,-21.779 5.41,-29.582 z" />
      <path
         style="fill:#ffffff;fill-opacity:1;stroke:none;stroke-width:30;stroke-linecap:round;stroke-linejoin:round;stroke-dasharray:none;stroke-opacity:1;paint-order:normal"
         id="path11258"
         d="m 12032.936,15709.245 c -16.125,-11.294 -38.679,-33.587 -34.733,-55.738 3.531,-19.829 21.609,-35.147 33.621,-48.806 11.883,-7.092 22.825,-16.076 35.649,-21.274 26.327,-10.673 55.016,-13.025 82.976,-10.181 10.804,1.099 21.412,3.96 31.763,7.243 28.346,8.992 10.87,11.996 29.235,6.587 3.042,0.64 6.084,1.28 9.126,1.92 0.471,6.488 4.969,6.162 4.498,-0.326 v 0 c 1.862,-4.275 3.724,-8.549 5.586,-12.824 -5.387,-9.382 -8.44,-20.567 -16.161,-28.146 -16.704,-16.397 -50.87,-24.36 -72.143,-25.479 -37.229,-1.959 -69.201,4.893 -102.371,22.229 -15.651,8.179 -28.83,20.403 -43.244,30.604 -22.62,29.199 -38.702,40.905 -42.593,79.131 -4.279,42.036 37.171,78.344 69.061,97.244 60.85,14.037 70.581,-28.148 9.73,-42.184 z" />
      <path
         style="fill:#ffffff;fill-opacity:1;stroke:none;stroke-width:30;stroke-linecap:round;stroke-linejoin:round;stroke-dasharray:none;stroke-opacity:1;paint-order:normal"
         id="path11260"
         d="m 12612.434,15425.741 c -1.987,-61.392 0.462,-119.005 44.638,-166.913 11.496,-12.468 24.198,-24.32 38.868,-32.827 15.131,-8.774 32.799,-12.161 49.198,-18.242 6.213,-1.929 4.876,-6.236 -1.337,-4.307 v 0 c -44.996,3.598 -81.144,0.311 -120.147,30.171 -15.563,11.915 -25.694,30.101 -34.519,47.602 -21.993,43.613 -21.418,93.574 -20.5,140.838 -5.305,63.179 38.493,66.857 43.799,3.678 z" />
      <path
         style="fill:#ffffff;fill-opacity:1;stroke:none;stroke-width:30;stroke-linecap:round;stroke-linejoin:round;stroke-dasharray:none;stroke-opacity:1;paint-order:normal"
         id="path11262"
         d="m 12015.114,17874.635 c 22.33,-95.63 58.755,-187.997 100.168,-276.841 20.151,-43.232 40.875,-86.272 64.122,-127.921 22.988,-41.185 49.628,-80.221 74.442,-120.332 88.52,-111.266 42.483,-66.155 132.536,-140.795 5.562,-3.374 3.224,-7.23 -2.339,-3.856 v 0 c -123.657,42.58 -63.656,8.104 -172.081,116.13 -26.219,40.911 -54.648,80.486 -78.656,122.731 -24.003,42.237 -44.606,86.348 -65.175,130.36 -17.538,37.524 -33.327,75.85 -49.099,114.149 -22.428,54.461 -43.295,109.663 -57.976,166.771 -28.278,77.978 25.779,97.581 54.058,19.604 z" />
      <path
         style="fill:#ffffff;fill-opacity:1;stroke:none;stroke-width:30;stroke-linecap:round;stroke-linejoin:round;stroke-dasharray:none;stroke-opacity:1;paint-order:normal"
         id="path11264"
         d="m 12033.293,17179.699 c 12.941,-13.852 26.359,-27.274 38.822,-41.557 93.741,-107.432 39.328,-53.982 150.211,-173.199 121.436,-130.564 74.245,-74.127 192.208,-193.562 19.994,-20.243 38.93,-41.506 58.395,-62.259 5.206,-3.901 2.503,-7.51 -2.704,-3.61 v 0 c -27.303,12.335 -56.814,20.638 -81.909,37.004 -36.536,23.829 -69.311,53.159 -101.491,82.607 -77.438,70.864 -122.616,125.48 -187.882,205.634 -20.988,25.775 -41.613,51.86 -61.526,78.475 -11.149,14.901 -21.078,30.678 -31.617,46.017 -35.269,39.658 -7.776,64.108 27.493,24.45 z" />
      <path
         style="fill:#ffffff;fill-opacity:1;stroke:none;stroke-width:30;stroke-linecap:round;stroke-linejoin:round;stroke-dasharray:none;stroke-opacity:1;paint-order:normal"
         id="path11266"
         d="m 12253.285,16392.332 c 90.931,-90.322 36.415,-36.231 136.777,-135.645 23.878,-23.652 49.649,-45.536 71.628,-70.962 18.619,-21.538 33.16,-46.29 49.739,-69.435 4.998,-4.165 2.111,-7.63 -2.887,-3.465 v 0 c -27.284,12.137 -57.044,19.79 -81.853,36.411 -28.273,18.941 -50.873,45.246 -75.342,68.899 -30.064,29.062 -102.64,105.39 -134.236,138.399 -51.639,52.181 -15.465,87.979 36.174,35.798 z" />
      <path
         style="fill:#ffffff;fill-opacity:1;stroke:none;stroke-width:30;stroke-linecap:round;stroke-linejoin:round;stroke-dasharray:none;stroke-opacity:1;paint-order:normal"
         id="path11268"
         d="m 12705.193,17174.694 c 93.589,-48.385 178.387,-114.794 248.11,-193.934 19.034,-21.603 40.69,-42.365 52.394,-68.67 10.562,-23.737 8.266,-51.299 12.399,-76.949 -0.742,-17.618 -1.485,-35.236 -2.227,-52.854 1.044,-6.421 -3.407,-7.145 -4.452,-0.724 v 0 c -2.152,15.615 -4.305,31.231 -6.458,46.847 -14.23,16.13 -28.897,31.885 -42.689,48.391 -17.19,20.572 -32.297,42.885 -50.23,62.813 -57.271,63.637 -123.961,120.874 -192.429,172.135 -12.313,9.218 -25.477,17.24 -38.215,25.86 -53.494,34.326 -29.698,71.411 23.797,37.085 z" />
      <path
         style="fill:#ffffff;fill-opacity:1;stroke:none;stroke-width:30;stroke-linecap:round;stroke-linejoin:round;stroke-dasharray:none;stroke-opacity:1;paint-order:normal"
         id="path11272"
         d="m 13456.132,16936.642 c 14.184,-1.251 28.527,-1.301 42.554,-3.755 46.076,-8.063 89.33,-21.073 131.026,-43.066 23.6,-12.448 48.077,-24.942 67.093,-43.661 20.758,-20.434 38.218,-45.018 50.038,-71.641 12.051,-27.144 13.523,-57.838 20.285,-86.757 3.057,-5.742 -0.924,-7.861 -3.981,-2.119 v 0 c -15.885,20.104 -29.833,41.904 -47.654,60.313 -71.866,74.236 -172.426,110.576 -271.169,131.263 -85.718,17.032 -73.911,76.456 11.808,59.423 z" />
      <path
         style="fill:#ffffff;fill-opacity:1;stroke:none;stroke-width:30;stroke-linecap:round;stroke-linejoin:round;stroke-dasharray:none;stroke-opacity:1;paint-order:normal"
         id="path11274"
         d="m 14142.527,16794.794 c 55.966,-23.603 64.561,-24.487 119.555,-61.248 22.022,-14.72 45.258,-28.594 63.433,-47.864 31.572,-33.474 40.798,-65.954 56.453,-106.082 3.645,-5.388 -0.09,-7.915 -3.736,-2.527 v 0 c -51.531,53.471 -9.087,15.07 -86.227,64.622 -20.939,13.451 -40.449,29.055 -61.49,42.345 -40.042,25.294 -67.77,38.682 -108.261,59.544 -73.87,29.243 -53.598,80.453 20.273,51.21 z" />
      <path
         style="fill:#ffffff;fill-opacity:1;stroke:none;stroke-width:30;stroke-linecap:round;stroke-linejoin:round;stroke-dasharray:none;stroke-opacity:1;paint-order:normal"
         id="path11276"
         d="m 13682.879,16472.954 c 38.798,-11.04 80.91,-20.519 114.81,-43.737 41.349,-28.32 73.792,-65.032 97.301,-109.47 12.795,-24.185 19.551,-51.11 29.327,-76.665 2.365,-93.637 0.92,-50.992 3.975,-127.948 1.043,-6.421 -3.408,-7.145 -4.452,-0.724 v 0 c -3.271,73.091 6.066,35.882 -35.692,109.414 -24.747,44.38 -41.547,80.643 -75.712,118.668 -12.499,13.911 -26.798,26.388 -42.283,36.872 -33.521,22.696 -75.334,29.688 -110.379,49.359 -63.802,33.33 -40.697,77.56 23.105,44.231 z" />
      <path
         style="fill:#ffffff;fill-opacity:1;stroke:none;stroke-width:30;stroke-linecap:round;stroke-linejoin:round;stroke-dasharray:none;stroke-opacity:1;paint-order:normal"
         id="path11278"
         d="m 13260.104,16187.295 c 44.079,-57.16 92.961,-128.144 105.54,-200.497 7.996,-45.995 0.838,-89.49 -3.812,-134.907 1.137,-6.405 -3.303,-7.193 -4.44,-0.788 v 0 c -19.087,79.149 -4.639,32.159 -38.84,114.716 -8.383,20.235 -15.608,40.959 -24.609,60.928 -20.368,45.19 -45.736,88.19 -74.136,128.749 -45.871,58.129 -5.573,89.928 40.297,31.799 z" />
      <path
         style="fill:#ffffff;fill-opacity:1;stroke:none;stroke-width:30;stroke-linecap:round;stroke-linejoin:round;stroke-dasharray:none;stroke-opacity:1;paint-order:normal"
         id="path11280"
         d="m 12965.996,15978.676 c 15.615,-10.634 32.336,-19.801 46.844,-31.901 47.246,-39.405 88.692,-85.349 122.312,-137.003 32.669,-50.192 66.727,-114.88 70.286,-177.003 1.235,-21.553 -8.702,-42.29 -13.053,-63.435 1.323,-6.369 -3.092,-7.287 -4.416,-0.917 v 0 c -7.83,15.651 -16.046,31.116 -23.492,46.953 -30.446,64.758 -37.637,92.429 -78.629,154.644 -41.162,62.47 -93.759,115.533 -148.557,165.84 -61.771,41.406 -33.066,84.229 28.705,42.822 z" />
      <path
         style="fill:#ffffff;fill-opacity:1;stroke:none;stroke-width:30;stroke-linecap:round;stroke-linejoin:round;stroke-dasharray:none;stroke-opacity:1;paint-order:normal"
         id="path11282"
         d="m 12993.598,16596.647 c 22.662,-46.147 38.692,-73.404 50.473,-127.18 6.345,-28.969 5.684,-59.066 10.087,-88.392 3.307,-22.024 8.683,-43.687 13.025,-65.531 2.214,-6.117 -2.026,-7.652 -4.241,-1.535 v 0 c -7.129,20.604 -11.914,42.175 -21.389,61.811 -12.163,25.209 -30.075,47.285 -43.184,72.016 -20.188,38.086 -33.952,79.346 -55.146,116.971 -45.93,72.666 4.445,104.506 50.375,31.84 z" />
      <path
         style="fill:#ffffff;fill-opacity:1;stroke:none;stroke-width:30;stroke-linecap:round;stroke-linejoin:round;stroke-dasharray:none;stroke-opacity:1;paint-order:normal"
         id="path11284"
         d="m 13473.817,16607.838 c 28.001,-52.447 49.454,-89.092 70.788,-146.663 11.505,-31.046 23.254,-62.408 28.871,-95.037 5.018,-29.144 1.839,-59.117 2.758,-88.675 2.207,-6.12 -2.035,-7.65 -4.242,-1.53 v 0 c -13.393,23.709 -27.862,46.841 -40.179,71.126 -38.122,75.159 -66.134,155.205 -107.497,228.796 -46.134,71.405 3.366,103.387 49.501,31.983 z" />
      <path
         style="fill:#ffffff;fill-opacity:1;stroke:none;stroke-width:30;stroke-linecap:round;stroke-linejoin:round;stroke-dasharray:none;stroke-opacity:1;paint-order:normal"
         id="path11286"
         d="m 12668.087,16509.733 c 34.37,-58.246 43.769,-124.538 54.9,-189.915 2.548,-5.986 -1.602,-7.752 -4.15,-1.766 v 0 c -10.472,19.208 -20.113,38.892 -31.418,57.622 -100.894,167.161 15.914,-39.111 -64.757,105.316 -41.461,65.527 3.964,94.269 45.425,28.743 z" />
      <path
         style="fill:#ffffff;fill-opacity:1;stroke:none;stroke-width:30;stroke-linecap:round;stroke-linejoin:round;stroke-dasharray:none;stroke-opacity:1;paint-order:normal"
         id="path11288"
         d="m 12355.029,16025.915 c 26.265,-32.392 54.769,-65.014 74.881,-101.832 11.095,-20.309 18.134,-42.584 27.201,-63.877 4.135,-5.022 0.654,-7.889 -3.481,-2.866 v 0 c -18.251,13.161 -37.363,25.205 -54.754,39.483 -31.662,25.994 -61.429,58.162 -89.965,87.629 -59.811,66.525 -13.693,107.988 46.118,41.463 z" />
      <path
         style="fill:#ffffff;fill-opacity:1;stroke:none;stroke-width:30;stroke-linecap:round;stroke-linejoin:round;stroke-dasharray:none;stroke-opacity:1;paint-order:normal"
         id="path11290"
         d="m 12671.589,15712.285 c 49.116,-31.776 90.896,-73.464 122.226,-123.149 13.192,-20.92 25.873,-42.645 33.681,-66.113 15.735,-47.297 10.192,-67.822 6.264,-112.693 1.537,-6.322 -2.846,-7.387 -4.382,-1.065 v 0 c -23.551,56.547 -6.75,22.959 -47.616,84.885 -12.176,18.45 -23.18,37.697 -36.14,55.605 -30.582,42.258 -66.244,79.277 -107.226,111.453 -73.68,47.88 -40.487,98.958 33.193,51.077 z" />
      <path
         style="fill:#ffffff;fill-opacity:1;stroke:none;stroke-width:30;stroke-linecap:round;stroke-linejoin:round;stroke-dasharray:none;stroke-opacity:1;paint-order:normal"
         id="path11292"
         d="m 12480.583,14678.946 c -8.2,-11.29 -15.579,-23.226 -24.6,-33.871 -100.655,-118.777 -231.48,-206.382 -356.633,-296.667 -5.781,-2.983 -7.849,1.024 -2.068,4.008 v 0 c 31.15,32.397 62.501,64.603 93.452,97.19 32.824,34.56 64.831,69.894 97.871,104.247 46.803,48.665 95.882,95.127 143.081,143.406 26.416,70.534 75.313,52.222 48.897,-18.313 z" />
      <path
         style="fill:#ffffff;fill-opacity:1;stroke:none;stroke-width:30;stroke-linecap:round;stroke-linejoin:round;stroke-dasharray:none;stroke-opacity:1;paint-order:normal"
         id="path11294"
         d="m 12526.045,14298.511 c -80.148,-106.474 -169.025,-207.586 -266.671,-298.442 -83.02,-77.247 -141,-118.897 -227.215,-184.722 -5.801,-2.943 -7.842,1.079 -2.04,4.022 v 0 c 29.561,28.312 60.373,55.372 88.683,84.935 35.934,37.524 69.219,77.498 103.905,116.179 87.333,97.392 177.655,192.777 256.861,297.086 27.491,67.042 73.967,47.984 46.477,-19.058 z" />
      <path
         style="fill:#ffffff;fill-opacity:1;stroke:none;stroke-width:30;stroke-linecap:round;stroke-linejoin:round;stroke-dasharray:none;stroke-opacity:1;paint-order:normal"
         id="path11296"
         d="m 11774.985,14044.23 c -65.13,-21.311 -130.706,-41.278 -196.144,-61.626 -32.583,-10.132 -64.797,-21.569 -97.802,-30.228 -34.51,-9.054 -69.709,-15.244 -104.564,-22.866 -6.409,-1.116 -7.183,3.327 -0.774,4.443 v 0 c 33.473,17.701 65.754,37.868 100.419,53.103 31.59,13.884 65.004,23.201 97.776,34.005 65.084,21.457 131.053,40.603 197.391,57.779 49.925,5.335 53.623,-29.275 3.698,-34.61 z" />
      <path
         style="fill:#ffffff;fill-opacity:1;stroke:none;stroke-width:30;stroke-linecap:round;stroke-linejoin:round;stroke-dasharray:none;stroke-opacity:1;paint-order:normal"
         id="path11298"
         d="m 11076.505,13989.437 c -48.576,-28.637 -101.049,-49.678 -152.805,-71.665 -6.246,-1.822 -7.509,2.508 -1.263,4.329 v 0 c 47.702,30.631 95.992,60.741 139.539,97.262 43.167,20.957 57.696,-8.968 14.529,-29.926 z" />
      <path
         style="fill:#ffffff;fill-opacity:1;stroke:none;stroke-width:30;stroke-linecap:round;stroke-linejoin:round;stroke-dasharray:none;stroke-opacity:1;paint-order:normal"
         id="path11300"
         d="m 11191.049,13750.634 c -42.25,-18.782 -19.365,-8.891 -68.759,-29.432 -6.164,-2.08 -7.605,2.194 -1.441,4.273 v 0 c 42.96,34.448 24.616,16.559 56.307,52.326 39.188,20.04 53.081,-7.126 13.893,-27.167 z" />
      <path
         style="fill:#ffffff;fill-opacity:1;stroke:none;stroke-width:30;stroke-linecap:round;stroke-linejoin:round;stroke-dasharray:none;stroke-opacity:1;paint-order:normal"
         id="path11302"
         d="m 12967.851,14563.883 c -19.664,-33.554 -32.872,-59.377 -60.163,-89.189 -16.326,-17.836 -36.295,-32.001 -53.444,-49.047 -14.108,-14.023 -26.825,-29.378 -40.237,-44.067 -2.605,-5.962 -6.738,-4.156 -4.133,1.806 v 0 c 101.052,170.41 -48.565,-86.13 55.625,108.331 15.665,29.238 37.601,54.783 53.313,84.023 17.102,70.739 66.142,58.882 49.039,-11.857 z" />
      <path
         style="fill:#ffffff;fill-opacity:1;stroke:none;stroke-width:30;stroke-linecap:round;stroke-linejoin:round;stroke-dasharray:none;stroke-opacity:1;paint-order:normal"
         id="path11304"
         d="m 12848.85,14107.685 c -33.431,-28.58 -67.018,-58.839 -104.421,-82.162 -26.627,-16.604 -54.78,-30.739 -83.192,-44.059 -25.498,-11.954 -52.217,-21.109 -78.325,-31.663 -6.22,-1.906 -7.541,2.406 -1.321,4.312 v 0 c 23.625,16.844 47.724,33.043 70.877,50.532 25.326,19.129 49.697,39.49 74.506,59.285 72.108,57.532 43.524,33.564 99.657,82.441 55.805,32.051 78.024,-6.635 22.219,-38.686 z" />
      <path
         style="fill:#dfdfdf;fill-opacity:1;stroke:none;stroke-width:30;stroke-linecap:round;stroke-linejoin:round;stroke-dasharray:none;stroke-opacity:1;paint-order:normal"
         id="path13223"
         d="m 16513.79,16339.443 c -0.679,-35.362 -0.05,-52.125 -6.45,-90.498 -4.17,-25.016 -5.51,-51.29 -15.997,-74.381 -12.817,-28.222 -35.667,-50.72 -52.607,-76.678 -12.523,-19.19 -23.834,-39.144 -35.75,-58.716 -1.945,-6.208 -6.248,-4.86 -4.304,1.348 v 0 c 10.096,19.687 24.845,37.616 30.286,59.061 6.368,25.096 1.25,51.85 4.379,77.552 2.862,23.502 9.805,46.344 13.554,69.721 6.078,37.896 5.933,50.026 7.547,84.261 -12.016,85.602 47.326,93.932 59.342,8.33 z" />
      <path
         style="fill:#dfdfdf;fill-opacity:1;stroke:none;stroke-width:30;stroke-linecap:round;stroke-linejoin:round;stroke-dasharray:none;stroke-opacity:1;paint-order:normal"
         id="path13225"
         d="m 16345.411,16073.51 c 3.058,-57.012 2.547,-115.219 -5.294,-171.863 -4.417,-31.905 -8.857,-64.057 -18.057,-94.924 -9.092,-30.507 -21.693,-60.073 -36.533,-88.236 -11.462,-21.753 -27.957,-40.457 -41.935,-60.685 -1.64,-6.296 -6.004,-5.159 -4.365,1.136 v 0 c 6.061,20.951 13.407,41.571 18.183,62.851 6.367,28.374 10.397,57.224 15.199,85.904 5.063,30.236 10.626,60.414 14.394,90.84 6.945,56.082 7.955,112.722 11.525,169.054 -8.544,67.629 38.339,73.551 46.883,5.923 z" />
      <path
         style="fill:#dfdfdf;fill-opacity:1;stroke:none;stroke-width:30;stroke-linecap:round;stroke-linejoin:round;stroke-dasharray:none;stroke-opacity:1;paint-order:normal"
         id="path13227"
         d="m 16152.061,15705.187 c 1.454,-64.634 -0.876,-129.916 -13.752,-193.51 -10.563,-52.168 -22.826,-103.261 -60.883,-143.408 -11.949,-12.604 -30.006,-17.498 -45.009,-26.248 -5.669,-3.191 -7.881,0.739 -2.212,3.93 v 0 c 4.822,10.091 10.734,19.729 14.466,30.271 6.735,19.022 12.096,38.535 16.84,58.149 20.712,85.647 30.958,173.673 29.193,261.792 -13.017,88.507 48.34,97.531 61.357,9.024 z" />
      <path
         style="fill:#dfdfdf;fill-opacity:1;stroke:none;stroke-width:30;stroke-linecap:round;stroke-linejoin:round;stroke-dasharray:none;stroke-opacity:1;paint-order:normal"
         id="path13229"
         d="m 15966.372,15420.495 c 3.183,-64.95 -6.033,-130.617 -28.143,-192.009 -10.425,-28.946 -20.422,-59.045 -38.701,-83.79 -17.974,-24.331 -45.183,-40.233 -67.775,-60.349 -2.531,-5.993 -6.685,-4.239 -4.154,1.754 v 0 c 8.891,24.256 46.478,125.847 52.641,146.885 16.815,57.399 26.886,116.834 26.968,176.688 -15.609,85.343 43.554,96.164 59.164,10.821 z" />
      <path
         style="fill:#dfdfdf;fill-opacity:1;stroke:none;stroke-width:30;stroke-linecap:round;stroke-linejoin:round;stroke-dasharray:none;stroke-opacity:1;paint-order:normal"
         id="path13231"
         d="m 15704.289,15170.779 c -14.097,-53.571 -40.331,-102.587 -79.272,-142.706 -7.434,-7.659 -92.617,-75.399 -107.362,-87.185 -5.675,-3.18 -7.879,0.755 -2.204,3.934 v 0 c 11.786,13.437 25.514,25.392 35.357,40.311 12.308,18.654 20.024,39.968 30.598,59.658 22.164,41.27 48.908,80.79 64.947,125.089 -1.297,83.572 56.639,84.471 57.936,0.899 z" />
      <path
         style="fill:#dfdfdf;fill-opacity:1;stroke:none;stroke-width:30;stroke-linecap:round;stroke-linejoin:round;stroke-dasharray:none;stroke-opacity:1;paint-order:normal"
         id="path13237"
         d="m 15483.808,15090.204 c 8.307,-73.517 -0.443,-149.895 -34.84,-216.529 -10.307,-19.967 -22.261,-39.668 -38.084,-55.623 -16.377,-16.513 -37.997,-26.83 -56.995,-40.245 -16.691,3.444 -33.382,6.888 -50.073,10.333 -6.505,-0.06 -6.545,4.452 -0.04,4.509 v 0 c 11.036,7.922 22.071,15.843 33.106,23.765 8.12,6.928 17.658,12.476 24.361,20.783 36.98,45.828 56.592,104.41 64.383,162.15 3.609,26.744 1.376,49.412 -0.114,75.619 -21.981,84.092 36.315,99.33 58.296,15.238 z" />
      <path
         style="fill:#dfdfdf;fill-opacity:1;stroke:none;stroke-width:30;stroke-linecap:round;stroke-linejoin:round;stroke-dasharray:none;stroke-opacity:1;paint-order:normal"
         id="path13239"
         d="m 15220.364,14854.194 c -32.314,-59.639 -74.329,-128.452 -135.929,-161.773 -12.642,-6.839 -27.976,-6.609 -41.964,-9.913 -6.119,-2.208 -7.65,2.034 -1.531,4.242 v 0 c 47.346,58.184 94.189,117.099 132.734,181.631 20.465,67.349 67.154,53.162 46.69,-14.187 z" />
      <path
         style="fill:#dfdfdf;fill-opacity:1;stroke:none;stroke-width:30;stroke-linecap:round;stroke-linejoin:round;stroke-dasharray:none;stroke-opacity:1;paint-order:normal"
         id="path13241"
         d="m 14979.537,14749.931 c -10.888,-36.506 -27.034,-72.611 -49.414,-103.658 -8.933,-12.394 -17.967,-25.249 -30.028,-34.626 -29.238,-22.73 -47.387,-24.895 -79.774,-33.594 -6.349,-1.416 -7.331,2.985 -0.981,4.402 v 0 c 9.408,5.975 20.35,10.039 28.225,17.926 7.389,7.401 10.993,17.795 16.384,26.756 24.927,41.432 48.867,83.529 67.748,128.13 7.698,69.009 55.538,63.673 47.84,-5.336 z" />
      <path
         style="fill:#dfdfdf;fill-opacity:1;stroke:none;stroke-width:30;stroke-linecap:round;stroke-linejoin:round;stroke-dasharray:none;stroke-opacity:1;paint-order:normal"
         id="path13243"
         d="m 15365.077,16314.561 c 9.709,-60.709 9.063,-122.961 0.196,-183.798 -4.402,-30.198 -7.48,-61.223 -18.608,-89.639 -11.451,-29.241 -54.624,-86.419 -76.257,-116.209 -2.238,-6.109 -6.472,-4.558 -4.235,1.551 v 0 c 37.478,68.241 19.051,20.377 28.283,115.361 2.746,28.254 8.083,56.227 10.504,84.51 4.803,56.116 6.069,113.632 -1.676,169.553 -26.933,89.137 34.86,107.808 61.793,18.671 z" />
      <path
         style="fill:#dfdfdf;fill-opacity:1;stroke:none;stroke-width:30;stroke-linecap:round;stroke-linejoin:round;stroke-dasharray:none;stroke-opacity:1;paint-order:normal"
         id="path13245"
         d="m 15232.689,15838.427 c -7.215,-48.493 -15.17,-97.928 -33.258,-143.833 -5.831,-14.8 -11.27,-30.358 -21.299,-42.705 -16.731,-20.597 -39.248,-29.286 -61.767,-40.165 -6.077,-2.322 -7.686,1.891 -1.609,4.213 v 0 c 24.126,23.903 8.582,3.125 19.25,45.046 3.447,13.546 8.734,26.558 12.818,39.925 13.759,45.029 25.059,90.567 32.552,137.093 -0.614,76.904 52.699,77.33 53.313,0.425 z" />
      <path
         style="fill:#dfdfdf;fill-opacity:1;stroke:none;stroke-width:30;stroke-linecap:round;stroke-linejoin:round;stroke-dasharray:none;stroke-opacity:1;paint-order:normal"
         id="path13247"
         d="m 15070.894,15512.125 c -11.114,-51.239 -27.823,-101.681 -50.615,-148.974 -17.513,-36.337 -28.338,-59.149 -62.245,-81.355 -9.377,-6.141 -21.03,-7.763 -31.545,-11.645 -5.824,-2.899 -7.833,1.139 -2.009,4.037 v 0 c 6.423,22.984 7.083,27.459 18.017,53.182 6.745,15.866 14.99,31.066 21.71,46.943 19.6,46.312 34.654,94.196 50.867,141.732 5.655,80.52 61.475,76.601 55.82,-3.92 z" />
      <path
         style="fill:#dfdfdf;fill-opacity:1;stroke:none;stroke-width:30;stroke-linecap:round;stroke-linejoin:round;stroke-dasharray:none;stroke-opacity:1;paint-order:normal"
         id="path13249"
         d="m 14891.857,15133.473 c -9.094,-31.119 -12.873,-47.198 -26.304,-78.187 -5.957,-13.743 -10.957,-28.311 -20.05,-40.214 -21.523,-28.177 -33.084,-28.083 -62.813,-38.742 -5.951,-2.628 -7.772,1.498 -1.821,4.126 v 0 c 11.111,27.083 5.43,11.552 15.947,46.979 4.894,12.7 11.664,24.606 16.913,37.164 14.399,34.449 15.14,39.337 25.502,72.7 5.519,75.912 58.145,72.086 52.626,-3.826 z" />
      <path
         style="fill:#dfdfdf;fill-opacity:1;stroke:none;stroke-width:30;stroke-linecap:round;stroke-linejoin:round;stroke-dasharray:none;stroke-opacity:1;paint-order:normal"
         id="path13251"
         d="m 14760.678,14880.093 c -12.056,-54.23 -22.63,-110.563 -67.561,-148.335 -8.412,-7.071 -19.051,-10.957 -28.577,-16.436 -3.112,-5.713 -7.072,-3.556 -3.96,2.157 v 0 c 6.035,18.315 11.159,36.925 17.335,55.193 12.216,36.132 26.632,71.593 34.982,108.97 2.235,68.924 50.016,67.375 47.781,-1.549 z" />
      <path
         style="fill:#dfdfdf;fill-opacity:1;stroke:none;stroke-width:30;stroke-linecap:round;stroke-linejoin:round;stroke-dasharray:none;stroke-opacity:1;paint-order:normal"
         id="path13253"
         d="m 14654.596,14641.802 c -15.764,-34.772 -31.792,-72.187 -59.066,-99.933 -12.517,-12.734 -24.673,-28.031 -41.581,-33.773 -14.412,-4.894 -30.311,2.809 -45.467,4.214 -6.426,-1.015 -7.129,3.44 -0.703,4.454 v 0 c 8.979,9.834 17.721,19.891 26.938,29.502 5.052,5.269 11.159,9.517 15.845,15.113 23.044,27.515 39.444,59.189 55.804,90.881 15.085,69.572 63.316,59.114 48.23,-10.458 z" />
      <path
         style="fill:#dfdfdf;fill-opacity:1;stroke:none;stroke-width:30;stroke-linecap:round;stroke-linejoin:round;stroke-dasharray:none;stroke-opacity:1;paint-order:normal"
         id="path13259"
         d="m 14780.306,14656.046 c -13.009,-40.909 -36.674,-76.84 -59.163,-112.934 -0.928,-6.439 -5.392,-5.796 -4.464,0.643 v 0 c 2.332,39.027 3.801,78.423 13.572,116.506 6.08,72.204 56.135,67.989 50.055,-4.215 z" />
      <path
         style="fill:#dfdfdf;fill-opacity:1;stroke:none;stroke-width:30;stroke-linecap:round;stroke-linejoin:round;stroke-dasharray:none;stroke-opacity:1;paint-order:normal"
         id="path13261"
         d="m 16425.74,16343.629 c -3.406,-37.984 -10.165,-69.176 -39.515,-96.582 -9.019,-8.422 -20.787,-13.303 -31.181,-19.955 -2.53,-5.993 -6.685,-4.239 -4.154,1.755 v 0 c 2.074,22.256 2.506,35.199 8.073,57.482 2.473,9.902 6.875,19.252 9.387,29.145 1.842,7.252 2.426,14.768 3.639,22.152 -8.66,77.536 45.092,83.539 53.751,6.003 z" />
      <path
         style="fill:#dfdfdf;fill-opacity:1;stroke:none;stroke-width:30;stroke-linecap:round;stroke-linejoin:round;stroke-dasharray:none;stroke-opacity:1;paint-order:normal"
         id="path13263"
         d="m 16272.986,16133.575 c -17.137,-50.623 -30.178,-103.648 -56.658,-150.606 -10.059,-17.839 -24.09,-33.14 -35.442,-50.185 -1.814,-6.248 -6.145,-4.99 -4.331,1.257 v 0 c 13.87,35.207 -1.363,-7.489 10.294,53.634 9.909,51.959 29.084,101.627 45.039,151.855 8.59,59.283 49.687,53.329 41.098,-5.955 z" />
      <path
         style="fill:#dfdfdf;fill-opacity:1;stroke:none;stroke-width:30;stroke-linecap:round;stroke-linejoin:round;stroke-dasharray:none;stroke-opacity:1;paint-order:normal"
         id="path13265"
         d="m 16170.93,16116.088 c -34.773,-55.526 -63.387,-119.576 -106.69,-169.176 -15.528,-17.787 -34.898,-31.814 -52.347,-47.72 -2.413,-6.042 -6.601,-4.369 -4.188,1.673 v 0 c 6.874,19.491 12.304,39.553 20.621,58.474 26.374,60.001 63.582,114.637 95.742,171.494 21.269,67.599 68.132,52.854 46.862,-14.745 z" />
      <path
         style="fill:#dfdfdf;fill-opacity:1;stroke:none;stroke-width:30;stroke-linecap:round;stroke-linejoin:round;stroke-dasharray:none;stroke-opacity:1;paint-order:normal"
         id="path13267"
         d="m 15976.346,15796.985 c -16.556,-44.547 -16.852,-47.965 -40.12,-96.326 -10.217,-21.235 -19.458,-43.112 -32.187,-62.944 -28.338,-44.154 -42.457,-53.068 -78.379,-85.083 -2.807,-5.868 -6.876,-3.922 -4.069,1.946 v 0 c 40.413,74.827 -0.464,-3.379 44.604,93.415 9.748,20.935 20.582,41.35 30.62,62.148 51.597,106.915 4.082,11.589 45.08,93.168 9.122,49.696 43.573,43.373 34.451,-6.324 z" />
      <path
         style="fill:#dfdfdf;fill-opacity:1;stroke:none;stroke-width:30;stroke-linecap:round;stroke-linejoin:round;stroke-dasharray:none;stroke-opacity:1;paint-order:normal"
         id="path13269"
         d="m 15746.476,15508.515 c -6.215,-48.933 -23.336,-95.385 -54.35,-134.413 -11.604,-14.604 -24.228,-29.118 -39.894,-39.243 -25.108,-16.227 -50.876,-18.29 -78.59,-22.668 -6.504,-0.154 -6.611,4.355 -0.107,4.509 v 0 c 9.361,1.899 20.167,0.353 28.084,5.697 9.679,6.533 14.385,18.4 21.425,27.718 9.448,12.506 19.535,24.582 28.037,37.75 23.745,36.78 43.238,77.199 53.989,119.709 -1.357,59.728 40.049,60.669 41.406,0.941 z" />
      <path
         style="fill:#dfdfdf;fill-opacity:1;stroke:none;stroke-width:30;stroke-linecap:round;stroke-linejoin:round;stroke-dasharray:none;stroke-opacity:1;paint-order:normal"
         id="path13271"
         d="m 15474.215,15277.739 c -20.417,-32.058 -24.157,-39.675 -50.242,-71.734 -11.491,-14.123 -21.732,-29.774 -36.015,-41.065 -15.829,-12.513 -35.486,-19.225 -52.977,-29.285 -10.234,-5.886 -20.118,-12.362 -30.177,-18.543 -5.933,-2.668 -7.783,1.446 -1.849,4.113 v 0 c 58.172,54.507 -4.802,-10.772 44.311,64.548 9.539,14.628 22.797,26.463 33.973,39.882 10.33,12.403 42.233,52.056 54.391,67.135 21.711,55.659 60.296,40.608 38.585,-15.051 z" />
      <path
         style="fill:#dfdfdf;fill-opacity:1;stroke:none;stroke-width:30;stroke-linecap:round;stroke-linejoin:round;stroke-dasharray:none;stroke-opacity:1;paint-order:normal"
         id="path13273"
         d="m 15173.567,15186.754 c -13.841,-32.05 -28.002,-65.095 -42.272,-96.826 -9.191,-20.44 -17.378,-41.395 -28.029,-61.114 -9.781,-18.109 -19.685,-36.52 -33.125,-52.109 -19.047,-22.093 -34.128,-27.99 -56.855,-39.386 -5.947,-2.636 -7.775,1.486 -1.828,4.123 v 0 c 18.202,25.322 -1.844,-5.936 13.861,47.586 5.38,18.334 12.995,35.956 20.419,53.562 22.638,53.687 48.937,105.966 74.986,158.045 20.024,76.227 72.867,62.345 52.843,-13.881 z" />
      <path
         style="fill:#dfdfdf;fill-opacity:1;stroke:none;stroke-width:30;stroke-linecap:round;stroke-linejoin:round;stroke-dasharray:none;stroke-opacity:1;paint-order:normal"
         id="path13275"
         d="m 15505.34,16220.73 c 2.038,-12.112 4.431,-24.17 6.113,-36.337 8.835,-63.888 20.987,-147.586 4.802,-210.335 -7.412,-28.739 -29.627,-63.306 -45.711,-90.078 -1.519,-6.326 -5.905,-5.273 -4.386,1.053 v 0 c 15.885,51.109 8.015,9.091 -3.463,82.34 -3.67,23.423 -5.122,47.142 -7.278,70.752 -8.77,96.023 -1.689,42.951 -12.326,128.588 -1.516,12.207 -3.353,24.372 -5.03,36.559 -25.183,97.049 42.096,114.508 67.279,17.458 z" />
      <path
         style="fill:#dfdfdf;fill-opacity:1;stroke:none;stroke-width:30;stroke-linecap:round;stroke-linejoin:round;stroke-dasharray:none;stroke-opacity:1;paint-order:normal"
         id="path13277"
         d="m 15422.798,15764.295 c -12.383,-60.124 -33.256,-143.791 -78.334,-187.749 -11.642,-11.353 -27.684,-17.068 -41.526,-25.601 -2.853,-5.847 -6.906,-3.869 -4.053,1.977 v 0 c 2.546,11.318 4.61,22.755 7.636,33.954 16.236,60.102 39.097,118.347 53.181,179.076 2.39,91.016 65.486,89.359 63.096,-1.657 z" />
      <path
         style="fill:#dfdfdf;fill-opacity:1;stroke:none;stroke-width:30;stroke-linecap:round;stroke-linejoin:round;stroke-dasharray:none;stroke-opacity:1;paint-order:normal"
         id="path13279"
         d="m 15204.471,15393.454 c -9.501,-35.49 -17.608,-69.94 -31.836,-104.085 -6.761,-16.226 -13.019,-33.215 -23.946,-46.985 -8.857,-11.162 -22.633,-17.317 -33.95,-25.976 -1.833,-6.242 -6.161,-4.971 -4.327,1.271 v 0 c -0.844,10.987 -4.124,22.057 -2.533,32.961 2.329,15.964 9.145,30.946 14.096,46.301 30.688,95.174 6.645,12.929 31.162,99.873 4.847,74.048 56.18,70.689 51.334,-3.36 z" />
      <path
         style="fill:#dfdfdf;fill-opacity:1;stroke:none;stroke-width:30;stroke-linecap:round;stroke-linejoin:round;stroke-dasharray:none;stroke-opacity:1;paint-order:normal"
         id="path13281"
         d="m 15722.756,16209.788 c 14.109,-52.967 21.279,-107.995 22.63,-162.784 0.591,-23.979 1.112,-48.111 -1.623,-71.94 -2.428,-21.16 -5.005,-42.989 -13.793,-62.39 -7.103,-15.682 -21.738,-26.701 -32.608,-40.052 -0.889,-6.444 -5.357,-5.827 -4.467,0.617 v 0 c -2.433,12.723 -6.317,25.252 -7.299,38.168 -1.44,18.917 0.05,37.942 0.07,56.913 0.02,22.521 0.776,45.053 0.06,67.563 -1.653,51.803 -7.214,103.547 -18.491,154.165 -28.476,80.101 27.054,99.841 55.529,19.74 z" />
      <path
         style="fill:#dfdfdf;fill-opacity:1;stroke:none;stroke-width:30;stroke-linecap:round;stroke-linejoin:round;stroke-dasharray:none;stroke-opacity:1;paint-order:normal"
         id="path13283"
         d="m 15656.175,15846.058 c -12.72,-47.527 -28.954,-95.858 -54.93,-138.047 -9.955,-16.167 -19.603,-33.501 -34.399,-45.399 -14.468,-11.633 -33.805,-15.357 -50.707,-23.035 -5.667,-3.196 -7.882,0.732 -2.215,3.928 v 0 c 3.501,11.747 5.571,24.019 10.502,35.241 6.645,15.121 16.37,28.7 24.025,43.335 21.627,41.346 40.529,83.872 55.024,128.265 6.185,76.02 58.885,71.732 52.7,-4.288 z" />
      <path
         style="fill:#dfdfdf;fill-opacity:1;stroke:none;stroke-width:30;stroke-linecap:round;stroke-linejoin:round;stroke-dasharray:none;stroke-opacity:1;paint-order:normal"
         id="path13285"
         d="m 15489.003,15516.973 c -28.595,-30.496 -57.654,-61.679 -91.518,-86.538 -10.817,-7.94 -21.757,-16.233 -34.226,-21.187 -8.602,-3.418 -18.376,-2.243 -27.564,-3.365 -5.984,-2.553 -7.754,1.594 -1.771,4.148 v 0 c 5.143,9.325 9.006,19.48 15.428,27.975 8.342,11.035 18.626,20.48 28.514,30.154 24.62,24.086 51.198,46.438 77.609,68.508 28.408,48.364 61.937,28.67 33.528,-19.695 z" />
      <path
         style="fill:#dfdfdf;fill-opacity:1;stroke:none;stroke-width:30;stroke-linecap:round;stroke-linejoin:round;stroke-dasharray:none;stroke-opacity:1;paint-order:normal"
         id="path13287"
         d="m 15979.849,16187.648 c -10.881,-34.756 -20.169,-65.822 -33.371,-100.389 -8.562,-22.419 -15.21,-45.935 -27.562,-66.511 -12.488,-20.802 -30.77,-37.523 -46.155,-56.285 -1.238,-6.386 -5.666,-5.528 -4.428,0.858 v 0 c 0.445,21.16 -2.089,42.594 1.335,63.48 3.775,23.02 13.027,44.805 20.064,67.047 6.981,22.063 24.881,73.719 33.645,99.171 10.633,81.462 67.105,74.091 56.472,-7.371 z" />
      <path
         style="fill:#dfdfdf;fill-opacity:1;stroke:none;stroke-width:30;stroke-linecap:round;stroke-linejoin:round;stroke-dasharray:none;stroke-opacity:1;paint-order:normal"
         id="path13289"
         d="m 15846.534,15845.702 c -15.871,-49.941 -38.67,-98.104 -66.148,-142.729 -8.623,-14.005 -15.733,-29.837 -28.356,-40.38 -10.268,-8.576 -24.936,-9.696 -37.405,-14.545 -2.972,-5.786 -6.984,-3.725 -4.011,2.061 v 0 c -1.179,43.279 -5.227,18.971 21.375,67.501 24.361,44.441 47.014,89.588 68.434,135.52 10.716,66.515 56.827,59.086 46.111,-7.428 z" />
      <path
         style="fill:#dfdfdf;fill-opacity:1;stroke:none;stroke-width:30;stroke-linecap:round;stroke-linejoin:round;stroke-dasharray:none;stroke-opacity:1;paint-order:normal"
         id="path13291"
         d="m 15599.123,15455.411 c -17.731,-23.793 -27.656,-41.166 -53.975,-57.917 -12.263,-7.805 -26.707,-11.486 -40.061,-17.23 -5.68,-3.17 -7.878,0.768 -2.198,3.939 v 0 c 2.991,9.654 5.186,19.592 8.972,28.963 7.938,19.651 20.345,37.301 27.251,57.446 21.926,86.566 81.938,71.366 60.011,-15.201 z" />
      <path
         style="fill:#dfdfdf;fill-opacity:1;stroke:none;stroke-width:30;stroke-linecap:round;stroke-linejoin:round;stroke-dasharray:none;stroke-opacity:1;paint-order:normal"
         id="path13293"
         d="m 15319.943,15310.849 c -6.099,-37.266 -22.866,-93.014 -50.481,-119.626 -11.522,-11.103 -27.693,-16.039 -41.532,-24.073 -7.176,-4.166 -14.341,-8.352 -21.512,-12.528 -5.975,-2.573 -7.759,1.57 -1.783,4.142 v 0 c 26.44,25.925 3.357,-2.092 17.686,46.674 3.928,13.37 11.404,25.432 16.766,38.294 16.631,39.889 12.804,29.934 22.815,65.955 -1.676,83.725 56.365,84.887 58.041,1.162 z" />
      <path
         style="fill:#dfdfdf;fill-opacity:1;stroke:none;stroke-width:30;stroke-linecap:round;stroke-linejoin:round;stroke-dasharray:none;stroke-opacity:1;paint-order:normal"
         id="path13295"
         d="m 15322.735,15017.805 c -28.481,-27.681 -70.543,-84.253 -112.126,-90.116 -5.958,-0.84 -11.797,2.369 -17.696,3.554 -6.082,-2.308 -7.682,1.908 -1.6,4.216 v 0 c 1.899,6.31 2.882,12.97 5.697,18.928 17.462,36.97 49.887,62.947 77.691,91.692 40.785,69.288 88.818,41.015 48.034,-28.274 z" />
      <path
         style="fill:#dfdfdf;fill-opacity:1;stroke:none;stroke-width:30;stroke-linecap:round;stroke-linejoin:round;stroke-dasharray:none;stroke-opacity:1;paint-order:normal"
         id="path13297"
         d="m 14918.567,14896.427 c -21.56,-35.978 -6.978,-19.753 -46.35,-46.203 -1.796,-6.253 -6.131,-5.008 -4.335,1.244 v 0 c -5.333,39.956 -8.168,21.271 6.739,56.294 16.351,63.391 60.297,52.056 43.946,-11.335 z" />
      <path
         style="fill:#dfdfdf;fill-opacity:1;stroke:none;stroke-width:30;stroke-linecap:round;stroke-linejoin:round;stroke-dasharray:none;stroke-opacity:1;paint-order:normal"
         id="path13299"
         d="m 16617.747,16162.22 c 3.938,-30.004 11.57,-67.842 0.986,-97.196 -9.132,-25.328 -28.226,-45.866 -41.705,-69.173 -10.993,-19.009 -21.13,-38.5 -31.695,-57.749 -1.607,-6.304 -5.977,-5.19 -4.37,1.113 v 0 c 7.893,19.283 20.623,37.239 23.679,57.849 3.075,20.738 -4.82,41.683 -5.816,62.623 -5.519,116.032 6.402,-5.257 -3.008,81.067 -30.964,89.332 30.964,110.798 61.929,21.466 z" />
      <path
         style="fill:#dfdfdf;fill-opacity:1;stroke:none;stroke-width:30;stroke-linecap:round;stroke-linejoin:round;stroke-dasharray:none;stroke-opacity:1;paint-order:normal"
         id="path13301"
         d="m 16502.672,15870.001 c 2.598,-72.491 -8.929,-133.415 -52.627,-193.875 -11.116,-15.38 -26.044,-27.606 -39.066,-41.409 -2.129,-6.147 -6.391,-4.671 -4.261,1.476 v 0 c 17.748,58.229 12.658,37.249 26.393,102.157 8.541,40.359 17.101,80.712 15.853,122.239 -13.576,77.474 40.132,86.885 53.708,9.412 z" />
      <path
         style="fill:#dfdfdf;fill-opacity:1;stroke:none;stroke-width:30;stroke-linecap:round;stroke-linejoin:round;stroke-dasharray:none;stroke-opacity:1;paint-order:normal"
         id="path13303"
         d="m 16381.707,15577.682 c -19.412,-84.269 -48.937,-206.823 -151.032,-224.924 -13.411,-2.378 -26.795,4.907 -40.193,7.361 -6.491,0.432 -6.192,4.931 0.3,4.5 v 0 c 10.703,4.16 22.223,6.636 32.109,12.479 8.737,5.164 16.074,12.55 22.918,20.044 10.49,11.486 20.733,23.405 28.872,36.66 27.041,44.038 40.497,94.964 52.944,144.505 0.902,78.013 54.984,77.388 54.082,-0.625 z" />
      <path
         style="fill:#dfdfdf;fill-opacity:1;stroke:none;stroke-width:30;stroke-linecap:round;stroke-linejoin:round;stroke-dasharray:none;stroke-opacity:1;paint-order:normal"
         id="path13305"
         d="m 16146.726,15211.152 c -25.602,-21.199 -49.725,-44.667 -77.862,-62.645 -9.25,-5.911 -18.54,-12.496 -29.144,-15.334 -15.514,-4.153 -22.021,0.302 -33.679,5.643 -6.427,-1.009 -7.126,3.446 -0.699,4.455 v 0 c 4.117,9.75 10.967,26.541 15.839,33.01 6.639,8.814 15.392,15.83 23.509,23.306 24.248,22.332 50.463,42.442 75.451,63.915 75.514,38.349 102.099,-14.001 26.585,-52.35 z" />
      <path
         style="fill:#dfdfdf;fill-opacity:1;stroke:none;stroke-width:30;stroke-linecap:round;stroke-linejoin:round;stroke-dasharray:none;stroke-opacity:1;paint-order:normal"
         id="path13307"
         d="m 15877.524,14983.784 c -23.021,-25.771 -64.087,-79.401 -98.658,-83.59 -23.04,-2.792 -30.319,6.952 -45.795,18.893 -6.317,1.553 -5.24,5.933 1.077,4.379 v 0 c 28.23,18.387 -0.646,-2.24 28.33,25.723 5.507,5.314 11.885,9.644 17.828,14.466 3.415,2.629 7.095,4.946 10.245,7.888 12.634,11.796 23.733,25.165 36.476,36.857 35.508,72.842 86.006,48.226 50.497,-24.616 z" />
      <path
         style="fill:#dfdfdf;fill-opacity:1;stroke:none;stroke-width:30;stroke-linecap:round;stroke-linejoin:round;stroke-dasharray:none;stroke-opacity:1;paint-order:normal"
         id="path13313"
         d="m 15652.578,14901.427 c -17.966,-19.362 -48.564,-52.829 -66.552,-69.806 -16.295,-15.379 -31.067,-33.174 -50.439,-44.432 -10.29,-5.98 -41.821,-7.639 -57.203,-8.791 -6.313,-1.57 -7.401,2.806 -1.088,4.377 v 0 c 30.259,32.808 -11.813,-15.366 30.607,52.282 6.399,10.205 15.244,18.665 23.301,27.62 21.334,23.713 44.193,46.022 65.26,69.985 45.056,80.945 101.171,49.71 56.114,-31.235 z" />
      <path
         style="fill:#dfdfdf;fill-opacity:1;stroke:none;stroke-width:30;stroke-linecap:round;stroke-linejoin:round;stroke-dasharray:none;stroke-opacity:1;paint-order:normal"
         id="path13315"
         d="m 15387.229,14707.29 c -4.627,-8.122 -8.428,-16.775 -13.882,-24.366 -20.969,-29.187 -58.777,-70.974 -95.002,-79.517 -9.433,-2.225 -20.512,-4.163 -29.072,0.382 -8.791,4.666 -11.586,16.185 -17.378,24.278 -5.763,3.018 -3.67,7.013 2.092,3.995 v 0 c 5.008,3.206 9.883,6.632 15.025,9.619 4.536,2.636 9.627,4.303 13.98,7.232 29.356,19.754 53.043,46.742 74.562,74.461 23.202,71.656 72.877,55.571 49.675,-16.084 z" />
      <path
         style="fill:#dfdfdf;fill-opacity:1;stroke:none;stroke-width:30;stroke-linecap:round;stroke-linejoin:round;stroke-dasharray:none;stroke-opacity:1;paint-order:normal"
         id="path13317"
         d="m 15079.909,14568.491 c -26.291,-14.22 -50.749,-32.357 -78.581,-43.696 -9.656,-3.934 -19.526,-8.441 -29.933,-9.075 -20.289,-1.237 -26.605,6.098 -40.726,16.078 -6.43,0.993 -5.742,5.45 0.687,4.458 v 0 c 3.812,3.185 7.843,6.124 11.435,9.556 6.021,5.754 10.848,12.779 17.367,17.963 7.64,6.075 16.433,10.545 24.803,15.57 25.877,15.532 52.098,30.817 79.403,43.707 78.704,22.423 94.248,-32.137 15.545,-54.561 z" />
      <path
         style="fill:#dfdfdf;fill-opacity:1;stroke:none;stroke-width:30;stroke-linecap:round;stroke-linejoin:round;stroke-dasharray:none;stroke-opacity:1;paint-order:normal"
         id="path13319"
         d="m 15151.056,16415.466 c 20.145,-52.275 29.134,-105.874 20.658,-161.99 -3.529,-23.362 -12.255,-45.638 -18.382,-68.457 0.56,-6.481 -3.934,-6.869 -4.493,-0.388 v 0 c -20.485,103.537 -3.577,20.304 -25.629,122.92 -3.617,16.834 -6.489,33.835 -10.596,50.556 -2.805,11.422 -6.748,22.535 -10.122,33.802 -33.98,70.053 14.584,93.61 48.564,23.557 z" />
      <path
         style="fill:#dfdfdf;fill-opacity:1;stroke:none;stroke-width:30;stroke-linecap:round;stroke-linejoin:round;stroke-dasharray:none;stroke-opacity:1;paint-order:normal"
         id="path13321"
         d="m 15073.651,15982.493 c -3.757,-28.322 -7.765,-69.112 -18.1,-95.077 -7.306,-18.354 -19.905,-34.14 -29.202,-51.57 -6.717,-12.592 -12.547,-25.638 -18.82,-38.457 -1.225,-6.389 -5.654,-5.539 -4.429,0.85 v 0 c 3.882,12.972 9.787,25.504 11.648,38.917 2.382,17.17 -0.665,34.737 0.965,51.995 2.88,30.484 12.57,60.06 14.506,90.708 -3.8,62.651 39.633,65.285 43.432,2.634 z" />
      <path
         style="fill:#dfdfdf;fill-opacity:1;stroke:none;stroke-width:30;stroke-linecap:round;stroke-linejoin:round;stroke-dasharray:none;stroke-opacity:1;paint-order:normal"
         id="path13323"
         d="m 14928.093,15744.647 c 5.27,-7.955 11.483,-15.361 15.811,-23.865 30.314,-59.562 41.959,-133.91 9.305,-195.172 -6.26,-11.745 -16.874,-20.587 -25.311,-30.88 -1.335,-6.367 -5.749,-5.442 -4.414,0.925 v 0 c 0.149,47.727 0.982,14.675 -3.702,71.658 -1.304,15.866 -1.515,31.837 -3.547,47.627 -4.312,33.505 -12.378,66.861 -28.385,96.786 -47.49,58.05 -7.247,90.972 40.243,32.921 z" />
      <path
         style="fill:#dfdfdf;fill-opacity:1;stroke:none;stroke-width:30;stroke-linecap:round;stroke-linejoin:round;stroke-dasharray:none;stroke-opacity:1;paint-order:normal"
         id="path13325"
         d="m 15040.924,16229.494 c -0.171,-51.042 -6.353,-101.468 -26.545,-148.906 -6.761,-15.883 -16.937,-30.086 -25.405,-45.129 -0.472,-6.488 -4.97,-6.161 -4.498,0.327 v 0 c -1.231,15.054 -3.148,30.067 -3.691,45.161 -1.709,47.508 2.661,94.781 4.321,142.202 -9.154,80.517 46.664,86.863 55.818,6.345 z" />
      <path
         style="fill:#dfdfdf;fill-opacity:1;stroke:none;stroke-width:30;stroke-linecap:round;stroke-linejoin:round;stroke-dasharray:none;stroke-opacity:1;paint-order:normal"
         id="path13327"
         d="m 14817.425,15563.527 c 7.999,-34.163 12.125,-69.457 11.259,-104.588 -0.333,-13.521 0.659,-27.526 -3.379,-40.433 -6.101,-19.499 -21.136,-34.527 -34.155,-49.311 -1.08,-6.416 -5.527,-5.667 -4.447,0.748 v 0 c -0.898,5.445 -1.324,10.989 -2.693,16.334 -2.471,9.644 -7.673,18.648 -8.801,28.538 -1.376,12.056 1.283,24.242 1.394,36.375 0.299,32.69 -2.251,65.16 -7.381,97.44 -21.489,69.532 26.714,84.429 48.203,14.896 z" />
      <path
         style="fill:#dfdfdf;fill-opacity:1;stroke:none;stroke-width:30;stroke-linecap:round;stroke-linejoin:round;stroke-dasharray:none;stroke-opacity:1;paint-order:normal"
         id="path13329"
         d="m 14758.003,15263.107 c -8.008,-21.996 -15.322,-43.233 -25.128,-64.623 -5.568,-12.147 -10.001,-25.161 -18.176,-35.731 -8.09,-10.46 -20,-17.308 -29.752,-26.239 -5.227,-4.786 -10.112,-9.933 -15.168,-14.9 -1.937,-6.21 -6.242,-4.867 -4.305,1.343 v 0 c 4.808,28.205 3.458,11.679 0.548,49.738 1.616,12.483 7.268,24.107 11.279,36.039 7.478,22.246 15.016,41.411 23.308,63.097 12.585,82.79 69.978,74.066 57.394,-8.724 z" />
      <path
         style="fill:#dfdfdf;fill-opacity:1;stroke:none;stroke-width:30;stroke-linecap:round;stroke-linejoin:round;stroke-dasharray:none;stroke-opacity:1;paint-order:normal"
         id="path13331"
         d="m 14628.558,15084.841 c 2.905,-24.533 5.743,-42.665 5.34,-68.082 -0.219,-13.822 1.828,-28.453 -3.141,-41.353 -5.846,-15.18 -18.76,-26.58 -28.141,-39.87 0.136,-6.505 -4.373,-6.598 -4.509,-0.09 v 0 c -6.293,11.309 -15.198,21.52 -18.881,33.928 -3.554,11.972 -1.492,24.932 -2.291,37.395 -2.703,42.193 -1.328,26.119 -5.442,63.353 -21.237,82.317 35.828,97.039 57.065,14.723 z" />
      <path
         style="fill:#dfdfdf;fill-opacity:1;stroke:none;stroke-width:30;stroke-linecap:round;stroke-linejoin:round;stroke-dasharray:none;stroke-opacity:1;paint-order:normal"
         id="path13333"
         d="m 14585.853,14852.936 c -12.255,-31.48 -21.191,-49.542 -49.906,-69.276 -6.388,-4.39 -13.758,-7.143 -20.637,-10.714 -5.713,-3.111 -7.87,0.85 -2.156,3.961 v 0 c 5.7,12.305 10.43,25.074 16.689,37.105 8.149,15.664 18.742,29.968 27.018,45.561 9.574,41.821 38.566,35.184 28.992,-6.637 z" />
      <path
         style="fill:#db1111;fill-opacity:1;stroke:none;stroke-width:30;stroke-linecap:round;stroke-linejoin:round;stroke-dasharray:none;stroke-opacity:1;paint-order:normal"
         id="path13335"
         d="m 16574.349,16684.482 c -0.202,-40.82 -8.597,-76.426 -25.739,-113.775 -7,-15.253 -12.803,-31.915 -24.413,-44.034 -11.307,-11.801 -28.002,-16.862 -42.003,-25.294 -2.441,-6.03 -6.622,-4.337 -4.18,1.693 v 0 c -0.545,10.921 -2.685,21.879 -1.635,32.763 1.31,13.573 6.428,26.53 8.655,39.983 2.343,14.158 3.174,28.527 5.038,42.756 2.412,18.415 5.664,36.713 7.923,55.15 -15.519,110.14 60.835,120.898 76.354,10.758 z" />
      <path
         style="fill:#db1111;fill-opacity:1;stroke:none;stroke-width:30;stroke-linecap:round;stroke-linejoin:round;stroke-dasharray:none;stroke-opacity:1;paint-order:normal"
         id="path13337"
         d="m 16428.08,16650.708 c -6.898,-43.321 -4.916,-37.803 -18.855,-87.017 -14.902,-52.61 -20.599,-77.552 -52.903,-123.83 -11.647,-16.685 -27.321,-30.162 -40.982,-45.243 -1.841,-6.24 -6.166,-4.964 -4.325,1.276 v 0 c 9.422,46.079 12.663,65.731 25.981,112.953 5.678,20.13 12.836,39.817 18.819,59.859 1.948,6.528 18.69,67.054 22.591,81.139 -1.245,71.655 48.429,72.518 49.674,0.863 z" />
      <path
         style="fill:#db1111;fill-opacity:1;stroke:none;stroke-width:30;stroke-linecap:round;stroke-linejoin:round;stroke-dasharray:none;stroke-opacity:1;paint-order:normal"
         id="path13339"
         d="m 16266.963,16455.093 c -7.93,-22.496 -9.356,-28.277 -20.844,-51.739 -5.404,-11.038 -10.204,-22.547 -17.418,-32.497 -6.954,-9.592 -14.577,-19.393 -24.685,-25.573 -9.423,-5.761 -21.255,-6.006 -31.883,-9.01 -3.272,-5.622 -7.17,-3.354 -3.898,2.269 v 0 c -0.991,6.796 -3.681,13.556 -2.973,20.387 2.014,19.457 14.793,41.487 22.771,58.23 4.483,9.407 8.848,18.871 13.357,28.266 2.973,6.195 6.058,12.336 9.088,18.504 12.747,81.479 69.232,72.642 56.485,-8.837 z" />
      <path
         style="fill:#db1111;fill-opacity:1;stroke:none;stroke-width:30;stroke-linecap:round;stroke-linejoin:round;stroke-dasharray:none;stroke-opacity:1;paint-order:normal"
         id="path13341"
         d="m 16097.133,16633.595 c -13.468,-33.667 -9.637,-26.814 -30.644,-64.166 -8.183,-14.551 -15.834,-29.487 -25.446,-43.136 -9.536,-13.541 -19.27,-27.348 -31.809,-38.167 -12.02,-10.371 -27.223,-16.34 -40.835,-24.509 -2.367,-6.06 -6.568,-4.419 -4.201,1.641 v 0 c 0.448,12.693 -1.496,25.7 1.344,38.08 3.348,14.597 10.48,28.1 16.935,41.614 7.003,14.66 15.526,28.545 23.374,42.771 24.365,44.17 13.546,27.063 37.405,60.99 21.807,77.717 75.683,62.599 53.877,-15.118 z" />
      <path
         style="fill:#db1111;fill-opacity:1;stroke:none;stroke-width:30;stroke-linecap:round;stroke-linejoin:round;stroke-dasharray:none;stroke-opacity:1;paint-order:normal"
         id="path13343"
         d="m 16111.085,16447.042 c -1.639,-6.231 -2.663,-12.658 -4.916,-18.694 -6.942,-18.599 -21.298,-49.638 -35.745,-62.972 -11.072,-10.22 -26.091,-15.121 -38.628,-23.48 -8.198,-5.466 -15.663,-11.959 -23.494,-17.939 -3.307,-5.602 -7.191,-3.309 -3.884,2.293 v 0 c 33.095,45.144 -0.291,-7.023 21.127,54.945 3.734,10.805 11.018,20.035 16.433,30.103 14.156,26.323 9.83,17.076 18.483,37.962 3.199,73.024 53.823,70.807 50.624,-2.218 z" />
      <path
         style="fill:#db1111;fill-opacity:1;stroke:none;stroke-width:30;stroke-linecap:round;stroke-linejoin:round;stroke-dasharray:none;stroke-opacity:1;paint-order:normal"
         id="path13345"
         d="m 15799.689,16644.981 c 1.918,-5.812 4.417,-11.463 5.755,-17.435 4.614,-20.583 7.569,-50.696 6.696,-70.797 -0.7,-16.1 0.317,-33.086 -5.795,-47.997 -1.361,-3.32 -43.485,-59.372 -51.561,-70.167 -1.969,-6.201 -6.267,-4.835 -4.298,1.365 v 0 c 18.388,47.79 7.554,4.238 -0.282,64.734 -1.805,13.933 0.151,28.1 -0.07,42.148 -0.389,25.436 -1.953,50.635 -4.326,75.939 -32.038,77.714 21.836,99.924 53.874,22.21 z" />
      <path
         style="fill:#db1111;fill-opacity:1;stroke:none;stroke-width:30;stroke-linecap:round;stroke-linejoin:round;stroke-dasharray:none;stroke-opacity:1;paint-order:normal"
         id="path13347"
         d="m 15887.053,16460.429 c -0.904,-7.552 -0.835,-15.287 -2.713,-22.658 -6.675,-26.213 -18.188,-52.467 -33.168,-74.958 -7.713,-11.579 -14.461,-25.258 -26.484,-32.258 -13.26,-7.72 -30.04,-6.265 -45.059,-9.398 -5.891,-2.76 -7.805,1.324 -1.914,4.084 v 0 c -0.343,8.526 -3.524,17.418 -1.03,25.577 3.31,10.826 12.067,19.164 17.708,28.978 14.369,24.995 28.487,50.708 38.313,77.888 -3.959,78.395 50.387,81.14 54.347,2.745 z" />
      <path
         style="fill:#db1111;fill-opacity:1;stroke:none;stroke-width:30;stroke-linecap:round;stroke-linejoin:round;stroke-dasharray:none;stroke-opacity:1;paint-order:normal"
         id="path13349"
         d="m 15570.938,16609.702 c -6.751,-37.523 -4.584,-32.082 -18.585,-74.048 -5.48,-16.428 -11.017,-32.871 -17.739,-48.831 -6.061,-14.391 -10.998,-29.748 -20.558,-42.095 -16.213,-20.942 -29.613,-23.797 -50.781,-31.889 -5.818,-2.911 -7.836,1.123 -2.018,4.033 v 0 c 0.411,3.431 1.165,6.838 1.232,10.293 0.186,9.545 -2.347,19.275 -0.472,28.636 2.82,14.086 9.555,27.096 14.342,40.641 13.206,37.36 26.02,74.786 37.63,112.678 -0.84,82.148 56.108,82.731 56.949,0.582 z" />
      <path
         style="fill:#db1111;fill-opacity:1;stroke:none;stroke-width:30;stroke-linecap:round;stroke-linejoin:round;stroke-dasharray:none;stroke-opacity:1;paint-order:normal"
         id="path13351"
         d="m 15438.517,16610.876 c -1.725,-7.748 -2.517,-15.765 -5.176,-23.245 -6.136,-17.26 -20.293,-42.347 -31.187,-56.646 -6.799,-8.923 -12.647,-19.783 -22.62,-24.919 -14.445,-7.438 -31.787,-6.831 -47.447,-11.16 -8.786,-2.428 -17.195,-6.057 -25.792,-9.085 -6.261,-1.77 -7.488,2.57 -1.227,4.34 v 0 c 45.852,32.595 5.342,-4.904 23.308,42.162 3.124,8.185 11.38,13.339 16.622,20.359 14.169,18.979 25.288,39.551 36.821,60.147 2.817,81.787 59.515,79.834 56.698,-1.953 z" />
      <path
         style="fill:#db1111;fill-opacity:1;stroke:none;stroke-width:30;stroke-linecap:round;stroke-linejoin:round;stroke-dasharray:none;stroke-opacity:1;paint-order:normal"
         id="path13353"
         d="m 15279.092,16606.561 c -2.153,-4.883 -3.939,-9.944 -6.458,-14.648 -16.12,-30.095 -40.735,-66.47 -78.342,-69.942 -5.717,-0.528 -10.516,4.61 -15.773,6.915 -6.391,-1.217 -7.235,3.213 -0.844,4.43 v 0 c 1.587,4.99 4.427,9.743 4.76,14.968 0.23,3.599 -4.24,6.916 -3.144,10.352 1.933,6.063 7.597,10.211 11.342,15.356 10.885,14.957 21.317,30.172 30.955,45.968 19.328,82.948 76.832,69.549 57.504,-13.399 z" />
      <path
         style="fill:#db1111;fill-opacity:1;stroke:none;stroke-width:30;stroke-linecap:round;stroke-linejoin:round;stroke-dasharray:none;stroke-opacity:1;paint-order:normal"
         id="path13355"
         d="m 15694.335,16468.539 c -9.955,-19.023 -15.847,-33.257 -33.239,-48.784 -23.933,-21.369 -51.505,-31.907 -79.93,-45.352 -5.916,-2.706 -7.792,1.395 -1.876,4.101 v 0 c 6.861,9.535 14.373,18.634 20.584,28.606 6.382,10.246 10.861,21.59 17.112,31.917 8.5,14.04 19.742,26.324 27.115,41.099 16.714,72.463 66.948,60.876 50.234,-11.587 z" />
      <path
         style="fill:#db1111;fill-opacity:1;stroke:none;stroke-width:30;stroke-linecap:round;stroke-linejoin:round;stroke-dasharray:none;stroke-opacity:1;paint-order:normal"
         id="path13357"
         d="m 15692.316,16643.691 c 1.214,-18.097 4.113,-30.062 -5.449,-47.905 -5.524,-10.31 -15.215,-17.782 -22.365,-27.039 -5.311,-6.876 -9.993,-14.216 -14.989,-21.324 -1.788,-6.255 -6.124,-5.015 -4.336,1.24 v 0 c 2.472,7.202 7.243,13.993 7.417,21.606 0.194,8.443 -4.993,16.19 -6.36,24.523 -1.051,6.404 -1.092,26.691 -1.181,34.694 -20.491,68.176 26.772,82.381 47.263,14.205 z" />
      <path
         style="fill:#db1111;fill-opacity:1;stroke:none;stroke-width:30;stroke-linecap:round;stroke-linejoin:round;stroke-dasharray:none;stroke-opacity:1;paint-order:normal"
         id="path13359"
         d="m 15964.339,16719.594 c 5.352,-27.313 7.549,-33.044 7.885,-63.806 0.164,-14.925 1.113,-30.117 -1.892,-44.738 -5.972,-29.062 -19.649,-49.78 -33.615,-74.725 -0.453,-6.49 -4.952,-6.176 -4.499,0.314 v 0 c -10.178,97.709 6.946,-54.008 -12.283,67.327 -2.155,13.601 -2.234,27.45 -3.322,41.178 -3.258,41.095 -2.358,24.672 -3.558,57.269 -24.785,73.977 26.499,91.159 51.284,17.182 z" />
      <path
         style="fill:#db1111;fill-opacity:1;stroke:none;stroke-width:30;stroke-linecap:round;stroke-linejoin:round;stroke-dasharray:none;stroke-opacity:1;paint-order:normal"
         id="path13361"
         d="m 16307.444,16723.804 c -13.838,-32.849 -26.719,-67.974 -52.733,-93.698 -8.723,-8.626 -20.002,-14.212 -30.003,-21.317 -2.159,-6.137 -6.413,-4.64 -4.254,1.497 v 0 c 0.345,9.679 -0.603,19.491 1.035,29.037 5.739,33.44 22.87,63.174 35.126,94.327 14.203,73.32 65.032,63.474 50.829,-9.846 z" />
    </g>
  </g>
</svg>
