<?xml version="1.0" encoding="UTF-8" standalone="no"?>
<!-- Created with Inkscape (http://www.inkscape.org/) -->

<svg
   width="512"
   height="512"
   viewBox="0 0 512 512"
   version="1.1"
   id="svg5"
   inkscape:version="1.2.2 (b0a8486541, 2022-12-01)"
   sodipodi:docname="serena_2.svg"
   xmlns:inkscape="http://www.inkscape.org/namespaces/inkscape"
   xmlns:sodipodi="http://sodipodi.sourceforge.net/DTD/sodipodi-0.dtd"
   xmlns="http://www.w3.org/2000/svg"
   xmlns:svg="http://www.w3.org/2000/svg">
  <sodipodi:namedview
     id="namedview7"
     pagecolor="#ffffff"
     bordercolor="#000000"
     borderopacity="0.25"
     inkscape:showpageshadow="2"
     inkscape:pageopacity="0.0"
     inkscape:pagecheckerboard="0"
     inkscape:deskcolor="#d1d1d1"
     inkscape:document-units="px"
     showgrid="false"
     inkscape:zoom="0.40966797"
     inkscape:cx="310.00715"
     inkscape:cy="292.92014"
     inkscape:window-width="1920"
     inkscape:window-height="1011"
     inkscape:window-x="0"
     inkscape:window-y="32"
     inkscape:window-maximized="1"
     inkscape:current-layer="layer1" />
  <defs
     id="defs2" />
  <g
     inkscape:label="Camada 1"
     inkscape:groupmode="layer"
     id="layer1">
    <circle
       style="fill:#dd1010;stroke-width:28.5663;stroke-linecap:round;stroke-linejoin:round;paint-order:stroke fill markers"
       id="path788"
       cx="140.34691"
       cy="194.06148"
       r="125.36236" />
    <rect
       style="fill:#000000;fill-opacity:1;stroke-width:36.5631;stroke-linecap:round;stroke-linejoin:round;paint-order:stroke fill markers"
       id="rect842"
       width="482.03085"
       height="148.02975"
       x="14.984573"
       y="338.12476" />
    <path
       id="path1004"
       style="stroke-width:32;stroke-linecap:round;stroke-linejoin:round;paint-order:stroke fill markers"
       inkscape:transform-center-x="-36.188995"
       inkscape:transform-center-y="8.138638e-06"
       transform="matrix(0.63790752,0.63790752,-0.63790752,0.63790752,172.38777,-146.39626)"
       d="M 449.37061,280.86076 351.11,182.60016 252.8494,84.339566 387.07588,48.373683 521.30236,12.407801 485.33648,146.63429 Z" />
    <path
       style="fill:#ffffff;fill-opacity:1;stroke-width:32;stroke-linecap:round;stroke-linejoin:round;paint-order:stroke fill markers"
       id="path1118"
       d="m 57.521713,386.05518 c 6.986496,-7.36201 13.119683,-15.43121 18.644786,-23.92852 3.195266,-2.93869 1.117297,-5.19808 -2.077969,-2.25939 v 0 c -1.78055,0.9801 -3.72881,1.70349 -5.341651,2.94031 -6.790115,5.20703 -11.571768,13.14316 -14.984544,20.84448 -3.398524,5.31656 0.360854,7.71968 3.759378,2.40312 z" />
    <path
       style="fill:#ffffff;fill-opacity:1;stroke-width:32;stroke-linecap:round;stroke-linejoin:round;paint-order:stroke fill markers"
       id="path1365"
       d="m 47.278942,450.92702 c 0.767628,-0.73291 1.578162,-1.42337 2.302885,-2.19874 6.872126,-7.35234 12.910655,-16.44302 17.592504,-25.30785 1.099773,-2.08237 1.981416,-4.27282 2.972124,-6.40922 3.421386,-4.31131 0.372832,-6.73059 -3.048553,-2.41929 v 0 c -1.88088,1.6489 -4.014988,3.04739 -5.642638,4.94669 -3.816181,4.45307 -6.755808,10.51642 -9.513161,15.63353 -0.709045,1.31585 -4.813462,8.91429 -5.8289,10.9041 -0.484298,0.94901 -0.921462,1.92134 -1.382194,2.88201 -2.784256,3.60333 -0.236323,5.57209 2.547933,1.96877 z" />
    <path
       style="fill:#ffffff;fill-opacity:1;stroke-width:32;stroke-linecap:round;stroke-linejoin:round;paint-order:stroke fill markers"
       id="path1367"
       d="m 111.82538,389.3546 c 5.41891,-6.92909 10.66092,-14.04577 15.55815,-21.35863 4.18819,-6.25407 1.2669,-2.80005 4.88065,-6.75779 2.06077,-1.37653 1.08742,-2.83371 -0.97335,-1.45718 v 0 c -1.16218,0.39807 -2.40898,0.60432 -3.48655,1.19422 -1.74316,0.95427 -3.44477,2.04285 -4.89957,3.39665 -5.32642,4.95665 -9.47212,12.2227 -12.29249,18.86139 -0.64593,1.52043 -1.06733,3.12676 -1.60099,4.69014 -2.02403,3.97982 0.79013,5.41102 2.81415,1.4312 z" />
    <path
       style="fill:#ffffff;fill-opacity:1;stroke-width:32;stroke-linecap:round;stroke-linejoin:round;paint-order:stroke fill markers"
       id="path1369"
       d="m 126.38671,406.4252 c -8.30374,7.56622 -14.97467,16.91249 -19.74691,27.07914 -1.27587,2.71808 -2.15694,5.60455 -3.23541,8.40683 -3.469673,5.82726 0.65082,8.28069 4.1205,2.45343 v 0 c 1.6755,-2.36412 3.43374,-4.67172 5.02651,-7.09235 6.07003,-9.22497 11.05056,-19.056 16.1443,-28.83184 2.84993,-3.26541 0.54094,-5.28061 -2.30899,-2.01521 z" />
    <path
       style="fill:#ffffff;fill-opacity:1;stroke-width:32;stroke-linecap:round;stroke-linejoin:round;paint-order:stroke fill markers"
       id="path1373"
       d="m 160.80417,387.52516 c 9.19473,-7.02061 17.25669,-15.36199 25.12841,-23.79622 5.61141,-4.8055 2.2134,-8.77337 -3.398,-3.96786 v 0 c -2.7797,1.79999 -5.77939,3.2989 -8.33911,5.39999 -2.74649,2.25438 -5.1213,4.93668 -7.48548,7.58924 -5.19572,5.82947 -5.31703,6.55032 -8.82586,12.4322 -3.31301,4.12956 -0.39297,6.47221 2.92004,2.34265 z" />
    <path
       style="fill:#ffffff;fill-opacity:1;stroke-width:32;stroke-linecap:round;stroke-linejoin:round;paint-order:stroke fill markers"
       id="path1377"
       d="m 156.67121,438.52346 c -6.41638,7.11882 -11.75224,15.15072 -16.06271,23.70436 -1.15455,2.29108 -2.36353,4.58113 -3.14508,7.02474 -0.46683,1.45962 -0.37405,3.042 -0.56107,4.563 -1.65766,2.75662 0.29157,3.92876 1.94922,1.17214 v 0 c 1.13185,-0.92257 2.44785,-1.6568 3.39554,-2.7677 1.64776,-1.93151 2.96959,-4.12316 4.31812,-6.27429 5.09681,-8.13023 9.31736,-16.82085 12.55957,-25.8492 2.22463,-3.4699 -0.22896,-5.04295 -2.45359,-1.57305 z" />
    <path
       style="fill:#ffffff;fill-opacity:1;stroke-width:32;stroke-linecap:round;stroke-linejoin:round;paint-order:stroke fill markers"
       id="path1379"
       d="m 179.00657,413.24163 c 3.7474,-3.78616 6.93188,-8.08829 9.61879,-12.68571 1.09875,-1.87999 2.00179,-3.86774 3.00268,-5.80161 3.02717,-4.04459 0.1672,-6.18512 -2.85996,-2.14053 v 0 c -1.51633,1.62745 -3.18955,3.12173 -4.54898,4.88235 -3.27685,4.24393 -5.61582,9.17243 -7.51225,14.15295 -2.25221,3.2523 0.0475,4.84485 2.29972,1.59255 z" />
    <path
       style="fill:#ffffff;fill-opacity:1;stroke-width:32;stroke-linecap:round;stroke-linejoin:round;paint-order:stroke fill markers"
       id="path1383"
       d="m 217.82009,371.41132 c 6.00249,-3.86348 11.22479,-8.81955 15.5832,-14.46251 1.03417,-1.33897 1.92084,-2.78564 2.88125,-4.17846 2.87302,-2.6666 0.98746,-4.69813 -1.88556,-2.03153 v 0 c -1.53599,0.89146 -3.17886,1.62005 -4.60797,2.67438 -5.68773,4.19614 -10.12017,9.94986 -14.19742,15.6391 -3.33616,3.14875 -1.10966,5.50777 2.2265,2.35902 z" />
    <path
       style="fill:#ffffff;fill-opacity:1;stroke-width:32;stroke-linecap:round;stroke-linejoin:round;paint-order:stroke fill markers"
       id="path1391"
       d="m 205.22125,424.83423 c -4.76943,4.9054 -9.1991,10.28447 -12.76019,16.14448 -2.40019,3.94966 -2.81195,5.31974 -4.46777,9.32006 -2.01215,2.69676 -0.10526,4.11957 1.9069,1.42281 v 0 c 1.10099,-0.99457 2.26597,-1.92261 3.30298,-2.98372 6.19225,-6.33617 10.6762,-14.12093 14.45715,-22.07139 2.59117,-3.44937 0.1521,-5.28161 -2.43907,-1.83224 z" />
    <path
       style="fill:#ffffff;fill-opacity:1;stroke-width:32;stroke-linecap:round;stroke-linejoin:round;paint-order:stroke fill markers"
       id="path1393"
       d="m 230.832,402.13177 c 5.82014,-4.56215 11.07694,-9.90638 15.71583,-15.66204 1.98857,-2.46729 3.72159,-5.13007 5.58239,-7.6951 4.93893,-5.45244 1.08348,-8.94479 -3.85546,-3.49236 v 0 c -2.35828,2.18167 -4.88751,4.19199 -7.07485,6.54501 -5.07026,5.45435 -9.37323,11.77504 -12.53275,18.51244 -2.53435,3.06154 -0.36951,4.8536 2.16484,1.79205 z" />
    <path
       style="fill:#ffffff;fill-opacity:1;stroke-width:32;stroke-linecap:round;stroke-linejoin:round;paint-order:stroke fill markers"
       id="path1395"
       d="m 274.1613,380.50192 c 4.70243,-3.95176 9.2992,-8.18414 13.23086,-12.92247 2.75994,-3.32621 4.54022,-6.30553 6.82916,-9.87557 2.75472,-2.94628 0.67138,-4.89417 -2.08334,-1.94788 v 0 c -3.42882,2.60707 -6.14573,4.52273 -9.2761,7.62818 -4.38898,4.35405 -8.14765,9.36676 -11.52726,14.52383 -3.66835,3.99754 -0.84166,6.59145 2.82668,2.59391 z" />
    <path
       style="fill:#ffffff;fill-opacity:1;stroke-width:32;stroke-linecap:round;stroke-linejoin:round;paint-order:stroke fill markers"
       id="path1397"
       d="m 262.53828,408.21715 c -4.43811,5.73822 -8.69438,11.73964 -11.69728,18.3786 -0.82119,1.81553 -1.40225,3.73037 -2.10337,5.59555 -2.44317,3.8091 0.25027,5.53669 2.69344,1.72758 v 0 c 1.2715,-1.50665 2.65317,-2.92682 3.81449,-4.51994 4.3433,-5.95822 7.57894,-12.7834 9.80567,-19.7893 1.96926,-3.55384 -0.54368,-4.94632 -2.51295,-1.39249 z" />
    <path
       style="fill:#ffffff;fill-opacity:1;stroke-width:32;stroke-linecap:round;stroke-linejoin:round;paint-order:stroke fill markers"
       id="path1399"
       d="m 236.35787,446.14161 c -5.07978,4.52797 -9.69807,9.62218 -13.80987,15.04398 -1.59169,2.09879 -3.2863,4.15819 -4.49897,6.49652 -0.90939,1.75351 -1.19896,3.76426 -1.79844,5.64638 -2.51934,3.41299 -0.10599,5.19444 2.41335,1.78145 v 0 c 1.49056,-1.12487 3.14306,-2.06242 4.47169,-3.37461 1.8655,-1.84239 3.44848,-3.95457 5.05076,-6.02994 4.15115,-5.37681 7.89044,-11.12117 11.07402,-17.12072 3.45501,-4.10482 0.55247,-6.54788 -2.90254,-2.44306 z" />
    <path
       style="fill:#ffffff;fill-opacity:1;stroke-width:32;stroke-linecap:round;stroke-linejoin:round;paint-order:stroke fill markers"
       id="path1401"
       d="m 302.92879,383.25633 c -2.79894,3.83741 -5.34222,8.43754 -6.60988,13.02988 -0.51518,1.86634 -0.62614,3.82133 -0.93921,5.732 -2.60162,5.50508 1.29106,7.3447 3.89268,1.83962 v 0 c 1.0516,-1.54644 2.27059,-2.99144 3.15479,-4.63932 2.23982,-4.17431 3.62988,-9.33175 4.50331,-13.98155 2.80103,-5.65924 -1.20066,-7.63987 -4.00169,-1.98063 z" />
    <path
       style="fill:#ffffff;fill-opacity:1;stroke-width:32;stroke-linecap:round;stroke-linejoin:round;paint-order:stroke fill markers"
       id="path1403"
       d="m 274.45222,435.2989 c -4.93245,5.92038 -9.58998,12.30872 -12.60792,19.4538 -2.00603,4.74932 -2.48129,7.85189 -3.5267,12.67858 -2.61489,5.27541 1.11538,7.12442 3.73028,1.84902 v 0 c 1.49091,-2.19817 5.86927,-8.59552 6.91766,-10.43549 3.37058,-5.91546 6.06815,-12.38556 7.81397,-18.97154 0.2687,-1.01365 0.39972,-2.05888 0.59959,-3.08832 2.10159,-4.13923 -0.82529,-5.62528 -2.92688,-1.48605 z" />
    <path
       style="fill:#ffffff;fill-opacity:1;stroke-width:32;stroke-linecap:round;stroke-linejoin:round;paint-order:stroke fill markers"
       id="path1405"
       d="m 297.39583,446.74408 c 4.28801,-3.39913 7.18571,-7.96883 10.048,-12.54091 3.26113,-3.724 0.62786,-6.02997 -2.63327,-2.30597 v 0 c -4.26814,3.73227 -8.1856,7.1725 -10.25186,12.6365 -3.12596,4.01232 -0.28882,6.2227 2.83713,2.21038 z" />
    <path
       style="fill:#ffffff;fill-opacity:1;stroke-width:32;stroke-linecap:round;stroke-linejoin:round;paint-order:stroke fill markers"
       id="path1407"
       d="m 320.738,411.04093 c 4.08714,-3.91032 7.95406,-8.2395 11.07538,-12.97138 3.24833,-4.92443 4.84156,-8.68037 7.34862,-13.91853 4.52588,-6.63056 -0.16263,-9.83083 -4.68851,-3.20028 v 0 c -3.78086,4.66296 -6.16401,7.29992 -9.33968,12.5353 -2.95438,4.87058 -5.24838,10.20732 -7.20601,15.54382 -2.84408,3.97422 -0.0339,5.98529 2.8102,2.01107 z" />
    <path
       style="fill:#ffffff;fill-opacity:1;stroke-width:32;stroke-linecap:round;stroke-linejoin:round;paint-order:stroke fill markers"
       id="path1409"
       d="m 321.91257,363.01094 c 2.05261,-1.04377 4.09403,-2.22342 5.8303,-3.75454 0.78037,-0.68817 1.45211,-1.49052 2.17817,-2.23578 2.7472,-2.02816 1.31307,-3.97072 -1.43413,-1.94256 v 0 c -0.98542,0.44451 -2.02032,0.79256 -2.95626,1.33355 -2.04568,1.18246 -3.77023,2.90045 -5.20536,4.75216 -2.61229,2.24476 -1.02501,4.09193 1.58728,1.84717 z" />
    <path
       style="fill:#ffffff;fill-opacity:1;stroke-width:32;stroke-linecap:round;stroke-linejoin:round;paint-order:stroke fill markers"
       id="path1411"
       d="m 376.78894,349.43034 c -1.80974,2.49414 -3.46161,5.22495 -4.59779,8.09804 -1.07645,2.72207 -2.06996,6.8401 -2.8137,9.67052 -2.23158,4.85012 1.19797,6.42808 3.42955,1.57796 v 0 c 2.98583,-5.83403 6.19227,-11.64965 6.69436,-18.32476 1.44499,-3.83594 -1.26743,-4.8577 -2.71242,-1.02176 z" />
    <path
       style="fill:#ffffff;fill-opacity:1;stroke-width:32;stroke-linecap:round;stroke-linejoin:round;paint-order:stroke fill markers"
       id="path1413"
       d="m 363.34522,390.62952 c -1.93983,2.1508 -4.3879,4.96039 -5.45634,7.62921 -0.59131,1.47703 -0.73978,3.09481 -1.10967,4.64221 -2.41286,4.35196 0.66444,6.05811 3.0773,1.70615 v 0 c 0.95967,-1.1836 2.08626,-2.24948 2.87901,-3.55079 0.73939,-1.21371 1.15764,-2.59717 1.67313,-3.92158 1.05235,-2.70374 0.97289,-2.69017 1.50367,-5.08533 2.00799,-3.63043 -0.55911,-5.0503 -2.5671,-1.41987 z" />
    <path
       style="fill:#ffffff;fill-opacity:1;stroke-width:32;stroke-linecap:round;stroke-linejoin:round;paint-order:stroke fill markers"
       id="path1415"
       d="m 339.37535,432.40933 c -4.88644,3.64319 -8.85653,8.36439 -12.3934,13.29257 -4.39088,6.11812 -7.46687,11.17463 -10.3557,18.14673 -1.10315,2.66239 -1.79068,5.47856 -2.68602,8.21784 -4.62097,7.86541 0.94071,11.13293 5.56169,3.26752 v 0 c 1.68965,-2.19274 3.49476,-4.30118 5.06896,-6.57822 7.28836,-10.54245 12.49646,-22.27353 17.43609,-34.04299 3.25757,-3.72167 0.62595,-6.02512 -2.63162,-2.30345 z" />
    <path
       style="fill:#ffffff;fill-opacity:1;stroke-width:32;stroke-linecap:round;stroke-linejoin:round;paint-order:stroke fill markers"
       id="path1417"
       d="m 386.93467,404.21176 c 3.0843,-2.61558 6.18123,-5.5095 8.43981,-8.89532 1.19257,-1.78777 2.05852,-3.77305 3.08778,-5.65958 4.12317,-5.59242 0.16873,-8.50795 -3.95445,-2.91552 v 0 c -1.38895,1.5977 -2.9104,3.08923 -4.16687,4.79308 -2.41921,3.28059 -4.14367,7.11722 -5.80494,10.81583 -2.63257,3.39223 -0.2339,5.25374 2.39867,1.86151 z" />
    <path
       style="fill:#ffffff;fill-opacity:1;stroke-width:32;stroke-linecap:round;stroke-linejoin:round;paint-order:stroke fill markers"
       id="path1419"
       d="m 417.13292,350.82209 c -1.46334,4.50551 -2.27651,9.26672 -2.1427,14.02054 0.0585,2.07909 0.45566,4.1348 0.68349,6.2022 -1.012,6.54124 3.61336,7.25684 4.62536,0.71559 v 0 c 0.36168,-1.97073 0.88759,-3.91829 1.08502,-5.91218 0.47376,-4.78463 -0.0344,-9.64435 -0.87984,-14.35114 0.95461,-4.76777 -2.41672,-5.44278 -3.37133,-0.67501 z" />
    <path
       style="fill:#ffffff;fill-opacity:1;stroke-width:32;stroke-linecap:round;stroke-linejoin:round;paint-order:stroke fill markers"
       id="path1421"
       d="m 381.71921,421.13919 c -2.57923,5.55519 -4.49812,11.51894 -5.77304,17.50613 -0.6741,3.16568 -1.32688,6.35691 -1.54548,9.58618 -0.18894,2.79116 0.21926,5.59079 0.32889,8.38619 -2.23736,8.51573 3.78417,10.09778 6.02153,1.58205 v 0 c 0.94606,-2.51361 2.1781,-4.93746 2.83819,-7.54084 0.79699,-3.14332 1.17076,-6.38543 1.51051,-9.61036 0.66699,-6.33123 0.7503,-12.88147 -0.29416,-19.17701 1.0357,-4.36488 -2.05074,-5.09722 -3.08644,-0.73234 z" />
    <path
       style="fill:#ffffff;fill-opacity:1;stroke-width:32;stroke-linecap:round;stroke-linejoin:round;paint-order:stroke fill markers"
       id="path1423"
       d="m 427.42968,385.38112 c 3.66819,-2.60401 7.42197,-5.3183 10.41983,-8.71094 1.31127,-1.48396 2.34387,-3.19257 3.5158,-4.78886 4.57676,-4.59148 1.33009,-7.82774 -3.24667,-3.23626 v 0 c -1.61496,1.20129 -3.36783,2.23656 -4.84488,3.60386 -3.40984,3.15647 -6.07079,7.20995 -8.11709,11.34522 -2.52717,3.21452 -0.25416,5.0015 2.27301,1.78698 z" />
    <path
       style="fill:#ffffff;fill-opacity:1;stroke-width:32;stroke-linecap:round;stroke-linejoin:round;paint-order:stroke fill markers"
       id="path1425"
       d="m 414.12733,416.79133 c -1.5421,5.80264 -0.56817,10.56237 0.33079,16.34 -0.41675,6.89393 4.45799,7.18862 4.87475,0.29469 v 0 c 0.009,-5.49309 0.13927,-11.02035 -1.73497,-16.28593 0.49322,-4.90813 -2.97735,-5.25689 -3.47057,-0.34876 z" />
    <path
       style="fill:#ffffff;fill-opacity:1;stroke-width:32;stroke-linecap:round;stroke-linejoin:round;paint-order:stroke fill markers"
       id="path1427"
       d="m 412.68587,462.1589 c -1.28939,2.11378 -2.27701,3.49449 -3.06241,5.95599 -0.40252,1.26157 -1.133,5.80929 -1.38266,7.28013 -1.60925,3.26701 0.70088,4.40493 2.31013,1.13792 v 0 c 1.42199,-1.99494 3.05018,-4.04684 3.9486,-6.35995 1.00634,-2.59097 0.95695,-4.3099 1.14395,-6.94888 1.50643,-4.18269 -1.45117,-5.2479 -2.95761,-1.06521 z" />
    <path
       style="fill:#ffffff;fill-opacity:1;stroke-width:32;stroke-linecap:round;stroke-linejoin:round;paint-order:stroke fill markers"
       id="path1429"
       d="m 444.59838,402.8444 c 4.49375,-2.9944 8.93484,-6.38978 12.7148,-10.25378 2.25624,-2.30639 4.22223,-4.87984 6.33334,-7.31977 7.30814,-7.76609 1.81669,-12.93372 -5.49145,-5.16763 v 0 c -2.32235,2.3263 -4.849,4.46516 -6.96705,6.9789 -3.38406,4.01626 -6.24258,9.29117 -8.49626,14.07738 -2.38281,2.69636 -0.47619,4.38126 1.90662,1.6849 z" />
    <path
       style="fill:#ffffff;fill-opacity:1;stroke-width:32;stroke-linecap:round;stroke-linejoin:round;paint-order:stroke fill markers"
       id="path1431"
       d="m 440.60969,428.62091 c 0.39017,5.03155 1.29043,10.15871 3.00375,14.92115 0.90928,2.5275 2.16921,4.91476 3.25381,7.37214 1.43183,8.52286 7.45841,7.5104 6.02657,-1.01246 v 0 c -0.71314,-2.50219 -1.26668,-5.05548 -2.13941,-7.50657 -1.76592,-4.95968 -4.33158,-9.65606 -7.10349,-14.11325 -0.47941,-4.30094 -3.52063,-3.96195 -3.04123,0.33899 z" />
  </g>
</svg>
